<?xml version="1.0" standalone="no"?>
<!DOCTYPE svg PUBLIC "-//W3C//DTD SVG 1.1//EN" "http://www.w3.org/Graphics/SVG/1.1/DTD/svg11.dtd" >
<svg xmlns="http://www.w3.org/2000/svg" xmlns:xlink="http://www.w3.org/1999/xlink" version="1.1">
<metadata>
Created by FontForge 20170731 at Thu Apr 13 12:10:21 2023
 By Aleksey,,,
Copyright 2005 The Playfair Project Authors (https://github.com/googlefonts/Playfair)
</metadata>
<defs>
<font id="Playfair144pt-MediumItalic" horiz-adv-x="0" >
  <font-face 
    font-family="Playfair 144pt Medium"
    font-weight="500"
    font-style="italic"
    font-stretch="normal"
    units-per-em="1240"
    panose-1="0 0 0 0 0 0 0 0 0 0"
    ascent="992"
    descent="-248"
    x-height="529"
    cap-height="708"
    bbox="-320 -255 1281 1077.56"
    underline-thickness="11"
    underline-position="-115"
    slope="-15.6"
    unicode-range="U+000D-FEFF"
  />
<missing-glyph horiz-adv-x="562" 
d="M60 772h442v-772h-442v772zM96 30h370v712h-370v-712z" />
    <glyph glyph-name="fi" unicode="fi" horiz-adv-x="680" 
d="M-122 -239q-39 0 -60.5 14t-21.5 39q0 21 14.5 35t36.5 14q20 0 34.5 -10t26.5 -23t23.5 -23t26.5 -10q21 0 37.5 20t28.5 69l141 593q27 110 69.5 176.5t104 96.5t142.5 30q80 0 128 -28t48 -76q0 -31 -22 -51.5t-56 -20.5q-23 0 -36.5 10t-13.5 27q0 19 12 33t24 27.5
t12 28.5q0 18 -21 28t-56 10q-53 0 -94 -24.5t-70.5 -78.5t-50.5 -142l-108 -450q-22 -95 -67 -165.5t-104.5 -109.5t-127.5 -39zM68 504l3 11h483l-4 -11h-482zM486 -14q-58 0 -81 42.5t-3 113.5l104 373h108l-112 -402q-12 -43 -5 -67.5t34 -24.5q17 0 32.5 10.5
t29.5 28.5t25 38l20 38h11l-23 -42q-16 -31 -36.5 -55.5t-45.5 -38.5t-58 -14z" />
    <glyph glyph-name="fl" unicode="fl" horiz-adv-x="687" 
d="M-122 -239q-39 0 -60.5 14t-21.5 39q0 21 15 35t36 14q20 0 34.5 -10t26.5 -23t23.5 -23t26.5 -10q21 0 37.5 20t28.5 69l154 648q21 84 56 139t89.5 82t130.5 27q28 0 47 -4t40 -8.5t50 -4.5q33 0 62 8t54 22l-191 -682q-12 -45 -4 -68.5t34 -23.5q43 0 86 78l20 37h11
l-23 -42q-16 -30 -36.5 -55t-45.5 -39t-58 -14q-58 0 -81 42.5t-3 113.5l143 511q11 37 4 63.5t-32.5 40.5t-71.5 14q-40 0 -70.5 -18.5t-52 -58t-35.5 -103.5l-124 -516q-22 -95 -67.5 -165.5t-104.5 -109.5t-127 -39zM73 504l3 11h343l-3 -11h-343z" />
    <glyph glyph-name="T_adieresis.liga" unicode="T&#xe4;" horiz-adv-x="1234" 
d="M111 0l3 11q56 4 85 11t43 24.5t24 52.5l161 576l109 -28l-154 -548q-9 -33 -5 -51.5t30.5 -26t81.5 -10.5l-3 -11q-33 1 -82.5 2t-106.5 1q-53 0 -102 -1t-84 -2zM146 430q-29 0 -48 23t-19 63q0 59 31 105.5t84.5 73.5t120.5 27q55 0 108 -10t103 -25t94.5 -30t82 -25
t66.5 -10q28 0 40.5 14t18 35.5t11.5 43t19 35.5t41 14q25 0 39.5 -14.5t14.5 -41.5q0 -44 -49 -70.5t-134 -26.5q-45 0 -90 5.5t-92 13t-96 15.5t-102 13.5t-110 5.5q-76 0 -117.5 -16.5t-41.5 -46.5q0 -16 11.5 -30.5t27.5 -28.5t28 -29.5t12 -34.5q0 -21 -15 -34.5
t-39 -13.5zM1125 638q-26 0 -44 17.5t-18 43.5q0 27 18.5 45t44.5 18q27 0 44.5 -17.5t17.5 -43.5q0 -27 -18 -45t-45 -18zM810 -14q-71 0 -113 53t-42 142q0 67 24 129.5t66 112t95 78t111 28.5q52 0 94.5 -21.5t70.5 -61.5l-72 -48q-3 60 -26 90t-58 30q-37 0 -72 -28
t-62.5 -75t-43.5 -107t-16 -124q0 -76 25.5 -116.5t72.5 -40.5q28 0 51.5 15.5t44.5 48.5l2 -7q-30 -49 -68 -73.5t-84 -24.5zM1047 -14q-58 0 -81.5 42.5t-2.5 113.5l86 310q42 13 79.5 34.5t61.5 47.5l7 -9q-10 -10 -17 -21t-13 -24t-11 -31l-93 -336q-12 -43 -4 -67.5
t34 -24.5q17 0 32.5 10.5t29 28t24.5 39.5l20 37h11l-23 -44q-16 -30 -36.5 -54t-45.5 -38t-58 -14z" />
    <glyph glyph-name="T_edieresis.liga" unicode="T&#xeb;" horiz-adv-x="1128" 
d="M111 0l3 11q56 4 85 11t43 24.5t24 52.5l161 576l109 -28l-154 -548q-9 -33 -5 -51.5t30.5 -26t81.5 -10.5l-3 -11q-33 1 -82.5 2t-106.5 1q-53 0 -102 -1t-84 -2zM146 430q-29 0 -48 23t-19 63q0 59 31 105.5t84.5 73.5t120.5 27q55 0 108 -10t103 -25t94.5 -30t82 -25
t66.5 -10q28 0 40.5 14t18 35.5t11.5 43t19 35.5t41 14q25 0 39.5 -14.5t14.5 -41.5q0 -44 -49 -70.5t-134 -26.5q-45 0 -90 5.5t-92 13t-96 15.5t-102 13.5t-110 5.5q-76 0 -117.5 -16.5t-41.5 -46.5q0 -16 11.5 -30.5t27.5 -28.5t28 -29.5t12 -34.5q0 -21 -15 -34.5
t-39 -13.5zM1125 638q-26 0 -44 17.5t-18 43.5q0 27 18.5 45t44.5 18q27 0 44.5 -17.5t17.5 -43.5q0 -27 -18 -45t-45 -18zM830 -14q-83 0 -129 51t-46 145q0 69 25.5 131.5t69 111t100 76.5t119.5 28q56 0 86 -23t30 -66q0 -49 -40.5 -94.5t-114 -82t-171.5 -57.5l1 9
q74 21 126 55t79 78.5t27 96.5q0 36 -12 54t-35 18q-31 0 -62.5 -30t-58 -79.5t-42.5 -107.5t-16 -116q0 -79 29.5 -120t84.5 -41q47 0 85.5 28.5t68.5 89.5h11q-35 -76 -90 -115.5t-125 -39.5z" />
    <glyph glyph-name="T_i.liga" unicode="Ti" horiz-adv-x="978" 
d="M146 430q-29 0 -48 23t-19 63q0 59 31 105.5t84.5 73.5t120.5 27q54 0 107 -10t102.5 -25t93.5 -30t82 -25t66 -10t40 14t16.5 35.5t10 43t18.5 35.5t44 14q26 0 41 -14.5t15 -41.5q0 -44 -49 -70.5t-134 -26.5q-44 0 -89.5 5.5t-92 13t-96 15.5t-101.5 13.5t-109 5.5
q-76 0 -117.5 -16.5t-41.5 -46.5q0 -16 11.5 -30.5t27.5 -28.5t28 -29.5t12 -34.5q0 -21 -15 -34.5t-39 -13.5zM111 0l3 11q56 4 85 11t43 24.5t24 52.5l161 576l109 -28l-154 -548q-9 -33 -5 -51.5t30.5 -26t81.5 -10.5l-3 -11q-33 1 -82.5 2t-106.5 1q-53 0 -102 -1
t-84 -2zM784 -14q-40 0 -64 20.5t-29 56.5t10 82l83 254q14 43 6.5 69t-34.5 26q-22 0 -44 -19.5t-44 -58.5l-20 -37h-11l23 42q31 57 64 82.5t77 25.5q40 0 63.5 -20t29 -56t-10.5 -83l-82 -254q-14 -43 -6.5 -69t34.5 -26q45 0 87 78l21 37h10l-22 -42q-31 -57 -64 -82.5
t-77 -25.5z" />
    <glyph glyph-name="T_idieresis.liga" unicode="T&#xef;" horiz-adv-x="986" 
d="M112 0l2 11q57 4 85.5 11t42.5 24.5t24 52.5l161 576l106 -37l-151 -539q-9 -34 -4.5 -52t31 -25.5t80.5 -10.5l-3 -11q-33 1 -82.5 2t-105.5 1q-54 0 -103 -1t-83 -2zM147 430q-30 0 -49 23t-19 63q0 59 30 105.5t82 73.5t117 27q51 0 98.5 -15t90.5 -34t79.5 -34
t63.5 -15q28 0 41 14t18.5 35l11 42t18.5 35t41 14q26 0 40 -14.5t14 -41.5q0 -43 -49 -69t-134 -26q-41 0 -83 7.5t-86 18t-91.5 18t-100.5 7.5q-76 0 -118.5 -16.5t-42.5 -46.5q0 -16 12.5 -30.5t28.5 -28.5t28 -29.5t12 -34.5q0 -21 -15 -34.5t-38 -13.5zM996 638
q-26 0 -44 17.5t-18 43.5q0 27 18.5 45t44.5 18q27 0 44.5 -17.5t17.5 -43.5q0 -27 -18 -45t-45 -18zM792 -14q-40 0 -64 20.5t-29 56.5t10 82l82 254q15 43 7.5 69t-34.5 26q-22 0 -44.5 -19.5t-43.5 -58.5l-20 -37h-11l23 42q31 57 64 82.5t76 25.5q41 0 64.5 -20t29 -56
t-10.5 -83l-82 -254q-15 -43 -7 -69t35 -26q45 0 87 78l20 37h11l-23 -42q-30 -57 -63 -82.5t-77 -25.5z" />
    <glyph glyph-name="T_j.liga" unicode="Tj" horiz-adv-x="958" 
d="M146 430q-29 0 -48 23t-19 63q0 59 31 105.5t84.5 73.5t120.5 27q54 0 107 -10t102.5 -25t93.5 -30t82 -25t66 -10t40 14t16.5 35.5t10 43t18.5 35.5t44 14q26 0 41 -14.5t15 -41.5q0 -44 -49 -70.5t-134 -26.5q-44 0 -89.5 5.5t-92 13t-96 15.5t-101.5 13.5t-109 5.5
q-76 0 -117.5 -16.5t-41.5 -46.5q0 -16 11.5 -30.5t27.5 -28.5t28 -29.5t12 -34.5q0 -21 -15 -34.5t-39 -13.5zM111 0l3 11q56 4 85 11t43 24.5t24 52.5l161 576l109 -28l-154 -548q-9 -33 -5 -51.5t30.5 -26t81.5 -10.5l-3 -11q-33 1 -82.5 2t-106.5 1q-53 0 -102 -1
t-84 -2zM500 -239q-38 0 -59 14t-21 39q0 22 14.5 35.5t36.5 13.5q18 0 32 -10.5t25.5 -23.5t23.5 -23.5t25 -10.5q11 0 20 6.5t18 24.5t18 52l145 523q12 44 4.5 68.5t-33.5 24.5q-21 0 -43.5 -19.5t-43.5 -58.5l-20 -37h-11l22 42q31 57 64 82.5t77 25.5q39 0 62 -19.5
t29.5 -54.5t-7.5 -82l-83 -299q-26 -96 -71 -166.5t-102 -108.5t-122 -38z" />
    <glyph glyph-name="T_odieresis.liga" unicode="T&#xf6;" horiz-adv-x="1185" 
d="M111 0l3 11q56 4 85 11t43 24.5t24 52.5l161 576l109 -28l-154 -548q-9 -33 -5 -51.5t30.5 -26t81.5 -10.5l-3 -11q-33 1 -82.5 2t-106.5 1q-53 0 -102 -1t-84 -2zM146 430q-29 0 -48 23t-19 63q0 59 31 105.5t84.5 73.5t120.5 27q55 0 108 -10t103 -25t94.5 -30t82 -25
t66.5 -10q28 0 40.5 14t18 35.5t11.5 43t19 35.5t41 14q25 0 39.5 -14.5t14.5 -41.5q0 -44 -49 -70.5t-134 -26.5q-45 0 -90 5.5t-92 13t-96 15.5t-102 13.5t-110 5.5q-76 0 -117.5 -16.5t-41.5 -46.5q0 -16 11.5 -30.5t27.5 -28.5t28 -29.5t12 -34.5q0 -21 -15 -34.5
t-39 -13.5zM1125 638q-26 0 -44 17.5t-18 43.5q0 27 18.5 45t44.5 18q27 0 44.5 -17.5t17.5 -43.5q0 -27 -18 -45t-45 -18zM840 -14q-87 0 -135 53.5t-48 147.5q0 70 24 131.5t66 109t96.5 74.5t115.5 27q86 0 134.5 -53.5t48.5 -148.5q0 -69 -24 -130.5t-66 -108.5
t-96.5 -74.5t-115.5 -27.5zM841 -3q28 0 56 20.5t52.5 57t43.5 83.5t29.5 101t10.5 108q0 74 -18.5 112.5t-54.5 38.5q-29 0 -57.5 -20.5t-53 -57t-43 -83.5t-29.5 -100.5t-11 -108.5q0 -74 19 -112.5t56 -38.5z" />
    <glyph glyph-name="T_udieresis.liga" unicode="T&#xfc;" horiz-adv-x="1259" 
d="M111 0l3 11q56 4 85 11t43 24.5t24 52.5l161 576l109 -28l-154 -548q-9 -33 -5 -51.5t30.5 -26t81.5 -10.5l-3 -11q-33 1 -82.5 2t-106.5 1q-53 0 -102 -1t-84 -2zM146 430q-29 0 -48 23t-19 63q0 59 31 105.5t84.5 73.5t120.5 27q55 0 108 -10t103 -25t94.5 -30t82 -25
t66.5 -10q28 0 40.5 14t18 35.5t11.5 43t19 35.5t41 14q25 0 39.5 -14.5t14.5 -41.5q0 -44 -49 -70.5t-134 -26.5q-45 0 -90 5.5t-92 13t-96 15.5t-102 13.5t-110 5.5q-76 0 -117.5 -16.5t-41.5 -46.5q0 -16 11.5 -30.5t27.5 -28.5t28 -29.5t12 -34.5q0 -21 -15 -34.5
t-39 -13.5zM1125 638q-26 0 -44 17.5t-18 43.5q0 27 18.5 45t44.5 18q27 0 44.5 -17.5t17.5 -43.5q0 -27 -18 -45t-45 -18zM822 -14q-51 0 -82.5 26t-40 72t8.5 107l59 211q13 44 5 68t-34 24q-22 0 -44 -19.5t-43 -58.5l-20 -37h-11l23 42q17 31 37 55.5t45.5 38.5t57.5 14
q40 0 63 -19.5t29 -54.5t-7 -82l-56 -197q-21 -76 -5.5 -115.5t65.5 -39.5q36 0 65.5 23t55.5 70l1 -7q-32 -60 -75.5 -90.5t-96.5 -30.5zM1072 -14q-39 0 -62.5 19.5t-29.5 54.5t7 82l105 373h108l-112 -402q-12 -42 -4.5 -67t33.5 -25q22 0 44 19t43 59l20 37h11l-22 -42
q-17 -31 -37.5 -55.5t-45.5 -38.5t-58 -14z" />
    <glyph glyph-name="f_adieresis.liga" unicode="f&#xe4;" horiz-adv-x="952" 
d="M-122 -239q-39 0 -60.5 14t-21.5 39q0 21 15 35t36 14q20 0 34 -10t26 -23t24.5 -23t27.5 -10q23 0 38.5 22t26.5 67l151 634q21 87 66 145.5t112.5 87.5t157.5 29q81 0 129.5 -22t48.5 -60q0 -27 -21.5 -45t-53.5 -18q-25 0 -39 10.5t-14 27.5q0 16 10.5 27.5t20.5 22
t10 21.5q0 12 -19 18t-55 6q-64 0 -111 -25.5t-79 -79.5t-53 -138l-108 -452q-22 -94 -67 -165t-104.5 -110t-127.5 -39zM68 504l3 11h351l-3 -11h-351zM858 638q-26 0 -44 17.5t-18 43.5q0 27 18.5 45t45.5 18q26 0 43.5 -17.5t17.5 -43.5q0 -27 -18 -45t-45 -18zM527 -14
q-71 0 -113 53t-42 142q0 67 24.5 129.5t66 112t94.5 78t111 28.5q53 0 95 -21.5t70 -61.5l-72 -48q-3 60 -26 90t-58 30q-37 0 -72 -28t-62.5 -75t-43.5 -107t-16 -124q0 -76 25.5 -116.5t72.5 -40.5q28 0 51.5 15.5t44.5 48.5l2 -7q-30 -49 -68 -73.5t-84 -24.5zM764 -14
q-58 0 -81 42.5t-3 113.5l86 310q42 13 80 34.5t61 47.5l7 -9q-10 -10 -17 -21t-13 -24t-11 -31l-93 -336q-12 -43 -4 -67.5t34 -24.5q17 0 32.5 10.5t29 28t24.5 39.5l21 37h11l-24 -44q-16 -30 -36.5 -54t-45.5 -38t-58 -14z" />
    <glyph glyph-name="f_b.liga" unicode="fb" horiz-adv-x="940" 
d="M-122 -239q-39 0 -60.5 14t-21.5 39q0 21 15 35t36 14q20 0 34.5 -10t26.5 -23t23.5 -23t26.5 -10q21 0 37.5 20t28.5 69l154 648q21 84 56 139t89.5 82t130.5 27q28 0 47 -4t40 -8.5t50 -4.5q33 0 62 8t54 22l-168 -603q-28 -101 -14 -147.5t62 -46.5q39 0 74.5 27
t64 73.5t44.5 106t16 124.5q0 80 -24.5 123.5t-68.5 43.5q-31 0 -57 -21t-44 -59v9q27 51 66 77.5t86 26.5q70 0 111.5 -54t41.5 -145q0 -71 -24 -133t-65.5 -109.5t-96.5 -74.5t-118 -27q-68 0 -108.5 31t-51.5 88t11 135l115 413q11 37 4 63.5t-32.5 40.5t-71.5 14
q-40 0 -70 -18.5t-51.5 -58.5t-36.5 -103l-124 -516q-22 -95 -67 -165.5t-104.5 -109.5t-127.5 -39zM73 504l3 11h343l-3 -11h-343z" />
    <glyph glyph-name="f_eth.liga" unicode="f&#xf0;" horiz-adv-x="906" 
d="M-122 -239q-39 0 -60.5 14t-21.5 39q0 21 15 35t36 14q20 0 34 -10t26 -23t24.5 -23t28.5 -10q22 0 37.5 22.5t26.5 66.5l154 648q21 85 56.5 140t90 81.5t129.5 26.5q72 0 135 -22t114 -62t88 -94t56.5 -117t19.5 -131q0 -78 -23 -145.5t-64.5 -118t-96 -78.5
t-117.5 -28q-86 0 -135 54.5t-49 151.5q0 68 23 128t62.5 105.5t91.5 72t111 26.5q28 0 51 -6.5t38 -20.5l1 -9q-12 10 -27 14.5t-34 4.5q-44 0 -82 -27t-66.5 -75t-44 -112t-15.5 -138q0 -79 20 -118.5t59 -39.5q37 0 70.5 30.5t60.5 82t42.5 117.5t15.5 135
q0 82 -21.5 156t-61 131t-93.5 89.5t-119 32.5q-43 0 -74 -18.5t-52.5 -58t-37.5 -103.5l-123 -516q-22 -94 -67 -165t-104.5 -110t-127.5 -39zM73 504l3 11h343l-3 -11h-343zM475 579l-4 9l213 87l6 -8zM697 670l-7 8l199 80l4 -10z" />
    <glyph glyph-name="f_edieresis.liga" unicode="f&#xeb;" horiz-adv-x="845" 
d="M-122 -239q-39 0 -60.5 14t-21.5 39q0 21 15 35t36 14q20 0 34 -10t26 -23t24.5 -23t27.5 -10q23 0 38.5 22t26.5 67l151 634q21 87 66 145.5t112.5 87.5t157.5 29q81 0 129.5 -22t48.5 -60q0 -27 -21.5 -45t-53.5 -18q-25 0 -39 10.5t-14 27.5q0 16 10.5 27.5t20.5 22
t10 21.5q0 12 -19 18t-55 6q-64 0 -111 -25.5t-79 -79.5t-53 -138l-108 -452q-22 -94 -67 -165t-104.5 -110t-127.5 -39zM68 504l3 11h351l-3 -11h-351zM858 638q-26 0 -44 17.5t-18 43.5q0 27 18.5 45t45.5 18q26 0 43.5 -17.5t17.5 -43.5q0 -27 -18 -45t-45 -18zM547 -14
q-83 0 -129 51t-46 145q0 69 25.5 131.5t69 111t100 76.5t119.5 28q56 0 86 -23t30 -66q0 -49 -40.5 -94.5t-113.5 -82t-171 -57.5v9q74 21 126 55t79 78.5t27 96.5q0 36 -12 54t-35 18q-31 0 -62.5 -30t-57.5 -79.5t-42 -107.5t-16 -116q0 -79 29 -120t84 -41
q47 0 85.5 28.5t68.5 89.5h11q-35 -76 -90 -115.5t-125 -39.5z" />
    <glyph glyph-name="f_f.liga" unicode="ff" horiz-adv-x="712" 
d="M234 -199q-35 0 -63.5 10t-50.5 30t-36 49l5 11q20 -43 54.5 -64.5t76.5 -21.5q40 0 66.5 19.5t45.5 62t35 109.5l126 528q30 122 93.5 185t169.5 63q64 0 100 -22.5t36 -62.5q0 -34 -23.5 -58t-55.5 -24q-18 0 -28.5 9t-10.5 24q0 17 9.5 32.5t18.5 31t9 30.5
q0 29 -44 29q-58 0 -95 -50t-60 -144l-113 -471q-24 -103 -59.5 -170.5t-85.5 -101t-120 -33.5zM-122 -239q-39 0 -60.5 14t-21.5 39q0 21 15 35t36 14q20 0 34.5 -10t26 -23t23.5 -23.5t28 -10.5q23 0 39 24t26 66l137 574q23 96 56.5 158.5t82.5 93t116 30.5q33 0 60 -8.5
t47 -25t31 -40.5l-6 -10q-15 34 -45.5 51.5t-65.5 17.5q-60 0 -92.5 -45t-56.5 -144l-111 -463q-22 -92 -65.5 -162.5t-103 -111t-130.5 -40.5zM64 504l3 11h344l-3 -11h-344zM338 504l3 11h388l-3 -11h-388z" />
    <glyph glyph-name="f_f_adieresis.liga" unicode="ff&#xe4;" horiz-adv-x="1266" 
d="M234 -199q-35 0 -63.5 10t-50.5 30t-36 49l5 11q20 -43 54.5 -64.5t76.5 -21.5q40 0 66.5 19.5t45.5 62t35 109.5l123 514q21 87 66 145.5t112.5 87.5t156.5 29q82 0 130.5 -22t48.5 -60q0 -27 -21.5 -45t-54.5 -18q-24 0 -38.5 10.5t-14.5 27.5q0 16 10.5 27.5t21 22
t10.5 21.5q0 12 -19.5 18t-55.5 6q-63 0 -110.5 -25.5t-79.5 -79.5t-53 -138l-100 -421q-24 -103 -59 -170.5t-85.5 -101t-120.5 -33.5zM-122 -239q-39 0 -60.5 14t-21.5 39q0 21 15 35t36 14q20 0 34.5 -10t26 -23t23.5 -23.5t28 -10.5q23 0 39 24t26 66l137 574
q23 96 56.5 158.5t82.5 93t116 30.5q35 0 64 -9.5t50 -27.5t32 -45l-6 -10q-14 38 -48 57.5t-71 19.5q-60 0 -92.5 -45t-56.5 -144l-111 -463q-22 -92 -65.5 -162.5t-103 -111t-130.5 -40.5zM64 504l3 11h344l-3 -11h-344zM380 504l3 11h353l-2 -11h-354zM1173 638
q-26 0 -44 17.5t-18 43.5q0 27 18.5 45t44.5 18t43.5 -17.5t17.5 -43.5q0 -27 -18 -45t-44 -18zM841 -14q-70 0 -112.5 53t-42.5 142q0 67 24.5 129.5t66.5 112t95 78t110 28.5q53 0 95 -21.5t71 -61.5l-72 -48q-3 60 -26 90t-58 30q-38 0 -72.5 -28t-62 -75t-43.5 -107
t-16 -124q0 -76 25.5 -116.5t72.5 -40.5q28 0 51.5 15.5t44.5 48.5l1 -7q-30 -49 -67.5 -73.5t-84.5 -24.5zM1079 -14q-58 0 -81.5 42.5t-3.5 113.5l87 310q41 13 79 34.5t62 47.5l6 -9q-9 -10 -16.5 -21t-13 -24t-10.5 -31l-93 -336q-13 -43 -4.5 -67.5t34.5 -24.5
q17 0 32 10.5t28.5 28t25.5 39.5l20 37h11l-24 -44q-16 -30 -36 -54t-45.5 -38t-57.5 -14z" />
    <glyph glyph-name="f_f_b.liga" unicode="ffb" horiz-adv-x="1255" 
d="M234 -199q-35 0 -63.5 10t-50.5 30t-36 49l5 11q20 -43 54.5 -64.5t76.5 -21.5q41 0 67.5 20t45 62t34.5 109l126 528q21 84 56 139t89 82t131 27q28 0 47 -4t39.5 -8.5t50.5 -4.5q33 0 62 8t54 22l-168 -603q-28 -101 -14 -147.5t61 -46.5q40 0 75.5 27t63.5 73.5
t44.5 106t16.5 124.5q0 80 -24.5 123.5t-68.5 43.5q-31 0 -57 -21t-44 -59v9q27 51 65.5 77.5t85.5 26.5q71 0 112.5 -54t41.5 -145q0 -71 -24 -133t-65.5 -109.5t-97 -74.5t-117.5 -27q-68 0 -108.5 31t-51.5 88t11 135l115 411q11 39 4 65.5t-33 40.5t-72 14
q-39 0 -69 -18.5t-51.5 -58.5t-36.5 -103l-117 -485q-24 -103 -59.5 -170.5t-85.5 -101t-120 -33.5zM-122 -239q-39 0 -60.5 14t-21.5 39q0 21 15 35t36 14q20 0 34.5 -10t26 -23t23.5 -23.5t28 -10.5q23 0 39 24t26 66l137 574q23 96 56.5 158.5t82.5 93t116 30.5
q33 0 60 -8.5t47 -25t31 -40.5l-6 -10q-15 34 -45.5 51.5t-65.5 17.5q-60 0 -92.5 -45t-56.5 -144l-111 -463q-22 -92 -65.5 -162.5t-103 -111t-130.5 -40.5zM64 504l3 11h344l-3 -11h-344zM388 504l3 11h343l-3 -11h-343z" />
    <glyph glyph-name="f_f_edieresis.liga" unicode="ff&#xeb;" horiz-adv-x="1159" 
d="M234 -199q-35 0 -63.5 10t-50.5 30t-36 49l5 11q20 -43 54.5 -64.5t76.5 -21.5q40 0 66.5 19.5t45.5 62t35 109.5l123 514q21 87 66 145.5t112.5 87.5t156.5 29q82 0 130.5 -22t48.5 -60q0 -27 -21.5 -45t-54.5 -18q-24 0 -38.5 10.5t-14.5 27.5q0 16 10.5 27.5t21 22
t10.5 21.5q0 12 -19.5 18t-55.5 6q-63 0 -110.5 -25.5t-79.5 -79.5t-53 -138l-100 -421q-24 -103 -59 -170.5t-85.5 -101t-120.5 -33.5zM-122 -239q-39 0 -60.5 14t-21.5 39q0 21 15 35t36 14q20 0 34.5 -10t26 -23t23.5 -23.5t28 -10.5q23 0 39 24t26 66l137 574
q23 96 56.5 158.5t82.5 93t116 30.5q35 0 64 -9.5t50 -27.5t32 -45l-6 -10q-14 38 -48 57.5t-71 19.5q-60 0 -92.5 -45t-56.5 -144l-111 -463q-22 -92 -65.5 -162.5t-103 -111t-130.5 -40.5zM64 504l3 11h344l-3 -11h-344zM380 504l3 11h353l-2 -11h-354zM1173 638
q-26 0 -44 17.5t-18 43.5q0 27 18.5 45t44.5 18t43.5 -17.5t17.5 -43.5q0 -27 -18 -45t-44 -18zM862 -14q-84 0 -129.5 51t-45.5 145q0 69 25 131.5t68.5 111t100.5 76.5t120 28q56 0 86 -23t30 -66q0 -49 -41 -94.5t-114 -82t-171 -57.5v9q75 21 126.5 55t79 78.5
t27.5 96.5q0 36 -12 54t-35 18q-31 0 -63 -30t-58 -79.5t-42 -107.5t-16 -116q0 -79 29.5 -120t84.5 -41q47 0 85 28.5t69 89.5h11q-36 -76 -90.5 -115.5t-124.5 -39.5z" />
    <glyph glyph-name="f_f_h.liga" unicode="ffh" horiz-adv-x="1305" 
d="M234 -199q-35 0 -63.5 10t-50.5 30t-36 49l5 11q20 -43 54.5 -64.5t76.5 -21.5q41 0 67.5 20t45 62t34.5 109l126 528q21 84 56 139t89 82t131 27q28 0 47 -4t39.5 -8.5t50.5 -4.5q33 0 62 8t54 22l-222 -795h-108l182 653q11 37 4 63.5t-33 40.5t-72 14q-39 0 -69 -18.5
t-51.5 -58.5t-36.5 -103l-117 -485q-24 -103 -59.5 -170.5t-85.5 -101t-120 -33.5zM-122 -239q-39 0 -60.5 14t-21.5 39q0 21 15 35t36 14q20 0 34.5 -10t26 -23t23.5 -23.5t28 -10.5q23 0 39 24t26 66l137 574q23 96 56.5 158.5t82.5 93t116 30.5q33 0 60 -8.5t47 -25
t31 -40.5l-6 -10q-15 34 -45.5 51.5t-65.5 17.5q-60 0 -92.5 -45t-56.5 -144l-111 -463q-22 -92 -65.5 -162.5t-103 -111t-130.5 -40.5zM64 504l3 11h346l-3 -11h-346zM388 504l3 11h343l-3 -11h-343zM1118 -14q-39 0 -62.5 19.5t-29.5 54.5t7 82l56 197q21 76 5.5 115.5
t-65.5 39.5q-36 0 -66 -21.5t-55 -66.5l-1 7q32 58 75.5 87t96.5 29q77 0 108.5 -56t5.5 -149l-59 -211q-12 -44 -4 -68t33 -24q22 0 44 19.5t43 58.5l20 37h11l-22 -42q-17 -31 -37.5 -55.5t-45.5 -38.5t-58 -14z" />
    <glyph glyph-name="f_f_i.liga" unicode="ffi" horiz-adv-x="994" 
d="M234 -199q-35 0 -63.5 10t-50.5 30t-36 49l5 11q20 -43 54.5 -64.5t76.5 -21.5q40 0 66.5 19.5t45.5 62t35 109.5l114 476q26 109 68.5 175t102.5 95.5t140 29.5q82 0 130.5 -28t48.5 -76q0 -31 -22 -51.5t-56 -20.5q-23 0 -36.5 10t-13.5 27q0 19 12 33t23 27t11 28
q0 19 -21.5 29t-57.5 10q-52 0 -91.5 -24t-68.5 -77t-50 -141l-101 -422q-24 -103 -59 -170.5t-85.5 -101t-120.5 -33.5zM-122 -239q-39 0 -60.5 14t-21.5 39q0 21 15 35t36 14q20 0 34.5 -10t26 -23t23.5 -23.5t28 -10.5q23 0 39 24t26 66l137 574q23 96 56.5 158.5
t82.5 93t116 30.5q35 0 64 -9.5t50 -27.5t32 -45l-6 -10q-14 38 -48 57.5t-71 19.5q-60 0 -92.5 -45t-56.5 -144l-111 -463q-22 -92 -65.5 -162.5t-103 -111t-130.5 -40.5zM64 504l3 11h344l-3 -11h-344zM338 504l3 11h512l-3 -11h-512zM800 -14q-58 0 -81 42.5t-3 113.5
l104 373h108l-111 -402q-13 -43 -5.5 -67.5t33.5 -24.5q18 0 33.5 10.5t29 28.5t24.5 38l20 38h11l-22 -42q-17 -31 -37.5 -55.5t-45.5 -38.5t-58 -14z" />
    <glyph glyph-name="f_f_idieresis.liga" unicode="ff&#xef;" horiz-adv-x="994" 
d="M-122 -239q-39 0 -60.5 14t-21.5 39q0 21 15 35t36 14q20 0 34.5 -10t26 -23t23.5 -23.5t28 -10.5q23 0 39 24t26 66l137 574q23 96 56.5 158.5t82.5 93t116 30.5q35 0 64 -9.5t50 -27.5t32 -45l-6 -10q-14 38 -48 57.5t-71 19.5q-60 0 -92.5 -45t-56.5 -144l-111 -463
q-22 -92 -65.5 -162.5t-103 -111t-130.5 -40.5zM64 504l3 11h344l-3 -11h-344zM234 -199q-35 0 -63.5 10t-50.5 30t-36 49l5 11q20 -43 54.5 -64.5t76.5 -21.5q40 0 66.5 19.5t45.5 62t35 109.5l125 522q20 85 54 141.5t82.5 84.5t113.5 28q47 0 77.5 -21.5t30.5 -56.5
q0 -29 -21 -48t-54 -19q-24 0 -38.5 10t-14.5 28t11 31t22 25t11 26t-19 14q-48 0 -80.5 -51t-59.5 -161l-108 -453q-24 -103 -59 -170.5t-85.5 -101t-120.5 -33.5zM380 504l3 11h485l-4 -11h-484zM800 -14q-58 0 -81 42.5t-3 113.5l104 373h108l-111 -402q-13 -43 -6 -67.5
t34 -24.5q18 0 33.5 10.5t29 28.5t24.5 38l20 38h11l-22 -42q-17 -31 -37.5 -55.5t-45.5 -38.5t-58 -14zM1014 638q-26 0 -44 17.5t-18 43.5q0 27 18.5 45t44.5 18q27 0 44.5 -17.5t17.5 -43.5q0 -27 -18 -45t-45 -18z" />
    <glyph glyph-name="f_f_igrave.liga" unicode="ff&#xec;" horiz-adv-x="994" 
d="M-122 -239q-39 0 -60.5 14t-21.5 39q0 21 15 35t36 14q20 0 34.5 -10t26 -23t23.5 -23.5t28 -10.5q23 0 39 24t26 66l137 574q23 96 56.5 158.5t82.5 93t116 30.5q35 0 64 -9.5t50 -27.5t32 -45l-6 -10q-14 38 -48 57.5t-71 19.5q-60 0 -92.5 -45t-56.5 -144l-111 -463
q-22 -92 -65.5 -162.5t-103 -111t-130.5 -40.5zM234 -199q-35 0 -63.5 10t-50.5 30t-36 49l5 11q20 -43 54.5 -64.5t76.5 -21.5q40 0 66.5 19.5t45.5 62t35 109.5l109 458q23 95 57 156.5t86 91.5t129 30l6 -10q-31 0 -54 -10t-39.5 -30.5t-29 -52.5t-23.5 -78l-109 -455
q-24 -103 -59.5 -170.5t-85.5 -101t-120 -33.5zM64 504l3 11h344l-3 -11h-344zM800 -14q-58 0 -81 42.5t-3 113.5l104 373h108l-112 -402q-12 -43 -5 -67.5t34 -24.5q18 0 33.5 10.5t29 28.5t24.5 38l20 38h11l-23 -42q-16 -31 -36.5 -55.5t-45.5 -38.5t-58 -14zM338 504
l3 11h512l-3 -11h-512zM892 601q-37 41 -68 65.5t-54.5 42.5t-38.5 38q-14 21 -13.5 40.5t17.5 31.5q18 14 37 9.5t35 -26.5q14 -18 25 -45.5t25.5 -65t41.5 -86.5z" />
    <glyph glyph-name="f_f_j.liga" unicode="ffj" horiz-adv-x="972" 
d="M232 -199q-34 0 -62.5 10t-50.5 30t-37 49l6 11q19 -43 53.5 -64.5t77.5 -21.5q60 0 92 45t57 146l116 488q24 103 66.5 166.5t103.5 92.5t142 29q80 0 128 -28t48 -76q0 -31 -22 -51.5t-56 -20.5q-23 0 -36.5 10t-13.5 27q0 19 12 33t24 27.5t12 28.5q0 18 -21 28
t-56 10q-53 0 -93.5 -24.5t-70.5 -78.5t-51 -142l-100 -419q-25 -103 -60.5 -170.5t-86 -101t-121.5 -33.5zM-122 -239q-39 0 -60.5 14t-21.5 39q0 21 15 35t36 14q20 0 34.5 -10t26 -23t23.5 -23.5t28 -10.5q23 0 39 24t26 66l137 574q23 96 57 158.5t83.5 93t117.5 30.5
q34 0 62.5 -9t50 -26t33.5 -43l-6 -9q-16 35 -49 53.5t-69 18.5q-62 0 -95.5 -45t-57.5 -144l-111 -463q-22 -92 -65.5 -162.5t-103 -111t-130.5 -40.5zM64 504l3 11h344l-3 -11h-344zM545 -199q-35 0 -64.5 10t-52 31t-36.5 51l5 12q20 -45 55.5 -67.5t79.5 -22.5
q40 0 65.5 20t44 62t36.5 108l143 510h108l-114 -409q-28 -103 -64.5 -170.5t-86 -101t-119.5 -33.5zM383 504l3 11h483l-4 -11h-482z" />
    <glyph glyph-name="f_f_k.liga" unicode="ffk" horiz-adv-x="1291" 
d="M234 -199q-35 0 -63.5 10t-50.5 30t-36 49l5 11q20 -43 54.5 -64.5t76.5 -21.5q41 0 67.5 20t45 62t34.5 109l126 528q21 84 56 139t89 82t131 27q28 0 47 -4t39.5 -8.5t50.5 -4.5q33 0 62 8t54 22l-222 -795h-108l182 653q11 37 4 63.5t-33 40.5t-72 14q-39 0 -69 -18.5
t-51.5 -58.5t-36.5 -103l-117 -485q-24 -103 -59.5 -170.5t-85.5 -101t-120 -33.5zM-122 -239q-39 0 -60.5 14t-21.5 39q0 21 15 35t36 14q20 0 34.5 -10t26 -23t23.5 -23.5t28 -10.5q23 0 39 24t26 66l137 574q23 96 56.5 158.5t82.5 93t116 30.5q33 0 60 -8.5t47 -25
t31 -40.5l-6 -10q-15 34 -45.5 51.5t-65.5 17.5q-60 0 -92.5 -45t-56.5 -144l-111 -463q-22 -92 -65.5 -162.5t-103 -111t-130.5 -40.5zM64 504l3 11h344l-3 -11h-344zM388 504l3 11h343l-3 -11h-343zM1089 -14q-44 0 -69 24.5t-33 77.5l-20 119q-10 55 -24 74t-44 19h-34
l2 10h31q42 0 68.5 16t44 40.5t31.5 52.5t30.5 53t41.5 41t65 16q37 0 58 -15t21 -42q0 -21 -12.5 -34.5t-33.5 -13.5q-17 0 -29.5 8.5t-22.5 20t-21 20t-25 8.5q-19 0 -32 -16.5t-26 -41t-29 -50t-40 -42.5v3q39 -13 57 -40t27 -84l20 -119q7 -37 17.5 -53t29.5 -16
q22 0 42 18.5t42 59.5l20 36h11l-25 -47q-16 -29 -36 -52t-45.5 -37t-57.5 -14z" />
    <glyph glyph-name="f_f_l.liga" unicode="ffl" horiz-adv-x="1002" 
d="M234 -199q-35 0 -63.5 10t-50.5 30t-36 49l5 11q20 -43 54.5 -64.5t76.5 -21.5q60 0 91.5 45t55.5 146l126 528q21 84 56 139t89 82t131 27q28 0 47 -4t39.5 -8.5t50.5 -4.5q33 0 62 8t54 22l-191 -682q-12 -45 -4 -68.5t34 -23.5q43 0 86 78l20 37h11l-23 -42
q-16 -30 -36.5 -55t-45.5 -39t-58 -14q-58 0 -81 42.5t-3 113.5l143 509q11 39 4 65.5t-33 40.5t-72 14q-39 0 -69 -18.5t-51.5 -58.5t-36.5 -103l-117 -485q-24 -103 -59.5 -170.5t-85.5 -101t-120 -33.5zM-122 -239q-39 0 -60.5 14t-21.5 39q0 21 15 35t36 14
q20 0 34.5 -10t26 -23t23.5 -23.5t28 -10.5q23 0 39 24t26 66l137 574q23 96 56.5 158.5t82.5 93t116 30.5q33 0 60 -8.5t47 -25t31 -40.5l-6 -10q-15 34 -45.5 51.5t-65.5 17.5q-60 0 -92.5 -45t-56.5 -144l-111 -463q-22 -92 -65.5 -162.5t-103 -111t-130.5 -40.5zM64 504
l3 11h344l-3 -11h-344zM388 504l3 11h343l-3 -11h-343z" />
    <glyph glyph-name="f_f_odieresis.liga" unicode="ff&#xf6;" horiz-adv-x="1217" 
d="M234 -199q-35 0 -63.5 10t-50.5 30t-36 49l5 11q20 -43 54.5 -64.5t76.5 -21.5q40 0 66.5 19.5t45.5 62t35 109.5l123 514q21 87 66 145.5t112.5 87.5t156.5 29q82 0 130.5 -22t48.5 -60q0 -27 -21.5 -45t-54.5 -18q-24 0 -38.5 10.5t-14.5 27.5q0 16 10.5 27.5t21 22
t10.5 21.5q0 12 -19.5 18t-55.5 6q-63 0 -110.5 -25.5t-79.5 -79.5t-53 -138l-100 -421q-24 -103 -59 -170.5t-85.5 -101t-120.5 -33.5zM-122 -239q-39 0 -60.5 14t-21.5 39q0 21 15 35t36 14q20 0 34.5 -10t26 -23t23.5 -23.5t28 -10.5q23 0 39 24t26 66l137 574
q23 96 56.5 158.5t82.5 93t116 30.5q35 0 64 -9.5t50 -27.5t32 -45l-6 -10q-14 38 -48 57.5t-71 19.5q-60 0 -92.5 -45t-56.5 -144l-111 -463q-22 -92 -65.5 -162.5t-103 -111t-130.5 -40.5zM64 504l3 11h344l-3 -11h-344zM380 504l3 11h353l-2 -11h-354zM1173 638
q-26 0 -44 17.5t-18 43.5q0 27 18.5 45t44.5 18t43.5 -17.5t17.5 -43.5q0 -27 -18 -45t-44 -18zM871 -14q-86 0 -134 53.5t-48 147.5q0 70 24 131.5t66 109t96 74.5t116 27q85 0 134 -53.5t49 -148.5q0 -69 -24 -130.5t-66 -108.5t-97 -74.5t-116 -27.5zM872 -3
q29 0 57 20.5t52.5 57t43 83.5t29.5 101t11 108q0 74 -19 112.5t-55 38.5q-29 0 -57 -20.5t-52.5 -57t-43.5 -83.5t-29.5 -100.5t-10.5 -108.5q0 -74 19 -112.5t55 -38.5z" />
    <glyph glyph-name="f_f_thorn.liga" unicode="ff&#xfe;" horiz-adv-x="1254" 
d="M551 -231l3 11q34 3 52.5 12t28.5 26t18 43l221 792q11 37 4 63.5t-33 40.5t-72 14q-39 0 -69 -18.5t-51.5 -58.5t-36.5 -103l-117 -485q-24 -103 -59.5 -170.5t-85.5 -101t-120 -33.5q-35 0 -63.5 10t-50.5 30t-36 49l5 11q20 -43 54.5 -64.5t76.5 -21.5q41 0 67.5 20
t45 62t34.5 109l126 528q21 84 56 139t89 82t131 27q28 0 47 -4t39.5 -8.5t50.5 -4.5q33 0 62 8t54 22l-258 -925q-9 -30 -4.5 -49t28 -28t71.5 -13l-3 -11q-17 1 -43 1.5t-55.5 1.5t-58.5 1q-42 0 -82 -1.5t-66 -2.5zM-122 -239q-39 0 -60.5 14t-21.5 39q0 21 15 35t36 14
q20 0 34.5 -10t26 -23t23.5 -23.5t28 -10.5q23 0 39 24t26 66l137 574q23 96 56.5 158.5t82.5 93t116 30.5q33 0 60 -8.5t47 -25t31 -40.5l-6 -10q-15 34 -45.5 51.5t-65.5 17.5q-60 0 -92.5 -45t-56.5 -144l-111 -463q-22 -92 -65.5 -162.5t-103 -111t-130.5 -40.5zM64 504
l3 11h344l-3 -11h-344zM388 504l3 11h343l-3 -11h-343zM938 -14q-44 0 -78 20.5t-49 56.5l4 9q13 -26 34.5 -39.5t50.5 -13.5q40 0 76 25t64 69t44.5 100.5t16.5 117.5q0 77 -25.5 117.5t-73.5 40.5q-26 0 -49 -15t-41 -45l-1 9q30 45 66.5 68t79.5 23q71 0 113 -53.5
t42 -142.5q0 -67 -22.5 -129t-61.5 -111.5t-88 -78t-102 -28.5z" />
    <glyph glyph-name="f_f_t.liga" unicode="fft" horiz-adv-x="1087" 
d="M232 -199q-34 0 -62.5 10t-50.5 30t-37 49l6 11q19 -43 53.5 -64.5t77.5 -21.5q60 0 92 45t57 146l120 506q21 89 55 149t84 90.5t117 30.5q72 0 114.5 -33t53.5 -99l-8 -9q-10 63 -47 94t-90 31q-59 0 -94 -40.5t-57 -130.5l-116 -489q-24 -103 -60 -170.5t-86.5 -101
t-121.5 -33.5zM-122 -239q-39 0 -60.5 14t-21.5 39q0 21 15 35t36 14q20 0 34.5 -10t26 -23t23.5 -23.5t28 -10.5q23 0 39 24t26 66l137 574q23 96 57 158.5t83.5 93t117.5 30.5q34 0 62.5 -9t50 -26t33.5 -43l-6 -9q-16 35 -49 53.5t-69 18.5q-62 0 -95.5 -45t-57.5 -144
l-111 -463q-22 -92 -65.5 -162.5t-103 -111t-130.5 -40.5zM64 504l3 11h344l-3 -11h-344zM383 504l3 11h483l-4 -11h-482zM852 -14q-63 0 -88.5 43.5t-6.5 113.5l146 522q30 1 58 5t55 11l-159 -569q-12 -44 -2 -67.5t40 -23.5q26 0 50.5 20.5t46.5 61.5l19 33h11l-25 -46
q-16 -28 -36.5 -52t-47 -38t-61.5 -14zM753 504l3 11h362l-3 -11h-362z" />
    <glyph glyph-name="f_f_udieresis.liga" unicode="ff&#xfc;" horiz-adv-x="1291" 
d="M234 -199q-35 0 -63.5 10t-50.5 30t-36 49l5 11q20 -43 54.5 -64.5t76.5 -21.5q40 0 66.5 19.5t45.5 62t35 109.5l123 514q21 87 66 145.5t112.5 87.5t156.5 29q82 0 130.5 -22t48.5 -60q0 -27 -21.5 -45t-54.5 -18q-24 0 -38.5 10.5t-14.5 27.5q0 16 10.5 27.5t21 22
t10.5 21.5q0 12 -19.5 18t-55.5 6q-63 0 -110.5 -25.5t-79.5 -79.5t-53 -138l-100 -421q-24 -103 -59 -170.5t-85.5 -101t-120.5 -33.5zM-122 -239q-39 0 -60.5 14t-21.5 39q0 21 15 35t36 14q20 0 34.5 -10t26 -23t23.5 -23.5t28 -10.5q23 0 39 24t26 66l137 574
q23 96 56.5 158.5t82.5 93t116 30.5q35 0 64 -9.5t50 -27.5t32 -45l-6 -10q-14 38 -48 57.5t-71 19.5q-60 0 -92.5 -45t-56.5 -144l-111 -463q-22 -92 -65.5 -162.5t-103 -111t-130.5 -40.5zM64 504l3 11h344l-3 -11h-344zM380 504l3 11h353l-2 -11h-354zM1173 638
q-26 0 -44 17.5t-18 43.5q0 27 18.5 45t44.5 18t43.5 -17.5t17.5 -43.5q0 -27 -18 -45t-44 -18zM853 -14q-50 0 -81.5 26t-40.5 72t9 107l59 211q12 44 4 68t-33 24q-23 0 -44.5 -19.5t-43.5 -58.5l-20 -37h-11l23 42q17 31 37 55.5t46 38.5t58 14q39 0 62.5 -19.5
t29.5 -54.5t-8 -82l-55 -197q-22 -76 -6 -115.5t65 -39.5q36 0 66 23t55 70l2 -7q-33 -60 -76 -90.5t-97 -30.5zM1103 -14q-39 0 -62.5 19.5t-29 54.5t7.5 82l105 373h108l-113 -402q-12 -42 -4.5 -67t33.5 -25q22 0 44 19t44 59l20 37h11l-23 -42q-17 -31 -37 -55.5
t-45 -38.5t-59 -14z" />
    <glyph glyph-name="f_f_ydieresis.liga" unicode="ff&#xff;" horiz-adv-x="1263" 
d="M234 -199q-35 0 -63.5 10t-50.5 30t-36 49l5 11q20 -43 54.5 -64.5t76.5 -21.5q40 0 66.5 19.5t45.5 62t35 109.5l123 514q21 87 66 145.5t112.5 87.5t156.5 29q82 0 130.5 -22t48.5 -60q0 -27 -21.5 -45t-54.5 -18q-24 0 -38.5 10.5t-14.5 27.5q0 16 10.5 27.5t21 22
t10.5 21.5q0 12 -19.5 18t-55.5 6q-63 0 -110.5 -25.5t-79.5 -79.5t-53 -138l-100 -421q-24 -103 -59 -170.5t-85.5 -101t-120.5 -33.5zM-122 -239q-39 0 -60.5 14t-21.5 39q0 21 15 35t36 14q20 0 34.5 -10t26 -23t23.5 -23.5t28 -10.5q23 0 39 24t26 66l137 574
q23 96 56.5 158.5t82.5 93t116 30.5q35 0 64 -9.5t50 -27.5t32 -45l-6 -10q-14 38 -48 57.5t-71 19.5q-60 0 -92.5 -45t-56.5 -144l-111 -463q-22 -92 -65.5 -162.5t-103 -111t-130.5 -40.5zM64 504l3 11h344l-3 -11h-344zM380 504l3 11h353l-2 -11h-354zM1173 638
q-26 0 -44 17.5t-18 43.5q0 27 18.5 45t44.5 18t43.5 -17.5t17.5 -43.5q0 -27 -18 -45t-44 -18zM654 -239q-34 0 -54.5 14.5t-20.5 38.5q0 22 15.5 35t40.5 13q18 0 34 -5.5t31.5 -13t31.5 -13t33 -5.5q31 0 73.5 27.5t89.5 73t92 101t81.5 113t58 108.5t21.5 86
q0 28 -13 46.5t-30.5 33.5t-30.5 30t-13 36t15.5 35t39.5 14q33 0 51.5 -26t18.5 -74q0 -60 -27 -132.5t-73 -147.5t-105 -144.5t-122 -124.5t-124.5 -87t-113.5 -32zM889 -117q9 85 9 171t-7.5 164t-21 138.5t-31.5 95.5t-39 35q-15 0 -30 -15.5t-37 -56.5l-19 -36h-11
l25 47q29 54 57.5 78.5t64.5 24.5q51 0 84.5 -59t50 -178.5t13.5 -301.5q-15 -18 -31.5 -35.5t-35 -35t-41.5 -36.5z" />
    <glyph glyph-name="f_h.liga" unicode="fh" horiz-adv-x="990" 
d="M-122 -239q-39 0 -60.5 14t-21.5 39q0 21 15 35t36 14q20 0 34.5 -10t26.5 -23t23.5 -23t26.5 -10q21 0 37.5 20t28.5 69l154 648q21 84 56 139t89.5 82t130.5 27q28 0 47 -4t40 -8.5t50 -4.5q33 0 62 8t54 22l-222 -795h-108l183 653q10 37 3 63.5t-32.5 40.5t-71.5 14
q-40 0 -70 -18.5t-51.5 -58.5t-36.5 -103l-124 -516q-22 -95 -67 -165.5t-104.5 -109.5t-127.5 -39zM73 504l3 11h343l-3 -11h-343zM803 -14q-39 0 -62.5 19.5t-29 54.5t7.5 82l55 197q21 76 6 115.5t-66 39.5q-36 0 -66 -21.5t-55 -66.5l-1 7q33 58 76 87t96 29
q77 0 108.5 -56t5.5 -149l-59 -211q-12 -44 -4 -68t33 -24q22 0 44 19.5t43 58.5l21 37h11l-23 -42q-17 -31 -37.5 -55.5t-45.5 -38.5t-58 -14z" />
    <glyph glyph-name="f_idieresis.liga" unicode="f&#xef;" horiz-adv-x="680" 
d="M-122 -239q-39 0 -60.5 14t-21.5 39q0 21 14.5 35t36.5 14q20 0 34.5 -10t26.5 -23t23.5 -23t26.5 -10q21 0 37.5 20t28.5 69l153 642q21 85 54.5 141.5t82.5 84.5t113 28q48 0 78.5 -21.5t30.5 -56.5q0 -29 -21 -48t-55 -19q-24 0 -38 10t-14 28t11 31t21.5 25t10.5 26
t-18 14q-48 0 -81 -51t-59 -161l-116 -484q-22 -95 -67 -165.5t-104.5 -109.5t-127.5 -39zM68 504l3 11h483l-4 -11h-482zM486 -14q-58 0 -81 42.5t-3 113.5l104 373h108l-112 -402q-12 -43 -5 -67.5t34 -24.5q17 0 32.5 10.5t29.5 28.5t25 38l20 38h11l-23 -42
q-16 -31 -36.5 -55.5t-45.5 -38.5t-58 -14zM700 638q-26 0 -44 17.5t-18 43.5q0 27 18.5 45t44.5 18t43.5 -17.5t17.5 -43.5q0 -27 -18 -45t-44 -18z" />
    <glyph glyph-name="f_igrave.liga" unicode="f&#xec;" horiz-adv-x="680" 
d="M-122 -239q-39 0 -60.5 14t-21.5 39q0 21 14.5 35t36.5 14q20 0 34.5 -10t26.5 -23t23.5 -23t26.5 -10q21 0 37.5 20t28.5 69l138 578q23 95 57 156.5t86 91.5t129 30l6 -10q-32 0 -54.5 -10t-39 -30.5t-29 -52.5t-23.5 -78l-117 -486q-22 -95 -67 -165.5t-104.5 -109.5
t-127.5 -39zM486 -14q-58 0 -81 42.5t-3 113.5l104 373h108l-112 -402q-12 -43 -5 -67.5t34 -24.5q17 0 32.5 10.5t29.5 28.5t25 38l20 38h11l-23 -42q-16 -31 -36.5 -55.5t-45.5 -38.5t-58 -14zM68 504l3 11h483l-4 -11h-482zM578 601q-37 41 -68.5 65.5t-54.5 42.5t-38 38
q-15 21 -14 40.5t18 31.5q18 14 37 9.5t35 -26.5q14 -18 24.5 -45.5t25.5 -65t41 -86.5z" />
    <glyph glyph-name="f_j.liga" unicode="fj" horiz-adv-x="657" 
d="M-122 -239q-39 0 -60.5 14t-21.5 39q0 21 14.5 35t36.5 14q20 0 34.5 -10t26.5 -23t23.5 -23t26.5 -10q21 0 37.5 20t28.5 69l141 593q27 110 69.5 176.5t104 96.5t142.5 30q80 0 128 -28t48 -76q0 -31 -22 -51.5t-56 -20.5q-23 0 -36.5 10t-13.5 27q0 19 12 33t24 27.5
t12 28.5q0 18 -21 28t-56 10q-53 0 -94 -24.5t-70.5 -78.5t-50.5 -142l-108 -450q-22 -95 -67 -165.5t-104.5 -109.5t-127.5 -39zM230 -199q-34 0 -63 10t-51 30t-36 49l6 11q19 -43 53.5 -64.5t77.5 -21.5q40 0 65.5 20t44 62t36.5 108l143 510h108l-114 -409
q-28 -103 -64 -170.5t-86 -101t-120 -33.5zM68 504l3 11h483l-4 -11h-482z" />
    <glyph glyph-name="f_k.liga" unicode="fk" horiz-adv-x="976" 
d="M-122 -239q-39 0 -60.5 14t-21.5 39q0 21 15 35t36 14q20 0 34.5 -10t26.5 -23t23.5 -23t26.5 -10q21 0 37.5 20t28.5 69l154 648q21 84 56 139t89.5 82t130.5 27q28 0 47 -4t40 -8.5t50 -4.5q33 0 62 8t54 22l-222 -795h-108l183 653q10 37 3 63.5t-32.5 40.5t-71.5 14
q-40 0 -70 -18.5t-51.5 -58.5t-36.5 -103l-124 -516q-22 -95 -67 -165.5t-104.5 -109.5t-127.5 -39zM73 504l3 11h343l-3 -11h-343zM774 -14q-44 0 -68.5 24.5t-33.5 77.5l-20 119q-10 55 -24 74t-43 19h-35l2 10h31q42 0 68.5 16t44 40.5t31.5 52.5t30.5 53t41.5 41t65 16
q37 0 58 -15t21 -42q0 -21 -12.5 -34.5t-33.5 -13.5q-17 0 -29 8.5t-22.5 20t-21.5 20t-25 8.5q-19 0 -32 -16.5t-26 -41t-29 -50t-40 -42.5l1 3q38 -13 56 -40t27 -84l20 -119q7 -37 17.5 -53t29.5 -16q22 0 42.5 18.5t41.5 59.5l20 36h11l-25 -47q-16 -29 -36 -52
t-45.5 -37t-57.5 -14z" />
    <glyph glyph-name="f_odieresis.liga" unicode="f&#xf6;" horiz-adv-x="903" 
d="M-122 -239q-39 0 -60.5 14t-21.5 39q0 21 15 35t36 14q20 0 34 -10t26 -23t24.5 -23t27.5 -10q23 0 38.5 22t26.5 67l151 634q21 87 66 145.5t112.5 87.5t157.5 29q81 0 129.5 -22t48.5 -60q0 -27 -21.5 -45t-53.5 -18q-25 0 -39 10.5t-14 27.5q0 16 10.5 27.5t20.5 22
t10 21.5q0 12 -19 18t-55 6q-64 0 -111 -25.5t-79 -79.5t-53 -138l-108 -452q-22 -94 -67 -165t-104.5 -110t-127.5 -39zM68 504l3 11h351l-3 -11h-351zM858 638q-26 0 -44 17.5t-18 43.5q0 27 18.5 45t45.5 18q26 0 43.5 -17.5t17.5 -43.5q0 -27 -18 -45t-45 -18zM557 -14
q-87 0 -135 53.5t-48 147.5q0 70 24 131.5t66 109t96.5 74.5t115.5 27q86 0 134.5 -53.5t48.5 -148.5q0 -69 -24 -130.5t-66 -108.5t-96.5 -74.5t-115.5 -27.5zM558 -3q28 0 56.5 20.5t52.5 57t43 83.5t29.5 101t10.5 108q0 74 -18.5 112.5t-54.5 38.5q-29 0 -57.5 -21
t-53 -57t-43.5 -83t-29.5 -100.5t-10.5 -108.5q0 -74 19 -112.5t56 -38.5z" />
    <glyph glyph-name="f_thorn.liga" unicode="f&#xfe;" horiz-adv-x="939" 
d="M-122 -239q-39 0 -60.5 14t-21.5 39q0 21 15 35t36 14q20 0 34.5 -10t26.5 -23t23.5 -23t26.5 -10q21 0 37.5 20t28.5 69l154 648q21 84 56 139t89.5 82t130.5 27q28 0 47 -4t40 -8.5t50 -4.5q33 0 62 8t54 22l-258 -925q-9 -30 -4.5 -49t28 -28t71.5 -13l-2 -11
q-18 1 -44 1.5t-55.5 1.5t-58.5 1q-42 0 -82 -1.5t-66 -2.5l3 11q34 3 52.5 12t28.5 26t18 43l221 792q11 37 4 63.5t-32.5 40.5t-71.5 14q-40 0 -70 -18.5t-51.5 -58.5t-36.5 -103l-124 -516q-22 -95 -67 -165.5t-104.5 -109.5t-127.5 -39zM73 504l3 11h343l-3 -11h-343z
M623 -14q-44 0 -78 20.5t-48 56.5l3 9q13 -26 34.5 -39.5t50.5 -13.5q40 0 76 25t64 69t44.5 100.5t16.5 117.5q0 77 -25.5 117.5t-73.5 40.5q-26 0 -49 -15t-41 -45l-1 9q30 45 66.5 68t79.5 23q71 0 113 -53.5t42 -142.5q0 -67 -22.5 -129t-61.5 -111.5t-88 -78
t-102 -28.5z" />
    <glyph glyph-name="f_t.liga" unicode="ft" horiz-adv-x="772" 
d="M-122 -239q-39 0 -60.5 14t-21.5 39q0 21 15 35t36 14q20 0 34 -10t26.5 -23t24.5 -23t27 -10q21 0 37.5 21.5t27.5 67.5l149 626q22 89 55.5 149t83.5 90.5t118 30.5q72 0 114 -33t53 -99l-8 -9q-10 63 -46.5 94t-90.5 31q-38 0 -67 -18t-49 -55.5t-34 -97.5l-125 -520
q-22 -95 -67.5 -165.5t-104.5 -109.5t-127 -39zM67 504l3 11h402l-3 -11h-402zM537 -14q-62 0 -88.5 43.5t-6.5 113.5l146 522q30 1 58 5t55 11l-159 -569q-12 -44 -2 -67.5t40 -23.5q26 0 50.5 20.5t46.5 61.5l18 33h11l-25 -46q-15 -28 -35.5 -52t-47 -38t-61.5 -14z
M399 504l3 11h400l-2 -11h-401z" />
    <glyph glyph-name="f_udieresis.liga" unicode="f&#xfc;" horiz-adv-x="976" 
d="M-122 -239q-39 0 -60.5 14t-21.5 39q0 21 15 35t36 14q20 0 34 -10t26 -23t24.5 -23t27.5 -10q23 0 38.5 22t26.5 67l151 634q21 87 66 145.5t112.5 87.5t157.5 29q81 0 129.5 -22t48.5 -60q0 -27 -21.5 -45t-53.5 -18q-25 0 -39 10.5t-14 27.5q0 16 10.5 27.5t20.5 22
t10 21.5q0 12 -19 18t-55 6q-64 0 -111 -25.5t-79 -79.5t-53 -138l-108 -452q-22 -94 -67 -165t-104.5 -110t-127.5 -39zM68 504l3 11h351l-3 -11h-351zM858 638q-26 0 -44 17.5t-18 43.5q0 27 18.5 45t45.5 18q26 0 43.5 -17.5t17.5 -43.5q0 -27 -18 -45t-45 -18zM540 -14
q-51 0 -82.5 26t-40 72t8.5 107l59 211q13 44 5 68t-34 24q-22 0 -44 -19.5t-43 -58.5l-20 -37h-11l22 42q18 31 38 55.5t45.5 38.5t57.5 14q40 0 63 -19.5t29 -54.5t-7 -82l-56 -197q-21 -76 -5.5 -115.5t64.5 -39.5q37 0 66.5 23t55.5 70l1 -7q-32 -60 -75.5 -90.5
t-96.5 -30.5zM790 -14q-40 0 -63 19.5t-29 54.5t7 82l105 373h108l-112 -402q-12 -42 -4.5 -67t33.5 -25q22 0 44 19t43 59l20 37h11l-23 -42q-16 -31 -36.5 -55.5t-45.5 -38.5t-58 -14z" />
    <glyph glyph-name="f_ydieresis.liga" unicode="f&#xff;" horiz-adv-x="948" 
d="M-122 -239q-39 0 -60.5 14t-21.5 39q0 21 15 35t36 14q20 0 34 -10t26 -23t24.5 -23t27.5 -10q23 0 38.5 22t26.5 67l151 634q21 87 66 145.5t112.5 87.5t157.5 29q81 0 129.5 -22t48.5 -60q0 -27 -21.5 -45t-53.5 -18q-25 0 -39 10.5t-14 27.5q0 16 10.5 27.5t20.5 22
t10 21.5q0 12 -19 18t-55 6q-64 0 -111 -25.5t-79 -79.5t-53 -138l-108 -452q-22 -94 -67 -165t-104.5 -110t-127.5 -39zM68 504l3 11h351l-3 -11h-351zM858 638q-26 0 -44 17.5t-18 43.5q0 27 18.5 45t45.5 18q26 0 43.5 -17.5t17.5 -43.5q0 -27 -18 -45t-45 -18zM339 -239
q-34 0 -54.5 14.5t-20.5 38.5q0 22 16 35t40 13q18 0 34.5 -5.5t32 -13t31.5 -13t32 -5.5q32 0 74.5 27.5t89 73t92 101t81.5 113t58 108.5t22 86q0 28 -13 46.5t-30.5 33.5t-30.5 30t-13 36t15 35t40 14q33 0 51 -26t18 -74q0 -60 -26.5 -132.5t-73 -147.5t-105 -144.5
t-122 -124.5t-125 -87t-113.5 -32zM575 -117q9 85 8.5 171t-8 164t-20.5 138.5t-31 95.5t-39 35q-15 0 -30 -15.5t-37 -56.5l-19 -36h-11l25 47q28 54 57 78.5t64 24.5q52 0 85.5 -59t49.5 -178.5t13 -301.5q-15 -18 -31 -35.5t-34.5 -35t-41.5 -36.5z" />
    <glyph glyph-name="longs_h.liga" unicode="&#x17f;h" horiz-adv-x="990" 
d="M-122 -239q-39 0 -60.5 14t-21.5 39q0 21 15 35t36 14q20 0 34.5 -10t26.5 -23t23.5 -23t26.5 -10q21 0 37.5 20t28.5 69l154 648q21 84 56 139t89.5 82t130.5 27q28 0 47 -4t39.5 -8.5t50.5 -4.5q32 0 61.5 8t54.5 22l-222 -795h-108l182 653q10 37 3 63.5t-32.5 40.5
t-71.5 14q-39 0 -69 -18.5t-51.5 -58.5t-36.5 -103l-124 -516q-22 -95 -67 -165.5t-104.5 -109.5t-127.5 -39zM73 504l3 11h150l-3 -11h-150zM803 -14q-39 0 -63 19.5t-29.5 54.5t7.5 82l55 197q22 76 6.5 115.5t-66.5 39.5q-35 0 -65 -21.5t-56 -66.5l-1 7q33 58 76.5 87
t95.5 29q77 0 108.5 -56t5.5 -149l-59 -211q-12 -44 -4 -68t33 -24q23 0 44.5 19.5t43.5 58.5l20 37h11l-23 -42q-17 -31 -37 -55.5t-45 -38.5t-58 -14z" />
    <glyph glyph-name="longs_i.liga" unicode="&#x17f;i" horiz-adv-x="684" 
d="M-122 -239q-39 0 -60.5 14t-21.5 39q0 21 14.5 35t36.5 14q20 0 34.5 -10t26.5 -23t23.5 -23t26.5 -10q21 0 37.5 20t28.5 69l141 593q27 110 69.5 177t104 96.5t142.5 29.5q80 0 128 -28t48 -76q0 -31 -22.5 -51.5t-56.5 -20.5q-23 0 -37 10t-14 27q0 19 12.5 33
t24 27.5t11.5 28.5q0 18 -20.5 28t-55.5 10q-53 0 -93.5 -24.5t-70 -78.5t-50.5 -142l-108 -450q-22 -95 -67 -165.5t-104.5 -109.5t-127.5 -39zM68 504l3 11h156l-3 -11h-156zM490 -14q-40 0 -64 20.5t-29 56.5t10 82l83 254q14 43 6.5 69t-34.5 26q-22 0 -44 -19.5
t-44 -58.5l-20 -37h-11l23 42q31 57 64 82.5t77 25.5q40 0 63.5 -20t29 -56t-10.5 -83l-82 -254q-15 -43 -7 -69t35 -26q45 0 87 78l20 37h11l-22 -42q-31 -57 -64 -82.5t-77 -25.5z" />
    <glyph glyph-name="longs_k.liga" unicode="&#x17f;k" horiz-adv-x="975" 
d="M-122 -239q-39 0 -60.5 14t-21.5 39q0 21 15 35t36 14q20 0 34.5 -10t26.5 -23t23.5 -23t26.5 -10q21 0 37.5 20t28.5 69l154 648q21 84 56 139t89.5 82t130.5 27q28 0 47 -4t39.5 -8.5t50.5 -4.5q32 0 61.5 8t54.5 22l-223 -795h-108l183 653q10 37 3 63.5t-32.5 40.5
t-71.5 14q-39 0 -69 -18.5t-51.5 -58.5t-36.5 -103l-124 -516q-22 -95 -67 -165.5t-104.5 -109.5t-127.5 -39zM73 504l3 11h150l-3 -11h-150zM773 -14q-43 0 -68 24.5t-34 77.5l-19 119q-10 55 -24 74t-44 19h-34l2 10h31q42 0 68 16t43.5 40.5t31.5 52.5t31 53t42 41t64 16
q38 0 59 -15t21 -42q0 -21 -13 -34.5t-33 -13.5q-17 0 -29.5 8.5t-23 20t-21.5 20t-25 8.5q-19 0 -32 -16.5t-25.5 -41t-28.5 -50t-41 -42.5l1 3q38 -13 56.5 -40t27.5 -84l20 -119q6 -37 16.5 -53t30.5 -16q22 0 42 18.5t42 59.5l20 36h11l-26 -47q-16 -29 -35.5 -52
t-45 -37t-58.5 -14z" />
    <glyph glyph-name="longs_l.liga" unicode="&#x17f;l" horiz-adv-x="687" 
d="M-122 -239q-39 0 -60.5 14t-21.5 39q0 21 15 35t36 14q20 0 34.5 -10t26.5 -23t23.5 -23t26.5 -10q21 0 37.5 20t28.5 69l154 648q21 84 56 139t89.5 82t130.5 27q28 0 47 -4t40 -8.5t50 -4.5q33 0 62 8t54 22l-191 -682q-12 -45 -4 -68.5t34 -23.5q43 0 86 78l20 37h11
l-23 -42q-16 -30 -36.5 -55t-45.5 -39t-58 -14q-58 0 -81 42.5t-3 113.5l143 511q11 37 4 63.5t-32.5 40.5t-71.5 14q-40 0 -70 -18.5t-51.5 -58.5t-36.5 -103l-124 -516q-22 -95 -67 -165.5t-104.5 -109.5t-127.5 -39zM73 504l3 11h154l-3 -11h-154z" />
    <glyph glyph-name="longs_longs.liga" unicode="&#x17f;&#x17f;" horiz-adv-x="712" 
d="M234 -199q-35 0 -63.5 10t-50.5 30t-36 49l5 11q20 -43 54.5 -64.5t76.5 -21.5q40 0 66.5 19.5t45.5 62t35 109.5l126 528q30 122 93.5 185t169.5 63q64 0 100 -22.5t36 -62.5q0 -34 -23.5 -58t-55.5 -24q-18 0 -28.5 9t-10.5 24q0 17 9.5 32.5t18.5 31t9 30.5
q0 29 -44 29q-58 0 -95 -50t-60 -144l-113 -471q-24 -103 -59.5 -170.5t-85.5 -101t-120 -33.5zM-122 -239q-39 0 -60.5 14t-21.5 39q0 21 15 35t36 14q20 0 34.5 -10t26 -23t23.5 -23.5t28 -10.5q23 0 39 24t26 66l137 574q23 96 56.5 158.5t82.5 93t116 30.5q33 0 60 -8.5
t47 -25t31 -40.5l-6 -10q-15 34 -45.5 51.5t-65.5 17.5q-60 0 -92.5 -45t-56.5 -144l-111 -463q-22 -92 -65.5 -162.5t-103 -111t-130.5 -40.5zM64 504l3 11h157l-3 -11h-157zM377 504l3 11h162l-2 -11h-163z" />
    <glyph glyph-name="longs_longs_h.liga" unicode="&#x17f;&#x17f;h" horiz-adv-x="1305" 
d="M234 -199q-35 0 -63.5 10t-50.5 30t-36 49l5 11q20 -43 54.5 -64.5t76.5 -21.5q41 0 67.5 20t45 62t34.5 109l126 528q21 84 56 139t89 82t131 27q28 0 47 -4t39.5 -8.5t50.5 -4.5q33 0 62 8t54 22l-222 -795h-108l182 653q11 37 4 63.5t-33 40.5t-72 14q-39 0 -69 -18.5
t-51.5 -58.5t-36.5 -103l-117 -485q-24 -103 -59.5 -170.5t-85.5 -101t-120 -33.5zM-122 -239q-39 0 -60.5 14t-21.5 39q0 21 15 35t36 14q20 0 34.5 -10t26 -23t23.5 -23.5t28 -10.5q23 0 39 24t26 66l137 574q23 96 56.5 158.5t82.5 93t116 30.5q33 0 60 -8.5t47 -25
t31 -40.5l-6 -10q-15 34 -45.5 51.5t-65.5 17.5q-60 0 -92.5 -45t-56.5 -144l-111 -463q-22 -92 -65.5 -162.5t-103 -111t-130.5 -40.5zM64 504l3 11h157l-3 -11h-157zM377 504l3 11h162l-2 -11h-163zM1118 -14q-39 0 -62.5 19.5t-29.5 54.5t7 82l56 197q21 76 5.5 115.5
t-65.5 39.5q-36 0 -66 -21.5t-55 -66.5l-1 7q32 58 75.5 87t96.5 29q77 0 108.5 -56t5.5 -149l-59 -211q-12 -44 -4 -68t33 -24q22 0 44 19.5t43 58.5l20 37h11l-22 -42q-17 -31 -37.5 -55.5t-45.5 -38.5t-58 -14z" />
    <glyph glyph-name="longs_longs_i.liga" unicode="&#x17f;&#x17f;i" horiz-adv-x="999" 
d="M234 -199q-35 0 -63.5 10t-50.5 30t-36 49l5 11q20 -43 54.5 -64.5t76.5 -21.5q40 0 66.5 19.5t45.5 62t35 109.5l113 473q27 110 69.5 177t104 96.5t142.5 29.5q80 0 127.5 -28t47.5 -76q0 -31 -22 -51.5t-56 -20.5q-24 0 -37.5 10t-13.5 27q0 19 12 33t24 27.5t12 28.5
q0 18 -20.5 28t-55.5 10q-53 0 -93.5 -24.5t-70 -78.5t-50.5 -142l-101 -419q-24 -103 -59.5 -170.5t-85.5 -101t-120 -33.5zM-122 -239q-39 0 -60.5 14t-21.5 39q0 21 15 35t36 14q20 0 34.5 -10t26 -23t23.5 -23.5t28 -10.5q23 0 39 24t26 66l137 574q23 96 56.5 158.5
t82.5 93t116 30.5q35 0 64 -9.5t50 -27.5t32 -45l-6 -10q-14 38 -48 57.5t-71 19.5q-60 0 -92.5 -45t-56.5 -144l-111 -463q-22 -92 -65.5 -162.5t-103 -111t-130.5 -40.5zM64 504l3 11h157l-3 -11h-157zM377 504l3 11h162l-2 -11h-163zM805 -14q-40 0 -64 20.5t-29 56.5
t10 82l82 254q15 43 7.5 69t-34.5 26q-22 0 -44.5 -19.5t-43.5 -58.5l-20 -37h-11l23 42q31 57 64 82.5t76 25.5q40 0 64 -20t29.5 -56t-10.5 -83l-82 -254q-15 -43 -7.5 -69t34.5 -26q46 0 88 78l20 37h11l-23 -42q-31 -57 -63.5 -82.5t-76.5 -25.5z" />
    <glyph glyph-name="longs_longs_k.liga" unicode="&#x17f;&#x17f;k" horiz-adv-x="1291" 
d="M234 -199q-35 0 -63.5 10t-50.5 30t-36 49l5 11q20 -43 54.5 -64.5t76.5 -21.5q41 0 67.5 20t45 62t34.5 109l126 528q21 84 56 139t89 82t131 27q28 0 47 -4t39.5 -8.5t50.5 -4.5q33 0 62 8t54 22l-222 -795h-108l182 653q11 37 4 63.5t-33 40.5t-72 14q-39 0 -69 -18.5
t-51.5 -58.5t-36.5 -103l-117 -485q-24 -103 -59.5 -170.5t-85.5 -101t-120 -33.5zM-122 -239q-39 0 -60.5 14t-21.5 39q0 21 15 35t36 14q20 0 34.5 -10t26 -23t23.5 -23.5t28 -10.5q23 0 39 24t26 66l137 574q23 96 56.5 158.5t82.5 93t116 30.5q33 0 60 -8.5t47 -25
t31 -40.5l-6 -10q-15 34 -45.5 51.5t-65.5 17.5q-60 0 -92.5 -45t-56.5 -144l-111 -463q-22 -92 -65.5 -162.5t-103 -111t-130.5 -40.5zM64 504l3 11h157l-3 -11h-157zM377 504l3 11h162l-2 -11h-163zM1089 -14q-44 0 -69 24.5t-33 77.5l-20 119q-10 55 -24 74t-44 19h-34
l2 10h31q42 0 68.5 16t44 40.5t31.5 52.5t30.5 53t41.5 41t65 16q37 0 58 -15t21 -42q0 -21 -12.5 -34.5t-33.5 -13.5q-17 0 -29.5 8.5t-22.5 20t-21 20t-25 8.5q-19 0 -32 -16.5t-26 -41t-29 -50t-40 -42.5v3q39 -13 57 -40t27 -84l20 -119q7 -37 17.5 -53t29.5 -16
q22 0 42 18.5t42 59.5l20 36h11l-25 -47q-16 -29 -36 -52t-45.5 -37t-57.5 -14z" />
    <glyph glyph-name="longs_longs_l.liga" unicode="&#x17f;&#x17f;l" horiz-adv-x="1002" 
d="M234 -199q-35 0 -63.5 10t-50.5 30t-36 49l5 11q20 -43 54.5 -64.5t76.5 -21.5q60 0 91.5 45t55.5 146l126 528q21 84 56 139t89 82t131 27q28 0 47 -4t39.5 -8.5t50.5 -4.5q33 0 62 8t54 22l-191 -682q-12 -45 -4 -68.5t34 -23.5q43 0 86 78l20 37h11l-23 -42
q-16 -30 -36.5 -55t-45.5 -39t-58 -14q-58 0 -81 42.5t-3 113.5l143 509q11 39 4 65.5t-33 40.5t-72 14q-39 0 -69 -18.5t-51.5 -58.5t-36.5 -103l-117 -485q-24 -103 -59.5 -170.5t-85.5 -101t-120 -33.5zM-122 -239q-39 0 -60.5 14t-21.5 39q0 21 15 35t36 14
q20 0 34.5 -10t26 -23t23.5 -23.5t28 -10.5q23 0 39 24t26 66l137 574q23 96 56.5 158.5t82.5 93t116 30.5q33 0 60 -8.5t47 -25t31 -40.5l-6 -10q-15 34 -45.5 51.5t-65.5 17.5q-60 0 -92.5 -45t-56.5 -144l-111 -463q-22 -92 -65.5 -162.5t-103 -111t-130.5 -40.5zM64 504
l3 11h157l-3 -11h-157zM377 504l3 11h162l-2 -11h-163z" />
    <glyph glyph-name="longs_longs_t.liga" unicode="&#x17f;&#x17f;t" horiz-adv-x="1087" 
d="M232 -199q-34 0 -62.5 10t-50.5 30t-37 49l6 11q19 -43 53.5 -64.5t77.5 -21.5q60 0 92 45t57 146l120 506q21 89 55 149t84 90.5t117 30.5q72 0 114.5 -33t53.5 -99l-8 -9q-10 63 -47 94t-90 31q-59 0 -94 -40.5t-57 -130.5l-116 -489q-24 -103 -60 -170.5t-86.5 -101
t-121.5 -33.5zM-122 -239q-39 0 -60.5 14t-21.5 39q0 21 15 35t36 14q20 0 34.5 -10t26 -23t23.5 -23.5t28 -10.5q23 0 39 24t26 66l137 574q23 96 57 158.5t83.5 93t117.5 30.5q34 0 62.5 -9t50 -26t33.5 -43l-6 -9q-16 35 -49 53.5t-69 18.5q-62 0 -95.5 -45t-57.5 -144
l-111 -463q-22 -92 -65.5 -162.5t-103 -111t-130.5 -40.5zM64 504l3 11h157l-3 -11h-157zM377 504l3 11h162l-2 -11h-163zM852 -14q-62 0 -88 43.5t-7 113.5l146 522q30 1 58.5 5t54.5 11l-159 -569q-12 -44 -2 -67.5t40 -23.5q27 0 51 20.5t46 61.5l19 33h11l-25 -46
q-16 -28 -36.5 -52t-47 -38t-61.5 -14zM753 504l3 11h362l-3 -11h-362z" />
    <glyph glyph-name="longs_t.liga" unicode="&#x17f;t" horiz-adv-x="772" 
d="M-122 -239q-39 0 -60.5 14t-21.5 39q0 21 15 35t36 14q20 0 34 -10t26.5 -23t24.5 -23t27 -10q21 0 37 21.5t28 67.5l149 626q22 89 55.5 149t83.5 90.5t118 30.5q72 0 114 -33t53 -99l-8 -9q-10 63 -46.5 94t-90.5 31q-58 0 -93.5 -40.5t-56.5 -130.5l-125 -520
q-22 -95 -67.5 -165.5t-104.5 -109.5t-127 -39zM67 504l3 11h156l-3 -11h-156zM537 -14q-62 0 -88.5 43.5t-6.5 113.5l146 522q30 1 58 5t55 11l-159 -569q-12 -44 -2 -67.5t40 -23.5q26 0 50.5 20.5t46.5 61.5l18 33h11l-25 -46q-15 -28 -35.5 -52t-47 -38t-61.5 -14z
M438 504l3 11h361l-2 -11h-362z" />
    <glyph glyph-name=".notdef" horiz-adv-x="562" 
d="M60 772h442v-772h-442v772zM96 30h370v712h-370v-712z" />
    <glyph glyph-name=".null" 
 />
    <glyph glyph-name="nonmarkingreturn" horiz-adv-x="413" 
 />
    <glyph glyph-name="CR" unicode="&#xd;" 
 />
    <glyph glyph-name="space" unicode=" " horiz-adv-x="280" 
 />
    <glyph glyph-name="exclam" unicode="!" horiz-adv-x="303" 
d="M142 203l-11 2q19 78 32.5 152t23 139t17 117.5t14.5 87.5q6 39 23.5 60t47.5 21q25 0 39.5 -15t14.5 -43q0 -27 -20 -77t-52 -118t-66.5 -150t-62.5 -176zM90 -14q-31 0 -50.5 17.5t-19.5 45.5q0 31 23 52t56 21q31 0 50.5 -17.5t19.5 -45.5q0 -31 -23 -52t-56 -21z" />
    <glyph glyph-name="quotedbl" unicode="&#x22;" horiz-adv-x="461" 
d="M182 451q3 64 -2 106t-4 73q1 49 20.5 74.5t55.5 25.5q27 0 43 -15t16 -40q0 -32 -20.5 -66t-49 -72.5t-51.5 -85.5h-8zM381 451q3 64 -2 106t-4 73q1 49 20.5 74.5t55.5 25.5q27 0 43 -15t16 -40q0 -32 -20.5 -66t-49 -72.5t-51.5 -85.5h-8z" />
    <glyph glyph-name="numbersign" unicode="#" horiz-adv-x="702" 
d="M355 0l183 655l96 27l-184 -655zM13 35l3 11l598 166l-3 -11zM94 -72l184 655l96 27l-184 -656zM109 376l3 11l597 166l-3 -11z" />
    <glyph glyph-name="dollar" unicode="$" horiz-adv-x="623" 
d="M296 -14q-73 0 -131.5 22.5t-93 61.5t-34.5 87q0 38 21.5 63t54.5 25q23 0 37.5 -13.5t14.5 -36.5q0 -21 -11.5 -40.5t-23.5 -38t-12 -37.5q0 -23 22 -41t59 -28.5t83 -10.5q81 0 125.5 34t44.5 97q0 41 -20.5 74t-52.5 61.5t-68 56t-68 57.5t-52.5 66.5t-20.5 83.5
q0 57 31.5 100.5t87 68t127.5 24.5q67 0 121 -20.5t86 -55.5t32 -78q0 -33 -18.5 -54t-47.5 -21q-22 0 -36 12.5t-14 32.5q0 17 8 33.5t15.5 33t7.5 32.5q0 32 -40.5 52.5t-101.5 20.5q-72 0 -114 -34t-42 -94q0 -40 21 -73t53.5 -62t69.5 -57.5t69.5 -59t53.5 -67t21 -81.5
q0 -57 -34.5 -101t-94 -69.5t-135.5 -25.5zM205 -182l299 1072h11l-299 -1072h-11z" />
    <glyph glyph-name="percent" unicode="%" horiz-adv-x="921" 
d="M214 -14l-5 6l502 538l6 -6zM249 278q-60 0 -96 29.5t-36 78.5q0 40 23.5 72.5t63.5 51.5t88 19q61 0 97.5 -29t36.5 -79q0 -39 -23.5 -71.5t-63.5 -52t-90 -19.5zM251 286q26 0 47.5 21t34 55.5t12.5 74.5q0 84 -52 84q-25 0 -47.5 -21t-35.5 -55t-13 -75q0 -40 14 -62
t40 -22zM627 -14q-61 0 -96.5 29.5t-35.5 78.5q0 40 23 72.5t63 51.5t89 19q61 0 97.5 -29.5t36.5 -78.5q0 -39 -24 -72t-64 -52t-89 -19zM628 -6q27 0 48 20.5t34 55t13 75.5q0 84 -52 84q-26 0 -48 -21t-35 -55t-13 -75q0 -40 14 -62t39 -22zM532 467q-40 0 -82.5 10.5
t-75.5 28.5l-3 4q31 -15 76.5 -25t84.5 -10q50 0 97 14.5t82 40.5l-1 -5q-37 -28 -83 -43t-95 -15z" />
    <glyph glyph-name="ampersand" unicode="&#x26;" horiz-adv-x="1232" 
d="M391 -14q-104 0 -180.5 33t-118.5 94t-42 144q0 77 34.5 138.5t93.5 97.5t132 36q59 0 93.5 -23.5t34.5 -63.5q0 -36 -34 -75.5t-110 -88.5l-4 2q72 32 132.5 68.5t106.5 72.5t71 68t25 55q0 25 -14.5 44t-29.5 37.5t-15 40.5q0 20 15 33t39 13q31 0 50.5 -22t19.5 -58
q0 -44 -33.5 -94.5t-94.5 -102.5t-143.5 -101t-180.5 -89l-5 10q62 31 91.5 78.5t29.5 107.5q0 37 -13.5 57t-40.5 20q-36 0 -68 -33.5t-51.5 -87t-19.5 -115.5q0 -115 74.5 -181t205.5 -66q137 0 237 77t161 231l10 -2q-67 -179 -181 -267t-277 -88zM592 160
q-29 0 -46.5 21.5t-17.5 57.5t16.5 67.5t45.5 55.5t67.5 37.5t82.5 13.5q47 0 86 -15t72.5 -33.5t62 -33.5t52.5 -15q26 0 38 15.5t18 38.5t12 45.5t18 38t38 15.5q23 0 36.5 -14t13.5 -41q0 -48 -46.5 -78.5t-124.5 -30.5q-38 0 -69.5 6t-64.5 14.5t-75 14.5t-100 6
q-67 0 -102.5 -7.5t-35.5 -21.5q0 -11 11.5 -22.5t27.5 -24.5t27.5 -28.5t11.5 -34.5q0 -20 -15.5 -33.5t-39.5 -13.5z" />
    <glyph glyph-name="quotesingle" unicode="'" horiz-adv-x="262" 
d="M182 451q3 64 -2 106t-4 73q1 49 20.5 74.5t55.5 25.5q27 0 43 -15t16 -40q0 -32 -20.5 -66t-49 -72.5t-51.5 -85.5h-8z" />
    <glyph glyph-name="parenleft" unicode="(" horiz-adv-x="483" 
d="M586 782l4 -9q-114 -57 -192.5 -140t-119 -187.5t-40.5 -228.5q0 -119 36 -222t102 -179l-7 -8q-119 89 -177.5 194.5t-58.5 229.5q0 125 53.5 231.5t155 188.5t244.5 130z" />
    <glyph glyph-name="parenright" unicode=")" horiz-adv-x="484" 
d="M-81 -192l-4 9q114 58 192.5 140.5t119 187.5t40.5 228q0 119 -36 222.5t-102 178.5l7 8q119 -89 177.5 -194.5t58.5 -229.5q0 -125 -53.5 -231.5t-154.5 -188t-245 -130.5z" />
    <glyph glyph-name="asterisk" unicode="*" horiz-adv-x="499" 
d="M480 623q8 -14 5 -30t-23 -29q-16 -9 -40 -14.5t-54.5 -13t-69.5 -21.5l-3 6q31 24 52.5 47t38.5 41t33 28q20 12 36 6.5t25 -20.5zM481 412q-9 -14 -24.5 -19.5t-36.5 6.5q-16 10 -32.5 27.5t-38.5 40.5t-53 49l3 5q37 -15 67.5 -22t54.5 -12.5t41 -14.5
q20 -12 23.5 -28.5t-4.5 -31.5zM297 307q-17 0 -29 10.5t-13 34.5q0 19 7 42t16.5 53.5t15.5 70.5h7q6 -38 15 -68.5t16 -54t7 -42.5q1 -24 -11.5 -35t-30.5 -11zM114 412q-9 16 -5.5 31.5t23.5 27.5q17 10 40.5 15.5t54.5 12.5t69 21l2 -5q-30 -25 -51.5 -48t-38.5 -41
t-33 -28q-20 -12 -36 -6.5t-25 20.5zM115 623q9 15 24 20.5t35 -6.5q17 -9 33.5 -27t38 -40.5t53.5 -49.5l-3 -5q-36 15 -67 22t-55 12.5t-41 14.5q-21 12 -23.5 28t5.5 31zM298 729q17 0 29 -10.5t12 -34.5q0 -19 -7 -42t-16 -53t-16 -71h-6q-5 39 -14.5 69t-17 54t-7.5 43
q0 23 12.5 34t30.5 11z" />
    <glyph glyph-name="plus" unicode="+" horiz-adv-x="644" 
d="M273 105l68 244h-244l3 12h244l69 245h13l-68 -245h243l-3 -12h-244l-68 -244h-13z" />
    <glyph glyph-name="comma" unicode="," horiz-adv-x="301" 
d="M-8 -137l-3 8q63 21 92.5 42t29.5 47q0 20 -13 33t-29.5 24.5t-29.5 25.5t-13 36t17 36.5t43 14.5q36 0 60 -28t24 -72q0 -55 -45.5 -98t-132.5 -69z" />
    <glyph glyph-name="hyphen" unicode="-" horiz-adv-x="551" 
d="M76 260l11 39h400l-11 -39h-400z" />
    <glyph glyph-name="period" unicode="." horiz-adv-x="300" 
d="M89 -14q-31 0 -50.5 17.5t-19.5 45.5q0 31 22.5 52t56.5 21q31 0 50.5 -17.5t19.5 -45.5q0 -31 -23 -52t-56 -21z" />
    <glyph glyph-name="slash" unicode="/" horiz-adv-x="471" 
d="M-37 -14l586 736h14l-586 -736h-14z" />
    <glyph glyph-name="zero" unicode="0" horiz-adv-x="680" 
d="M294 -14q-67 0 -117 28t-77 78.5t-27 117.5q0 65 25 123t68.5 102t100.5 69t121 25q67 0 116 -27t76 -77t27 -117q0 -66 -24.5 -124t-67.5 -102.5t-100 -70t-121 -25.5zM294 -3q40 0 77 28t65 76.5t44.5 110t16.5 128.5q0 87 -28 132.5t-82 45.5q-42 0 -79 -27t-65 -74
t-44 -107.5t-16 -127.5q0 -88 29 -136.5t82 -48.5z" />
    <glyph glyph-name="one" unicode="1" horiz-adv-x="391" 
d="M88 0l124 445q-30 -15 -68.5 -30.5t-92.5 -30.5l3 12q73 19 123.5 41.5t87.5 46t68 44.5h11l-148 -528h-108z" />
    <glyph glyph-name="two" unicode="2" horiz-adv-x="623" 
d="M499 -5q-5 2 -27.5 3.5t-55.5 1.5h-390l3 11q59 33 117.5 67t110.5 69.5t92 74t63 81.5t23 91q0 55 -30.5 87t-83.5 32q-45 0 -81.5 -21.5t-58.5 -56.5t-22 -78q0 -40 22 -62t62 -22q23 0 42.5 9t39.5 29l3 -10q-30 -35 -66 -53t-76 -18q-50 0 -79.5 25.5t-29.5 69.5
q0 54 39 100.5t103.5 75t139.5 28.5q85 0 136 -36.5t51 -97.5q0 -32 -15.5 -62.5t-45 -59.5t-72.5 -58t-99.5 -59t-125.5 -62v-2h241q30 0 48.5 4.5t29.5 16t20 32.5h10q-11 -41 -18 -68t-11.5 -46t-8.5 -36z" />
    <glyph glyph-name="three" unicode="3" horiz-adv-x="591" 
d="M180 -148q-90 0 -145 34t-55 90q0 39 27.5 67t64.5 28q22 0 34.5 -10.5t12.5 -28.5q0 -19 -11.5 -33.5t-26 -27.5t-26 -26t-11.5 -28q0 -22 28.5 -36t73.5 -14q57 0 100 21t67.5 58.5t24.5 86.5q0 42 -17 73t-49 48l-34 -17l-4 7q89 40 132.5 100t43.5 137q0 62 -28 97
t-77 35q-40 0 -73 -21.5t-53 -56.5t-20 -76q0 -42 22 -64t62 -22q23 0 42.5 9.5t39.5 28.5l3 -10q-30 -35 -66 -53t-76 -18q-51 0 -80 25.5t-29 70.5q0 40 21 76.5t58 65t84 45t99 16.5q77 0 126 -36.5t49 -100.5q0 -47 -30 -92.5t-82.5 -82t-120.5 -58.5q75 -11 121 -48.5
t46 -90.5q0 -46 -35.5 -84.5t-96.5 -61t-136 -22.5z" />
    <glyph glyph-name="four" unicode="4" horiz-adv-x="567" 
d="M-43 51l2 11q28 22 58 47t61.5 52t62.5 56q31 30 47.5 55t22.5 49.5t6 51.5q0 24 -2.5 39.5t-6 28.5t-3.5 28q0 28 15.5 44t41.5 16q28 0 45 -18.5t17 -47.5q0 -26 -15 -56.5t-45 -68.5t-77 -87q-25 -27 -56.5 -56t-71 -62t-88.5 -73l-9 2h506l-3 -11h-508zM183 -141
l109 391q38 3 67.5 11.5t50.5 22.5l-119 -425h-108z" />
    <glyph glyph-name="five" unicode="5" horiz-adv-x="538" 
d="M151 -148q-55 0 -97.5 15t-66.5 41t-24 61q0 38 27 65.5t65 27.5q22 0 34 -10.5t12 -27.5q0 -19 -11 -33.5t-26 -27.5t-26 -25.5t-11 -26.5q0 -18 28 -31t68 -13q60 0 105.5 28t71.5 77.5t26 113.5q0 71 -33.5 109t-94.5 38q-32 0 -61 -10.5t-62 -32.5h-11l144 325h193
q30 0 48 4.5t29 16t20 32.5h11q-11 -40 -18.5 -67.5t-12 -46.5t-7.5 -36q-5 2 -27.5 3.5t-56.5 1.5h-209l-98 -221q37 26 81.5 41t86.5 15q86 0 137.5 -45.5t51.5 -126.5q0 -66 -37.5 -119t-102 -84t-146.5 -31z" />
    <glyph glyph-name="six" unicode="6" horiz-adv-x="636" 
d="M284 -14q-96 0 -147.5 61.5t-51.5 175.5q0 98 33.5 187.5t92 160t133.5 111t157 40.5q71 0 108.5 -30.5t37.5 -89.5q0 -48 -25 -113h-11q12 31 17 58t5 47q0 51 -29.5 79t-83.5 28q-64 0 -122.5 -43t-105 -116.5t-73.5 -166.5t-27 -194q0 -87 26 -135t73 -48
q32 0 61.5 23t53 62t37 87.5t13.5 99.5q0 64 -26.5 97t-78.5 33q-41 0 -81 -22l-3 7q59 36 129 36q80 0 124.5 -43t44.5 -120q0 -56 -22 -105t-61 -86.5t-89.5 -59t-108.5 -21.5z" />
    <glyph glyph-name="seven" unicode="7" horiz-adv-x="590" 
d="M165 -148q-24 0 -36.5 14t-12.5 41q0 66 43.5 146t127 173t204.5 195v2h-278q-36 0 -60 -7t-39.5 -24.5t-27.5 -47.5h-12q19 65 29 105.5t16 70.5q10 -3 43.5 -4t67.5 -1h361l-2 -11q-73 -69 -127 -127t-93.5 -115t-69.5 -123t-53 -152q-10 -40 -17.5 -70.5t-21 -47.5
t-42.5 -17z" />
    <glyph glyph-name="eight" unicode="8" horiz-adv-x="587" 
d="M256 -14q-67 0 -118 21t-80 58t-29 86q0 58 42 108t125 93l5 -5q-42 -42 -63 -90.5t-21 -102.5q0 -73 38.5 -115t105.5 -42q63 0 102 43t39 112q0 45 -17.5 79.5t-45.5 63t-59.5 55t-60 54.5t-46 61t-17.5 75q0 52 29 93t78.5 65t111.5 24q53 0 93.5 -18t63 -50t22.5 -74
q0 -45 -31 -86t-93 -77l-5 5q26 34 39 73.5t13 81.5q0 62 -28.5 98t-78.5 36q-51 0 -83.5 -37t-32.5 -96q0 -40 18 -72t47 -59.5t61.5 -54t61.5 -56t47 -65.5t18 -83q0 -60 -31.5 -105.5t-88 -71t-131.5 -25.5z" />
    <glyph glyph-name="nine" unicode="9" horiz-adv-x="632" 
d="M150 -148q-71 0 -108 30.5t-37 89.5q0 23 9 55h12q-4 -14 -6 -26t-2 -21q0 -51 29.5 -79t83.5 -28q61 0 117 38t100 103.5t69.5 148.5t25.5 172q0 87 -26 135t-73 48q-31 0 -60.5 -23t-53 -62t-37 -87.5t-13.5 -99.5q0 -64 26.5 -97t78.5 -33q41 0 81 22l2 -7
q-58 -36 -128 -36q-80 0 -124.5 43t-44.5 120q0 55 22 104.5t60.5 87t89 59t108.5 21.5q96 0 148 -61.5t52 -175.5q0 -86 -32.5 -165.5t-89 -141.5t-128.5 -98t-151 -36z" />
    <glyph glyph-name="colon" unicode=":" horiz-adv-x="301" 
d="M203 393q-31 0 -50.5 17.5t-19.5 45.5q0 31 22.5 52t56.5 21q31 0 50.5 -17.5t19.5 -45.5q0 -31 -23 -52t-56 -21zM89 -14q-31 0 -50.5 17.5t-19.5 45.5q0 31 22.5 52t56.5 21q31 0 50.5 -17.5t19.5 -45.5q0 -31 -23 -52t-56 -21z" />
    <glyph glyph-name="semicolon" unicode=";" horiz-adv-x="313" 
d="M203 393q-31 0 -50.5 17.5t-19.5 45.5q0 31 22.5 52t56.5 21q31 0 50.5 -17.5t19.5 -45.5q0 -31 -23 -52t-56 -21zM-8 -137l-3 8q63 21 92.5 42t29.5 47q0 20 -13 33t-29.5 24.5t-29.5 25.5t-13 36t17 36.5t43 14.5q36 0 60 -28t24 -72q0 -55 -45.5 -98t-132.5 -69z" />
    <glyph glyph-name="less" unicode="&#x3c;" horiz-adv-x="610" 
d="M492 129l-435 226l556 224l6 -13l-529 -213l409 -212z" />
    <glyph glyph-name="equal" unicode="=" horiz-adv-x="645" 
d="M121 431l3 13h501l-3 -13h-501zM74 266l3 13h501l-3 -13h-501z" />
    <glyph glyph-name="greater" unicode="&#x3e;" horiz-adv-x="610" 
d="M51 131l-6 13l529 213l-410 212l8 12l435 -226z" />
    <glyph glyph-name="question" unicode="?" horiz-adv-x="563" 
d="M255 203q-18 16 -29.5 38.5t-11.5 48.5q0 39 20 70t50.5 57.5t65.5 51.5t65.5 51.5t50 56.5t19.5 68q0 54 -37.5 88t-98.5 34q-39 0 -64 -14t-25 -36q0 -16 11 -26.5t25.5 -20t25.5 -20t11 -28.5t-14.5 -29.5t-38.5 -11.5q-35 0 -57.5 22.5t-22.5 57.5t23 62.5t64 43
t92 15.5q59 0 103.5 -19t69.5 -52.5t25 -78.5q0 -47 -23 -85t-60 -70t-78.5 -59.5t-78 -54.5t-60 -54.5t-23.5 -60.5q0 -11 3 -21t9 -21zM212 -14q-30 0 -50 17.5t-20 45.5q0 31 23 52t56 21q32 0 51 -17.5t19 -45.5q0 -31 -22.5 -52t-56.5 -21z" />
    <glyph glyph-name="at" unicode="@" horiz-adv-x="1022" 
d="M413 -161q-165 0 -252 77t-87 223q0 108 44 204t121 169t178.5 114.5t215.5 41.5q102 0 174 -32.5t111.5 -93t39.5 -145.5q0 -73 -26.5 -140t-71.5 -119t-102.5 -82t-119.5 -30q-35 0 -56.5 12.5t-28 39.5t5.5 70l71 255q38 11 73.5 32.5t57.5 47.5l7 -8
q-8 -8 -14.5 -18.5t-12.5 -24t-12 -33.5l-84 -300q-8 -30 -1.5 -42t30.5 -12q46 0 94 28t88.5 77t65.5 112.5t25 134.5q0 82 -37.5 140.5t-108 90t-168.5 31.5q-112 0 -211.5 -41t-175 -113t-118.5 -165.5t-43 -199.5q0 -142 84.5 -217t244.5 -75q66 0 122.5 13t100.5 37
l3 -8q-43 -24 -101 -37.5t-126 -13.5zM423 26q-64 0 -100.5 43t-36.5 119q0 57 21.5 109t57 93t81.5 64.5t96 23.5q49 0 88 -21.5t66 -61.5l-71 -45q-3 60 -22.5 88.5t-51.5 28.5q-31 0 -59.5 -23t-51.5 -62t-36.5 -88.5t-13.5 -102.5q-1 -60 19.5 -90.5t61.5 -30.5
q27 0 48.5 12.5t37.5 35.5v-9q-24 -41 -58.5 -62t-75.5 -21z" />
    <glyph glyph-name="A" unicode="A" horiz-adv-x="744" 
d="M-77 0l2 11q31 5 56 18.5t50.5 40t55.5 69.5l414 582h10l101 -637q5 -26 13.5 -41.5t26 -22.5t45.5 -9l-3 -11q-26 1 -64.5 2t-81.5 1q-54 0 -96.5 -1t-66.5 -2l3 11q48 2 72.5 10t32 25.5t1.5 49.5l-77 495l14 15l-295 -417q-40 -57 -50 -95.5t11.5 -58.5t75.5 -24
l-2 -11q-31 2 -67.5 2.5t-72.5 0.5q-26 0 -52.5 -0.5t-55.5 -2.5zM183 263l7 11h326l1 -11h-334z" />
    <glyph glyph-name="B" unicode="B" horiz-adv-x="731" 
d="M-23 0l3 11q46 4 69 11t34 24.5t20 50.5l143 514q10 34 8.5 51.5t-20.5 24.5t-62 10l3 11q14 0 29.5 -0.5t34 -0.5h39.5h45h49t37 0.5t29 0.5h23q115 0 174.5 -37.5t59.5 -108.5q0 -82 -77 -133t-216 -61v-1q122 -5 186.5 -48t64.5 -118q0 -62 -40.5 -107t-116.5 -69.5
t-182 -24.5q-16 0 -35 0.5t-41 1t-48 1t-57 0.5q-44 0 -83.5 -1t-72.5 -2zM291 12q75 0 129 24t82.5 68.5t28.5 106.5q0 74 -44 112.5t-129 38.5h-80l3 11h82q64 0 112 24.5t74.5 68t26.5 100.5q0 63 -32.5 96.5t-94.5 33.5h-64l-165 -599q-10 -35 -7.5 -53.5t21 -25
t57.5 -6.5z" />
    <glyph glyph-name="C" unicode="C" horiz-adv-x="780" 
d="M376 -14q-89 0 -153.5 36t-99.5 103.5t-35 160.5q0 91 32 170t89 139t131.5 93.5t161.5 33.5q50 0 86.5 -9t62 -22t44 -22t33.5 -9t27.5 11t25.5 37h12q-17 -49 -33 -107t-33 -128h-11q9 72 -12.5 125t-67.5 82t-110 29q-66 0 -123 -33.5t-100 -93t-67 -138t-24 -169.5
q0 -87 23.5 -147.5t69.5 -92t111 -31.5q83 0 149 57t115 184h12q-18 -64 -29.5 -109.5t-18.5 -77.5t-12 -58h-11q-1 23 -7.5 33t-20.5 10q-18 0 -45 -14t-68 -28.5t-104 -14.5z" />
    <glyph glyph-name="D" unicode="D" horiz-adv-x="827" 
d="M-23 0l3 11q46 4 69 11t34 24t20 51l143 514q10 34 8.5 51.5t-20.5 24.5t-62 10l3 11q20 0 42 -0.5t47 -1t52 -0.5q26 0 51.5 0.5t47.5 1t36 0.5q163 0 252.5 -77t89.5 -216q0 -92 -36.5 -168t-104.5 -131.5t-161 -85.5t-205 -30q-20 0 -44.5 1t-52.5 1.5t-58 0.5
q-40 0 -79 -0.5t-75 -2.5zM291 11q84 0 153.5 30t120 85t78 130t27.5 165q0 135 -61 205.5t-180 70.5h-42l-168 -602q-14 -50 1 -67t71 -17z" />
    <glyph glyph-name="E" unicode="E" horiz-adv-x="711" 
d="M-23 0l3 11q45 3 67.5 10t33.5 24.5t21 51.5l144 514q10 35 8 52.5t-21 24.5t-61 9l3 11q31 -1 80.5 -1h117.5h88h88t88.5 0.5t89.5 0.5q-15 -51 -25.5 -102.5t-17.5 -104.5h-11q0 73 -12.5 115.5t-41 61t-77.5 18.5h-156l-169 -603q-14 -50 -2 -64.5t67 -14.5h31
q77 0 133.5 21.5t103 71.5t92.5 135h11q-27 -69 -46.5 -127t-33.5 -115q-42 1 -78.5 1.5t-71 1t-69 0.5h-71.5q-102 0 -178.5 -0.5t-127.5 -2.5zM255 351l3 11h211l-2 -11h-212zM478 214q6 75 -19.5 106t-92.5 31l3 11q46 0 77.5 12.5t56.5 42t49 81.5h11q-5 -16 -12 -38
t-14.5 -48.5t-15.5 -56.5q-5 -17 -9 -33.5t-7.5 -34t-7.5 -35.5t-8 -38h-11z" />
    <glyph glyph-name="F" unicode="F" horiz-adv-x="686" 
d="M-23 0l3 11q45 4 68 11t34 24t20 51l144 514q10 35 8 52.5t-21 24.5t-61 9l3 11q31 -1 80.5 -1h117.5h88h88t88.5 0.5t89.5 0.5q-15 -51 -25.5 -102.5t-17.5 -104.5h-11q0 73 -12.5 115.5t-41 61t-77.5 18.5h-156l-168 -599q-9 -33 -5.5 -50t29.5 -24t84 -12l-3 -11
q-27 1 -75 2t-113 1q-53 0 -92.5 -1t-65.5 -2zM256 343l3 11h218l-3 -11h-218zM477 177q3 61 -6 97t-33.5 52.5t-67.5 16.5l2 11q47 0 78.5 12.5t56 42t48.5 81.5h12q-5 -16 -12 -37.5t-14.5 -48t-16.5 -56.5q-5 -21 -11 -47.5t-12 -57.5t-13 -66h-11z" />
    <glyph glyph-name="G" unicode="G" horiz-adv-x="802" 
d="M378 -14q-89 0 -154.5 36.5t-100 103.5t-34.5 160q0 91 32 170t89 138.5t132.5 93.5t163.5 34q53 0 89.5 -10t62 -24t44 -24t36.5 -10q16 0 27.5 12.5t24.5 41.5h12q-17 -52 -33.5 -111t-32.5 -124h-11q6 112 -44 173.5t-148 61.5q-68 0 -126 -33t-102 -93t-68.5 -140
t-24.5 -173q0 -85 22.5 -145.5t65 -92.5t102.5 -32q64 0 99.5 30t50.5 85l25 93q10 35 7 54t-25 27.5t-72 11.5l3 11q24 -1 64 -2t91 -1q48 0 81 1t57 2l-3 -11q-28 -5 -43 -11.5t-23.5 -23t-17.5 -51.5l-60 -214h-11q1 26 -4.5 36t-20.5 10q-14 0 -32.5 -9t-43.5 -21
t-60.5 -21t-85.5 -9z" />
    <glyph glyph-name="H" unicode="H" horiz-adv-x="874" 
d="M443 0l3 11q44 4 66.5 11t33 24.5t19.5 50.5l144 514q10 35 8 52t-20 24t-59 10l3 11q24 -1 62 -2t86 -1q50 0 91 1t71 2l-3 -11q-45 -4 -68 -11t-34 -23.5t-21 -51.5l-143 -514q-9 -34 -7.5 -51.5t21 -24t60.5 -10.5l-3 -11q-25 2 -64.5 2.5t-88.5 0.5q-50 0 -89.5 -0.5
t-67.5 -2.5zM-23 0l3 11q46 4 69 11t34 24.5t20 50.5l143 514q10 34 8.5 51.5t-20.5 24.5t-62 10l3 11q25 -1 64 -2t88 -1t89 1t69 2l-2 -11q-45 -4 -67.5 -11t-32.5 -24t-20 -51l-143 -514q-10 -34 -8.5 -51.5t20 -24t59.5 -10.5l-3 -11q-25 2 -63.5 2.5t-86.5 0.5
q-51 0 -91.5 -0.5t-69.5 -2.5zM252 351l3 11h414l-4 -11h-413z" />
    <glyph glyph-name="I" unicode="I" horiz-adv-x="412" 
d="M-23 0l3 11q46 4 69 11t34 24.5t20 50.5l143 514q10 34 8.5 51.5t-20.5 24.5t-62 10l3 11q31 -1 69.5 -2t82.5 -1t85.5 1t76.5 2l-3 -11q-45 -4 -68 -11t-34 -23.5t-21 -51.5l-143 -514q-10 -34 -8 -51.5t21 -24t61 -10.5l-3 -11q-31 2 -70 2.5t-83 0.5q-46 0 -86.5 -0.5
t-74.5 -2.5z" />
    <glyph glyph-name="J" unicode="J" horiz-adv-x="746" 
d="M180 -239q-73 0 -117 24.5t-44 63.5q0 25 15.5 40t40.5 15q24 0 38.5 -13.5t23.5 -32.5t17 -38t21 -32.5t35 -13.5q29 0 48 19t36 61.5t36 111.5l81 295q20 72 51.5 128.5t82.5 105.5t128 97v2q-98 4 -171.5 8t-126 6t-87.5 2q-45 0 -73.5 -6t-46.5 -21t-32 -41l-12 -24
h-11l35 69q26 51 50.5 80t52 42t63.5 13q32 0 62.5 -11t59 -27.5t57.5 -33.5t60 -28t63 -11q27 0 46 4.5t36.5 16.5t39.5 31q23 42 45 56.5t35 -0.5q10 -11 4.5 -22.5t-25 -22.5t-54.5 -22q-34 -27 -63.5 -61.5t-55 -77t-46.5 -95t-39 -117.5l-79 -287
q-36 -128 -105.5 -190.5t-174.5 -62.5zM290 346l3 11h369l-3 -11h-369z" />
    <glyph glyph-name="K" unicode="K" horiz-adv-x="814" 
d="M596 -14q-46 0 -74 25.5t-36 75.5l-20 119q-9 55 -25 88t-43 48t-73 15h-49l3 9h55q67 0 110 26t71.5 66.5t50.5 86t45.5 86t56 66t82.5 25.5q40 0 64.5 -17t24.5 -46q0 -25 -18 -41.5t-46 -16.5q-25 0 -44 12.5t-35.5 24.5t-35.5 12t-35 -21t-32 -54t-36 -69.5t-47 -69
t-64 -51.5l1 5q44 -10 69.5 -31t39.5 -57.5t23 -93.5l19 -111q6 -35 17.5 -50.5t32.5 -15.5q23 0 42 16.5t39 52.5l33 62h11l-39 -72q-29 -56 -61.5 -80t-76.5 -24zM-23 0l3 11q45 4 68 10.5t34.5 24t20.5 51.5l143 514q10 34 8.5 51.5t-20.5 24.5t-62 10l3 11q25 -1 64 -2
t88 -1q50 0 91 1t71 2l-3 -11q-45 -4 -68 -11t-34 -23.5t-21 -51.5l-143 -514q-10 -34 -8 -51.5t21 -24t61 -10.5l-3 -11q-25 2 -64.5 2.5t-88.5 0.5q-51 0 -91.5 -0.5t-69.5 -2.5z" />
    <glyph glyph-name="L" unicode="L" horiz-adv-x="680" 
d="M-23 0l3 11q46 4 68.5 11t33 24.5t19.5 50.5l144 514q10 33 9 50.5t-19.5 25t-62.5 10.5l3 11q46 -3 154 -3q50 0 90.5 1t66.5 2l-3 -11q-41 -3 -64 -9.5t-35 -23.5t-22 -53l-145 -518q-9 -31 -8.5 -48.5t17.5 -24t56 -6.5h31q78 0 134 20.5t102 70t93 137.5h11
q-30 -75 -49 -133t-31 -109q-50 2 -111.5 2.5t-146.5 0.5q-112 0 -197 -0.5t-141 -2.5z" />
    <glyph glyph-name="M" unicode="M" horiz-adv-x="1002" 
d="M-23 0l3 11q42 3 65.5 12.5t38 32t25.5 62.5l136 487q10 37 8 55.5t-21 26t-60 10.5l3 11q18 -1 47 -2t65 -1q29 0 54 1t41 2l91 -584l-9 -2l387 585q22 -1 42 -1.5t42 -0.5q42 0 80.5 1t62.5 2l-3 -11q-45 -3 -68 -10t-34.5 -25.5t-22.5 -57.5l-140 -501
q-9 -36 -7.5 -55t21 -26.5t59.5 -10.5l-2 -11q-26 2 -65.5 2.5t-86.5 0.5q-53 0 -94.5 -0.5t-64.5 -2.5l3 11q45 4 67.5 11.5t33.5 26.5t20 54l164 587h-5l-463 -699h-10l-104 666h-5l-151 -540q-11 -40 -7 -62t25.5 -31.5t63.5 -12.5l-3 -11q-20 1 -50 2t-62 1
q-29 0 -58.5 -1t-51.5 -2z" />
    <glyph glyph-name="N" unicode="N" horiz-adv-x="818" 
d="M583 -13l-308 669h-5l-152 -546q-10 -34 -7 -55t26.5 -31t76.5 -13l-3 -11q-21 1 -54.5 2t-69.5 1q-32 0 -61.5 -1t-48.5 -2l3 11q44 3 67.5 13.5t36.5 31.5t23 55l139 500q10 34 8.5 51.5t-20 25t-61.5 9.5l2 11q20 -1 51.5 -2t66.5 -1q51 0 86 3l250 -545h5l118 424
q11 39 9.5 62t-25 34t-78.5 14l2 11q21 -1 57 -2t70 -1q28 0 57.5 1t50.5 2l-3 -11q-42 -3 -66 -13.5t-37.5 -33t-23.5 -60.5l-169 -603h-13z" />
    <glyph glyph-name="O" unicode="O" horiz-adv-x="825" 
d="M379 -14q-88 0 -153.5 38t-101 106.5t-35.5 159.5q0 88 32.5 166t89.5 138t131.5 94t158.5 34q88 0 152.5 -37.5t100.5 -106t36 -160.5q0 -88 -32.5 -166t-89.5 -138t-131 -94t-158 -34zM375 -3q59 0 111.5 37t93.5 101t64 146.5t23 172.5q0 82 -19 139.5t-55 87.5
t-89 30q-58 0 -111 -37.5t-94 -102t-64.5 -147t-23.5 -172.5q0 -122 42.5 -188.5t121.5 -66.5z" />
    <glyph glyph-name="P" unicode="P" horiz-adv-x="712" 
d="M-23 0l3 11q46 4 68.5 11t34 24.5t20.5 50.5l143 514q10 35 8 52.5t-21 24.5t-61 9l3 11q17 0 37.5 -0.5t47.5 -0.5h62q36 0 65 0.5t50.5 0.5h32.5q119 0 184.5 -49.5t65.5 -136.5q0 -72 -44 -129t-120.5 -90t-172.5 -33q-36 0 -68.5 5t-57.5 14l3 11q19 -8 46 -12t54 -4
q72 0 125.5 30.5t83 85.5t29.5 128q0 81 -36.5 124.5t-106.5 43.5h-68l-168 -599q-9 -33 -6 -50t29 -24t84 -12l-3 -11q-26 1 -74 2t-113 1q-55 0 -94 -1t-65 -2z" />
    <glyph glyph-name="Q" unicode="Q" horiz-adv-x="963" 
d="M545 -239q-59 0 -106 20.5t-87 54t-74.5 70t-66.5 69.5t-65.5 54t-70.5 21q-29 0 -46.5 -14t-17.5 -36q0 -37 43 -57t119 -20q92 0 178 28t159 78t127.5 117t85 147.5t30.5 167.5q0 117 -49.5 183.5t-136.5 66.5q-59 0 -110 -25t-90 -69t-61 -102t-22 -123q0 -87 39 -133
t109 -46q39 0 61 16t22 45q0 15 -5 29.5t-10 30.5t-5 34q0 24 15.5 39t39.5 15q26 0 42 -19t16 -51q0 -43 -32 -79t-84 -58t-115 -22t-111 24.5t-74.5 69t-26.5 104.5q0 67 32.5 127t90 106t132 72t158.5 26q91 0 157 -30.5t103 -85.5t37 -129q0 -80 -40.5 -160.5
t-110.5 -153t-160.5 -129t-190.5 -89t-200 -32.5q-85 0 -131.5 24t-46.5 68q0 42 38.5 69t99.5 27q56 0 98 -20t77 -51t69 -66t72 -66.5t86.5 -51.5t112.5 -20q48 0 76 10t28 28q0 10 -10 21t-23 23.5t-23 27t-10 32.5q0 21 16 35t40 14q29 0 48 -20.5t19 -52.5
q0 -34 -22.5 -66.5t-60.5 -58.5t-85 -42t-96 -16z" />
    <glyph glyph-name="R" unicode="R" horiz-adv-x="772" 
d="M-23 0l3 11q45 4 68 11t34.5 24t20.5 51l144 514q10 35 8 52t-20.5 24t-61.5 10l3 11q28 -1 64 -1h77q44 0 79 0.5t59 0.5h37q104 0 163.5 -41t59.5 -112q0 -62 -42.5 -110t-118 -75.5t-173.5 -27.5h-103l3 11h81q73 0 125 24.5t80.5 70.5t28.5 108q0 68 -35.5 104
t-104.5 36h-69l-167 -599q-10 -34 -8 -51.5t21 -24t61 -10.5l-3 -11q-31 2 -70 2.5t-83 0.5q-46 0 -86.5 -0.5t-74.5 -2.5zM597 -14q-46 0 -74 25.5t-36 73.5l-21 125q-9 53 -21.5 81.5t-36.5 39.5t-69 11l4 6q82 -1 131 -17t75 -55t37 -108l12 -65q6 -38 18 -55t33 -17
q23 0 42.5 16.5t38.5 52.5l33 62h11l-39 -72q-16 -30 -35.5 -53.5t-44 -37t-58.5 -13.5z" />
    <glyph glyph-name="S" unicode="S" horiz-adv-x="659" 
d="M310 -14q-61 0 -104.5 14.5t-73 30t-48.5 15.5q-14 0 -26.5 -10.5t-28.5 -35.5h-12q19 48 34.5 103t32.5 136h11q-8 -112 46.5 -176.5t157.5 -64.5q73 0 115 35t42 95q0 43 -20.5 76t-52.5 61.5t-68.5 56t-68.5 57t-52.5 66t-20.5 82.5q0 57 30 101t83 69t120 25
q56 0 91.5 -14.5t58.5 -29.5t41 -15q13 0 24.5 11t25.5 34h12q-19 -41 -33.5 -92t-24.5 -111h-12q6 63 -14 109t-60.5 71t-98.5 25q-65 0 -104 -34t-39 -92q0 -40 21.5 -73.5t54.5 -62.5t70 -57.5t70.5 -59t54.5 -67t21 -82.5q0 -56 -33 -100.5t-91 -70t-131 -25.5z" />
    <glyph glyph-name="T" unicode="T" horiz-adv-x="735" 
d="M111 0l3 11q56 4 85 11t43 24.5t24 52.5l161 576l108 -28l-153 -548q-9 -33 -5 -51.5t30.5 -26t81.5 -10.5l-3 -11q-33 1 -82.5 2t-106.5 1q-53 0 -102 -1t-84 -2zM146 430q-29 0 -48 23t-19 63q0 59 31 105.5t84.5 73.5t120.5 27q53 0 104 -15.5t97 -35t84.5 -34.5
t66.5 -15t41 15t18 37.5t10.5 44.5t17 37.5t38.5 15.5q24 0 37.5 -14t13.5 -40q0 -49 -47.5 -78t-128.5 -29q-43 0 -88 8t-92.5 18.5t-99 18.5t-107.5 8q-76 0 -117.5 -16.5t-41.5 -46.5q0 -16 11.5 -30.5t27.5 -28.5t28 -29.5t12 -34.5q0 -21 -15 -34.5t-39 -13.5z" />
    <glyph glyph-name="U" unicode="U" horiz-adv-x="782" 
d="M362 -14q-94 0 -151 42.5t-73 120t13 185.5l77 277q10 35 8 52t-21 24t-61 10l3 11q27 -1 66 -2t86 -1q45 0 85 1t73 2l-3 -11q-43 -3 -65.5 -10t-33 -24t-20.5 -52l-75 -269q-45 -163 -11 -246.5t143 -83.5q87 0 147.5 57.5t92.5 170.5l102 367q10 36 7 54t-23 26
t-64 10l3 11q24 -1 51 -2t59 -1t58.5 1t45.5 2l-3 -11q-43 -3 -66 -10.5t-35 -25.5t-22 -54l-103 -371q-35 -126 -106.5 -188t-183.5 -62z" />
    <glyph glyph-name="V" unicode="V" horiz-adv-x="744" 
d="M287 -13l-101 637q-4 26 -13 41.5t-26 22.5t-46 9l3 11q26 -1 65 -2t81 -1q55 0 97 1t66 2l-3 -11q-47 -2 -71.5 -10t-32 -25.5t-2.5 -49.5l77 -495l-14 -15l295 417q41 57 50.5 95.5t-12 59t-75.5 23.5l3 11q31 -1 67 -2t72 -1q27 0 53 1t56 2l-3 -11q-30 -4 -55.5 -18
t-50.5 -40.5t-56 -69.5l-413 -582h-11z" />
    <glyph glyph-name="W" unicode="W" horiz-adv-x="1050" 
d="M642 -13l-66 633q-5 42 -23 58.5t-59 18.5l3 11q25 -1 63.5 -2t79.5 -1q54 0 96 1t65 2l-2 -11q-47 -2 -71 -10t-31.5 -25.5t-4.5 -49.5l49 -475l-9 -5l241 387q37 58 46 96.5t-12 58.5t-76 23l3 11q32 -1 68 -2t72 -1q26 0 52.5 1t55.5 2l-3 -11q-31 -5 -58 -19
t-51.5 -40t-51.5 -69l-365 -582h-11zM254 -13l-68 633q-5 42 -23.5 58.5t-61.5 18.5l3 11q26 -1 64.5 -2t80.5 -1q53 0 94.5 1t64.5 2l-3 -11q-45 -2 -68.5 -10t-30.5 -25.5t-4 -49.5l51 -480l-11 -6l269 427l2 -16l-349 -550h-10z" />
    <glyph glyph-name="X" unicode="X" horiz-adv-x="766" 
d="M556 -14q-54 0 -86.5 32.5t-53.5 106.5l-126 462q-12 47 -30.5 68.5t-44.5 21.5q-22 0 -42 -16t-40 -53l-33 -62h-11l38 72q30 56 63 80t80 24q35 0 61 -14t45 -44.5t32 -80.5l126 -462q13 -47 31.5 -68.5t43.5 -21.5q23 0 42.5 16t39.5 53l34 62h11l-39 -72
q-30 -57 -62.5 -80.5t-78.5 -23.5zM66 -14q-40 0 -64.5 17.5t-24.5 45.5q0 25 18 41.5t45 16.5q25 0 43.5 -13t35.5 -25.5t37 -12.5q29 0 64.5 35t76 104t83.5 168l3 -15q-53 -123 -105.5 -203t-105 -119.5t-106.5 -39.5zM443 352l-3 17q54 119 106.5 197.5t105 117
t105.5 38.5q39 0 63.5 -17.5t24.5 -45.5q0 -25 -18 -41t-45 -16q-24 0 -43 13.5t-36 27t-37 13.5q-28 0 -64.5 -37.5t-77 -105.5t-81.5 -161z" />
    <glyph glyph-name="Y" unicode="Y" horiz-adv-x="672" 
d="M134 0l3 11q46 4 68.5 12t33.5 25.5t20 49.5l23 85q25 90 30 177t-6.5 158.5t-38.5 114t-66 42.5q-20 0 -38 -15t-38 -52l-34 -62h-11l39 72q17 31 36 54t44.5 36.5t60.5 13.5q104 0 144.5 -121.5t10.5 -349.5l-8 -7q36 120 73 209.5t75 149t76.5 89.5t77.5 30
q25 0 40.5 -12.5t15.5 -34.5q0 -27 -19 -40t-49 -22t-66 -23t-70.5 -43.5t-62.5 -83.5q-14 -28 -29 -65.5t-28.5 -75t-22.5 -69.5l-43 -155q-9 -33 -6 -51.5t23.5 -26t63.5 -9.5l-3 -11q-25 1 -64.5 2t-92.5 1q-56 0 -97.5 -1t-64.5 -2z" />
    <glyph glyph-name="Z" unicode="Z" horiz-adv-x="697" 
d="M2 -14l-7 8l624 606l1 -6q-91 5 -159 8.5t-116 5.5t-81 2q-45 0 -73.5 -6t-46.5 -21t-31 -41l-13 -24h-11l36 69q26 51 50 80t50.5 42t60.5 13q32 0 61 -11.5t57 -28.5t55 -33.5t54 -28t56 -11.5q14 0 25.5 1t23.5 7t29 18t41.5 33t60.5 54l7 -8l-624 -606l-1 6
q87 -4 154 -8t117 -6t84 -2q46 0 74.5 6t46.5 21t31 41l12 24h11l-35 -69q-25 -50 -49.5 -79.5t-51 -42.5t-60.5 -13q-33 0 -62 11.5t-56.5 28.5t-54.5 34t-54.5 28.5t-56.5 11.5q-14 0 -25.5 -2t-24 -7.5t-29.5 -18t-41 -33.5t-59 -53z" />
    <glyph glyph-name="bracketleft" unicode="[" horiz-adv-x="345" 
d="M445 772l-3 -11h-89l-260 -932h89l-3 -11h-200l266 954h200z" />
    <glyph glyph-name="backslash" unicode="\" horiz-adv-x="527" 
d="M407 -14l-275 736h13l274 -736h-12z" />
    <glyph glyph-name="bracketright" unicode="]" horiz-adv-x="345" 
d="M-79 -181l3 11h89l261 932h-90l3 11h200l-266 -954h-200z" />
    <glyph glyph-name="asciicircum" unicode="^" horiz-adv-x="592" 
d="M87 312l-4 9l277 216h10l161 -216l-6 -7l-209 112z" />
    <glyph glyph-name="underscore" unicode="_" horiz-adv-x="774" 
d="M-34 -132l4 14h523l-4 -14h-523z" />
    <glyph glyph-name="grave" unicode="`" horiz-adv-x="293" 
d="M354 601q-37 41 -68 65.5t-54.5 42.5t-38.5 38q-15 21 -14 40.5t18 31.5q18 14 37 9.5t35 -26.5q14 -18 24.5 -45.5t25.5 -65t41 -86.5z" />
    <glyph glyph-name="a" unicode="a" horiz-adv-x="620" 
d="M196 -14q-71 0 -113 53t-42 142q0 67 24.5 129.5t66 112t94.5 78t111 28.5q53 0 95 -21.5t70 -61.5l-72 -48q-3 60 -26 90t-58 30q-37 0 -72 -28t-62.5 -75t-43.5 -107t-16 -124q0 -76 25.5 -116.5t72.5 -40.5q28 0 51.5 15.5t44.5 48.5l2 -7q-30 -49 -68 -73.5
t-84 -24.5zM433 -14q-58 0 -81 42.5t-3 113.5l86 310q42 13 80 34.5t61 47.5l7 -9q-10 -10 -17 -21t-13 -24t-11 -31l-93 -336q-12 -43 -4 -67.5t34 -24.5q17 0 32.5 10.5t29 28t24.5 39.5l21 37h11l-24 -44q-16 -30 -36.5 -54t-45.5 -38t-58 -14z" />
    <glyph glyph-name="b" unicode="b" horiz-adv-x="590" 
d="M242 -14q-67 0 -108 31t-52 88t11 135l114 407q11 37 7.5 58t-22.5 29.5t-58 8.5l3 11q69 1 123 11t96 30l-168 -603q-28 -101 -14 -147.5t62 -46.5q39 0 75 27t64 73.5t44 106t16 124.5q0 80 -24 123.5t-69 43.5q-31 0 -56.5 -21t-44.5 -59v9q27 51 66 77.5t86 26.5
q70 0 111.5 -54t41.5 -145q0 -71 -24 -133t-65.5 -109.5t-96.5 -74.5t-118 -27z" />
    <glyph glyph-name="c" unicode="c" horiz-adv-x="515" 
d="M217 -14q-82 0 -128.5 52.5t-46.5 144.5q0 69 24.5 131.5t67.5 110.5t99 76t116 28q61 0 96.5 -26t35.5 -71q0 -27 -13.5 -50.5t-35 -38t-46.5 -14.5q-21 0 -33.5 10.5t-12.5 28.5q0 19 12 34t27 28t26.5 26t11.5 30q0 29 -43 29t-82.5 -27t-71 -74t-49.5 -106.5
t-18 -122.5q0 -79 29.5 -120.5t84.5 -41.5q46 0 84 29t68 89h10q-35 -76 -89 -115.5t-123 -39.5z" />
    <glyph glyph-name="d" unicode="d" horiz-adv-x="620" 
d="M433 -14q-38 0 -62 19.5t-29.5 54.5t7.5 82l141 505q11 37 8.5 57.5t-21.5 29.5t-58 9l3 11q69 1 122 11t96 30l-191 -682q-12 -42 -4.5 -67t33.5 -25q22 0 44 19.5t43 58.5l21 37h11l-23 -42q-17 -31 -37.5 -55.5t-45.5 -38.5t-58 -14zM196 -14q-70 0 -112.5 53
t-42.5 141q0 68 24.5 130.5t66 112t94.5 78t111 28.5q53 0 95 -21.5t70 -61.5l-72 -48q-3 60 -26 90t-58 30q-37 0 -72 -28t-62.5 -75t-43.5 -107t-16 -124q0 -76 25.5 -116.5t72.5 -40.5q28 0 51.5 15.5t44.5 48.5l2 -7q-30 -49 -68 -73.5t-84 -24.5z" />
    <glyph glyph-name="e" unicode="e" horiz-adv-x="514" 
d="M216 -14q-83 0 -129 51t-46 145q0 69 25.5 131.5t69 111t100 76.5t119.5 28q56 0 86 -23t30 -66q0 -49 -40.5 -94.5t-113.5 -82t-171 -57.5v9q74 21 126 55t79 78.5t27 96.5q0 36 -12 54t-35 18q-31 0 -62.5 -30t-57.5 -79.5t-42 -107.5t-16 -116q0 -79 29 -120t84 -41
q47 0 85.5 28.5t68.5 89.5h11q-35 -76 -90 -115.5t-125 -39.5z" />
    <glyph glyph-name="f" unicode="f" horiz-adv-x="398" 
d="M-122 -239q-39 0 -60.5 14t-21.5 39q0 21 15 35t36 14q20 0 34.5 -10t26.5 -23t23.5 -23t26.5 -10q21 0 37.5 20t28.5 69l154 647q31 126 96 187.5t167 61.5q65 0 100.5 -22.5t35.5 -62.5q0 -34 -23 -58t-55 -24q-18 0 -28.5 9t-10.5 24q0 17 9.5 32.5t18 31t8.5 30.5
q0 29 -43 29q-57 0 -94.5 -48.5t-61.5 -145.5l-120 -502q-22 -95 -67.5 -165.5t-104.5 -109.5t-127 -39zM67 504l3 11h345l-3 -11h-345z" />
    <glyph glyph-name="g" unicode="g" horiz-adv-x="613" 
d="M181 -239q-65 0 -114.5 14.5t-77 40t-27.5 59.5q0 43 44 84t127 72l6 -4q-36 -21 -57.5 -57t-21.5 -75q0 -54 43 -86.5t114 -32.5q50 0 89 19t61.5 52.5t22.5 76.5q0 42 -25.5 62.5t-77.5 20.5h-74q-54 0 -86 20t-32 57q0 31 25 62.5t76 64.5l5 -3q-28 -22 -39 -36.5
t-11 -28.5q0 -19 17 -28.5t52 -9.5h104q71 0 111 -34.5t40 -94.5q0 -62 -38 -110.5t-104.5 -76.5t-151.5 -28zM252 196q-72 0 -113.5 38.5t-41.5 105.5q0 54 26.5 96.5t73 67.5t104.5 25q71 0 112.5 -39t41.5 -107q0 -53 -26.5 -95.5t-72.5 -67t-104 -24.5zM246 207
q23 0 43.5 18t36.5 48.5t25.5 69.5t9.5 81q0 48 -13.5 71t-41.5 23q-24 0 -45 -16.5t-36.5 -45.5t-24.5 -67t-9 -81q0 -50 14 -75.5t41 -25.5zM555 383q-18 0 -28 9.5t-10 26.5q0 15 7.5 27.5t15 24t7.5 21.5t-9.5 15t-27.5 5q-23 0 -47 -10t-46 -30l-3 6q25 25 53.5 38
t60.5 13q41 0 65 -19.5t24 -52.5q0 -31 -18 -52.5t-44 -21.5z" />
    <glyph glyph-name="h" unicode="h" horiz-adv-x="639" 
d="M26 0l181 647q10 37 7 57.5t-22 29.5t-58 9l3 11q68 1 122 11t97 30l-222 -795h-108zM452 -14q-39 0 -62.5 19.5t-29.5 54.5t7 82l56 197q21 76 5.5 115.5t-66.5 39.5q-35 0 -65 -21.5t-56 -66.5v7q32 58 75.5 87t95.5 29q77 0 109 -56t6 -149l-59 -211q-12 -44 -4.5 -68
t33.5 -24q22 0 43.5 19.5t43.5 58.5l20 37h11l-23 -42q-16 -31 -36.5 -55.5t-45.5 -38.5t-58 -14z" />
    <glyph glyph-name="i" unicode="i" horiz-adv-x="372" 
d="M178 -14q-40 0 -64 20.5t-29.5 56.5t10.5 82l82 254q15 43 7.5 69t-34.5 26q-22 0 -44.5 -19.5t-43.5 -58.5l-20 -37h-11l23 42q31 57 64 82.5t76 25.5q40 0 64 -20t29.5 -56t-10.5 -83l-82 -254q-15 -43 -7.5 -69t34.5 -26q46 0 88 78l20 37h11l-23 -42
q-31 -57 -63.5 -82.5t-76.5 -25.5zM277 634q-27 0 -45.5 18t-18.5 45q0 28 21.5 48.5t51.5 20.5q28 0 46.5 -18t18.5 -44q0 -29 -22 -49.5t-52 -20.5z" />
    <glyph glyph-name="j" unicode="j" horiz-adv-x="351" 
d="M-106 -239q-38 0 -59 14t-21 39q0 22 14.5 35.5t36.5 13.5q18 0 31.5 -10.5t25.5 -23.5t23.5 -23.5t25.5 -10.5q10 0 19.5 6.5t18 24.5t17.5 52l146 523q12 44 4.5 68.5t-33.5 24.5q-22 0 -44.5 -19.5t-43.5 -58.5l-20 -37h-11l23 42q30 57 63.5 82.5t76.5 25.5
q39 0 62.5 -19.5t29.5 -54.5t-7 -82l-83 -299q-27 -96 -71.5 -166.5t-101.5 -108.5t-122 -38zM279 634q-27 0 -45.5 18t-18.5 45q0 28 21.5 48.5t51.5 20.5q28 0 46.5 -18t18.5 -44q0 -29 -22 -49.5t-52 -20.5z" />
    <glyph glyph-name="k" unicode="k" horiz-adv-x="625" 
d="M25 0l182 647q10 37 7 58t-22 29.5t-58 8.5l3 11q70 1 123 11t96 30l-222 -795h-109zM423 -14q-44 0 -69 24.5t-34 77.5l-19 119q-10 55 -24 74t-44 19h-34l2 10h31q42 0 68.5 16t43.5 40.5t31.5 52.5t31 53t41.5 41t64 16q38 0 59 -15t21 -42q0 -21 -12.5 -34.5
t-33.5 -13.5q-17 0 -29.5 8.5t-23 20t-21 20t-25.5 8.5q-18 0 -31.5 -16.5t-26 -41t-28.5 -50t-40 -42.5v3q38 -13 56.5 -40t27.5 -84l20 -119q7 -37 17.5 -53t29.5 -16q22 0 42 18.5t42 59.5l20 36h11l-25 -47q-16 -29 -36 -52t-45.5 -37t-57.5 -14z" />
    <glyph glyph-name="l" unicode="l" horiz-adv-x="336" 
d="M150 -14q-39 0 -62.5 19.5t-29.5 54.5t7 82l142 505q10 37 7 57.5t-22.5 29.5t-57.5 9l3 11q69 1 122.5 11t96.5 30l-191 -682q-12 -42 -4.5 -67t33.5 -25q22 0 44 19t44 59l20 37h11l-23 -42q-17 -31 -37 -55.5t-45.5 -38.5t-57.5 -14z" />
    <glyph glyph-name="m" unicode="m" horiz-adv-x="942" 
d="M756 -14q-39 0 -63 19.5t-29.5 54.5t7.5 82l56 199q21 75 7 114t-62 39q-37 0 -68.5 -23t-58.5 -69l-1 7q32 59 76.5 89.5t98.5 30.5q50 0 80.5 -26t39.5 -72t-9 -107l-59 -211q-12 -44 -4 -68t33 -24q23 0 44.5 19t43.5 59l20 37h11l-23 -42q-17 -31 -37 -55.5
t-45 -38.5t-58 -14zM59 0l112 402q12 43 4.5 67.5t-33.5 24.5q-21 0 -43.5 -19.5t-43.5 -58.5l-20 -37h-11l23 42q17 31 37 55.5t45.5 38.5t57.5 14q39 0 62.5 -19t29.5 -54.5t-7 -82.5l-105 -373h-108zM352 0l95 341q22 75 7.5 114t-61.5 39q-37 0 -68.5 -22.5t-58.5 -69.5
l-1 7q32 59 77 89.5t98 30.5q50 0 80.5 -26t39.5 -72t-9 -107l-91 -324h-108z" />
    <glyph glyph-name="n" unicode="n" horiz-adv-x="672" 
d="M486 -14q-39 0 -63 19t-29.5 54.5t7.5 82.5l55 197q22 76 6.5 115.5t-66.5 39.5q-38 0 -70 -23t-59 -70l-2 7q34 60 80 90.5t101 30.5q77 0 108.5 -56t5.5 -149l-59 -211q-12 -44 -4 -68t33 -24q23 0 44.5 19.5t43.5 58.5l20 37h11l-23 -42q-17 -31 -37 -55.5
t-45.5 -38.5t-57.5 -14zM59 0l112 402q12 43 4.5 67.5t-33.5 24.5q-22 0 -44 -19.5t-43 -58.5l-20 -37h-11l23 42q17 31 37 55.5t45.5 38.5t57.5 14q39 0 62.5 -19t29.5 -54.5t-7 -82.5l-105 -373h-108z" />
    <glyph glyph-name="o" unicode="o" horiz-adv-x="571" 
d="M226 -14q-87 0 -135 53.5t-48 147.5q0 70 24 131.5t66 109t96.5 74.5t115.5 27q86 0 134.5 -53.5t48.5 -148.5q0 -69 -24 -130.5t-66 -108.5t-96.5 -74.5t-115.5 -27.5zM227 -3q28 0 56.5 20.5t52.5 57t43 83.5t29.5 101t10.5 108q0 74 -18.5 112.5t-54.5 38.5
q-29 0 -57.5 -21t-53 -57t-43.5 -83t-29.5 -100.5t-10.5 -108.5q0 -74 19 -112.5t56 -38.5z" />
    <glyph glyph-name="p" unicode="p" horiz-adv-x="622" 
d="M-82 -231l3 11q31 3 49.5 10.5t30 24t19.5 46.5l151 541q12 43 4.5 67.5t-33.5 24.5q-21 0 -43.5 -19t-43.5 -59l-20 -37h-11l23 42q17 31 37 55.5t45.5 38.5t57.5 14q57 0 81 -42t4 -114l-141 -503q-9 -32 -3.5 -51t29 -27.5t69.5 -11.5l-3 -11q-17 1 -43 1.5t-55.5 1.5
t-58.5 1q-42 0 -82 -1.5t-66 -2.5zM306 -14q-44 0 -78 20.5t-49 56.5l3 9q13 -26 35 -39.5t50 -13.5q40 0 76 25t64 69t44.5 100t16.5 118q0 76 -25.5 115.5t-73.5 39.5q-27 0 -51 -15.5t-44 -46.5l-2 7q31 49 69 73.5t83 24.5q71 0 113 -53t42 -143q0 -67 -22.5 -129
t-61 -111.5t-87.5 -78t-102 -28.5z" />
    <glyph glyph-name="q" unicode="q" horiz-adv-x="586" 
d="M147 -231l3 11q40 4 63.5 12.5t37 27t22.5 50.5l162 582q43 13 80.5 34.5t60.5 47.5l7 -9q-9 -9 -16.5 -19.5t-13 -24t-11.5 -32.5l-161 -578q-13 -46 4 -67t70 -24l-3 -11q-14 1 -37 1.5t-51 1.5t-58 1t-61 -1t-56.5 -1.5t-41.5 -1.5zM195 -14q-70 0 -112 53t-42 142
q0 67 24.5 129.5t66 112t94.5 78t111 28.5q52 0 94 -21.5t71 -61.5l-72 -48q-3 57 -24.5 88.5t-59.5 31.5q-37 0 -72 -28t-62.5 -75t-43.5 -107t-16 -124q0 -76 25.5 -117t73.5 -41q26 0 48 15t42 46v-7q-29 -47 -65.5 -70.5t-80.5 -23.5z" />
    <glyph glyph-name="r" unicode="r" horiz-adv-x="512" 
d="M59 0l112 402q13 44 4.5 68t-33.5 24q-22 0 -44 -19.5t-43 -58.5l-20 -37h-11l23 42q17 31 37 55.5t45.5 38.5t57.5 14q39 0 62.5 -19t29.5 -54.5t-7 -82.5l-105 -373h-108zM428 357q-19 0 -30 11t-11 29q0 16 8 31t15.5 29t7.5 25q0 19 -29 19q-28 0 -59 -20.5
t-56 -61.5l-1 8q29 50 68 76t83 26q39 0 60.5 -20t21.5 -56q0 -25 -10.5 -47t-28.5 -35.5t-39 -13.5z" />
    <glyph glyph-name="s" unicode="s" horiz-adv-x="494" 
d="M186 -14q-54 0 -96.5 15t-67 41.5t-24.5 59.5q0 27 15.5 42.5t40.5 15.5q24 0 37.5 -13.5t16.5 -39.5q1 -11 -0.5 -27t-1.5 -27q6 -31 24 -43.5t54 -12.5q56 0 88 26t32 71q0 32 -14.5 57.5t-37 47t-48 42t-48 42.5t-37 48t-14.5 59q0 61 54.5 100t137.5 39
q50 0 89.5 -14t62 -37.5t22.5 -53.5q0 -23 -13.5 -37.5t-36.5 -14.5t-37 13t-15 35q-1 13 0.5 27.5t0.5 23.5q-3 25 -19.5 36t-49.5 11q-46 0 -72 -22t-26 -60q0 -29 14 -53.5t36.5 -45.5t48 -42t48 -44t37 -50.5t14.5 -61.5q0 -45 -28 -79.5t-76 -54t-111 -19.5z" />
    <glyph glyph-name="t" unicode="t" horiz-adv-x="422" 
d="M186 -14q-62 0 -88 43.5t-6 113.5l146 522q30 1 58 5t55 11l-159 -569q-12 -44 -2 -67.5t40 -23.5q26 0 50.5 20.5t46.5 61.5l18 33h11l-25 -46q-15 -28 -35.5 -52t-47 -38t-62.5 -14zM88 504l3 11h361l-3 -11h-361z" />
    <glyph glyph-name="u" unicode="u" horiz-adv-x="663" 
d="M226 -14q-51 0 -82.5 26t-40 72t8.5 107l59 211q13 44 5 68t-34 24q-22 0 -44 -19.5t-43 -58.5l-20 -37h-11l22 42q18 31 38 55.5t45.5 38.5t57.5 14q40 0 63 -19.5t29 -54.5t-7 -82l-56 -197q-21 -76 -5.5 -115.5t64.5 -39.5q37 0 66.5 23t55.5 70l1 -7
q-32 -60 -75.5 -90.5t-96.5 -30.5zM476 -14q-40 0 -63 19.5t-29 54.5t7 82l105 373h108l-112 -402q-12 -42 -4.5 -67t33.5 -25q22 0 44 19t43 59l20 37h11l-23 -42q-16 -31 -36.5 -55.5t-45.5 -38.5t-58 -14z" />
    <glyph glyph-name="v" unicode="v" horiz-adv-x="624" 
d="M244 -14q-73 0 -111 40t-38 105q0 38 15.5 75t45.5 80t74.5 96.5t101.5 123.5q-20 -11 -44.5 -17.5t-49.5 -6.5q-23 0 -41 5t-30.5 10t-18.5 5t-8.5 -2.5t-2.5 -8.5q0 -11 7 -23t13.5 -25t6.5 -28q0 -21 -15.5 -36t-39.5 -15q-21 0 -33.5 13.5t-12.5 35.5q0 32 24 58.5
t63 42.5t86 16q27 0 53.5 -5t47.5 -12l17 26l8 -4q-52 -73 -85.5 -138t-50.5 -122t-17 -107q0 -68 26.5 -104t72.5 -36q41 0 81 25t72.5 66t52 89t19.5 93q0 40 -14 64t-32 40.5t-32 32.5t-14 40q0 23 14.5 37t38.5 14q35 0 52.5 -31.5t17.5 -96.5q0 -82 -25.5 -156.5
t-70.5 -133t-102.5 -92t-121.5 -33.5z" />
    <glyph glyph-name="w" unicode="w" horiz-adv-x="830" 
d="M473 -14q-63 0 -97.5 40t-34.5 115q0 47 15 93.5t39.5 84t54.5 60t61 22.5q25 0 38 -19.5t13 -60.5q0 -65 -31.5 -130.5t-91.5 -125.5l-3 9q55 57 85 120.5t30 123.5q0 32 -8 49.5t-23 17.5q-21 0 -41 -32t-33.5 -80t-13.5 -99q0 -68 25 -104.5t71 -36.5q37 0 74 23.5
t67.5 62.5t49 85.5t18.5 93.5q0 34 -9 56.5t-22.5 38t-27.5 28t-23 25.5t-9 32q0 23 14.5 37t38.5 14q35 0 52.5 -32t17.5 -97q0 -81 -24 -155t-66 -132.5t-95 -92.5t-111 -34zM244 -14q-69 0 -109.5 38.5t-40.5 104.5q0 39 16 76.5t46 80.5t74.5 96.5t101.5 123.5
q-20 -11 -45 -17.5t-49 -6.5q-23 0 -41 5t-30.5 10t-19.5 5q-5 0 -7.5 -2.5t-2.5 -8.5q0 -11 7 -23t13.5 -25t6.5 -28q0 -21 -16 -36t-39 -15q-21 0 -33.5 13.5t-12.5 35.5q0 32 24 58.5t63 42.5t86 16q25 0 50 -4.5t51 -12.5l18 26l8 -4q-53 -72 -88 -136t-52 -121.5
t-17 -110.5q0 -68 27 -104.5t78 -36.5q20 0 36 4.5t32 14.5l5 -10q-31 -25 -66 -37t-74 -12z" />
    <glyph glyph-name="x" unicode="x" horiz-adv-x="585" 
d="M379 -14q-44 0 -70.5 27t-35.5 81l-53 332q-5 33 -17.5 48t-33.5 15t-39 -16.5t-39 -55.5l-21 -38h-11l26 47q29 56 60 79.5t71 23.5q44 0 70.5 -26.5t35.5 -80.5l53 -333q6 -32 18.5 -47.5t33.5 -15.5t38.5 16.5t38.5 55.5l21 38h11l-26 -47q-29 -56 -60 -79.5
t-71 -23.5zM36 -14q-27 0 -43 14t-16 37q0 22 14.5 36.5t37.5 14.5q13 0 24 -5.5t21.5 -12t20 -11.5t20.5 -5q21 0 44.5 21t49 61.5t50.5 98.5l5 -10q-30 -74 -68 -127.5t-78.5 -82.5t-81.5 -29zM331 303l-5 8q41 107 93.5 162.5t111.5 55.5q27 0 43 -13.5t16 -35.5
t-15 -37.5t-36 -15.5q-13 0 -23.5 6t-20.5 13t-20 13t-22 6q-27 0 -58 -41.5t-64 -120.5z" />
    <glyph glyph-name="y" unicode="y" horiz-adv-x="587" 
d="M-22 -239q-34 0 -54.5 14.5t-20.5 38.5q0 22 16 35t40 13q18 0 34.5 -5.5t32 -13t31.5 -13t32 -5.5q32 0 74.5 27.5t89 73t92 101t81.5 113t58 108.5t22 86q0 28 -13 46.5t-30.5 33.5t-30.5 30t-13 36t15 35t40 14q33 0 51 -26t18 -74q0 -60 -26.5 -132.5t-73 -147.5
t-105 -144.5t-122 -124.5t-125 -87t-113.5 -32zM214 -117q9 85 8.5 171t-8 164t-20.5 138.5t-31 95.5t-39 35q-15 0 -30 -15.5t-37 -56.5l-19 -36h-11l25 47q28 54 57 78.5t64 24.5q52 0 85.5 -59t49.5 -178.5t13 -301.5q-15 -18 -31 -35.5t-34.5 -35t-41.5 -36.5z" />
    <glyph glyph-name="z" unicode="z" horiz-adv-x="560" 
d="M0 -14l-8 7l429 410l3 -4q-49 5 -94 9.5t-82 7.5t-63 3q-31 0 -50.5 -4.5t-32 -16t-24.5 -33.5h-11l33 64q28 55 54 77.5t61 22.5q20 0 38.5 -11.5t35.5 -29t33.5 -34.5t35 -29t39.5 -12q10 0 19.5 3t25 14t42 34.5t71.5 64.5l8 -7l-429 -410l-3 4q51 -4 97.5 -9t84 -8
t62.5 -3q31 0 50 4.5t31.5 16.5t23.5 33h11l-32 -64q-28 -54 -54.5 -77t-60.5 -23q-22 0 -40.5 12t-35.5 29l-34 34t-36 29t-42 12q-9 0 -18.5 -3t-25 -14.5t-42 -34.5t-70.5 -64z" />
    <glyph glyph-name="braceleft" unicode="{" horiz-adv-x="363" 
d="M474 786l-3 -11q-32 -1 -51 -7t-33 -27t-28.5 -67t-36.5 -127q-23 -81 -41 -130t-40.5 -75t-59 -36t-97.5 -12q45 -7 73 -20.5t40.5 -35t12.5 -54.5q0 -32 -10 -71.5t-23.5 -81t-23.5 -80t-10 -67.5q0 -22 6.5 -35.5t20.5 -19t35 -6.5l-3 -11q-77 0 -116.5 26.5
t-39.5 83.5q0 33 9.5 72.5t22.5 80.5t23 79t10 69q0 32 -12.5 49.5t-35.5 17.5h-13l3 11h13q22 0 38 4.5t30.5 26.5t32.5 72.5t43 143.5q21 77 41.5 124t48 72t69.5 33.5t105 8.5z" />
    <glyph glyph-name="bar" unicode="|" horiz-adv-x="297" 
d="M7 -231l300 1089h15l-300 -1089h-15z" />
    <glyph glyph-name="braceright" unicode="}" horiz-adv-x="363" 
d="M-89 -192l2 11q33 1 52 7t32.5 27t28.5 67t37 127q23 81 40.5 130t40 75t59.5 36t98 12q-45 8 -73 21t-41 34.5t-13 54.5q0 32 10.5 71.5t23.5 81t23 80t10 67.5q0 22 -6 35.5t-19.5 19.5t-35.5 6l3 11q77 0 116.5 -26.5t39.5 -83.5q0 -33 -10 -72.5t-22.5 -80.5
t-22.5 -79t-10 -69q0 -32 12.5 -49.5t35.5 -17.5h13l-3 -11h-13q-22 0 -38 -4.5t-31 -26.5t-32.5 -72.5t-42.5 -143.5q-21 -77 -41.5 -124t-48 -72t-69.5 -33.5t-105 -8.5z" />
    <glyph glyph-name="asciitilde" unicode="~" horiz-adv-x="723" 
d="M484 226q-45 0 -80.5 12.5t-66.5 28.5t-63 28.5t-69 12.5t-67.5 -16.5t-54.5 -51.5l-9 5q30 62 78.5 95.5t109.5 33.5q45 0 80.5 -12.5t67 -28.5t63 -28.5t68.5 -12.5q39 0 69.5 17t52.5 51l9 -5q-29 -62 -77.5 -95.5t-110.5 -33.5z" />
    <glyph glyph-name="uni00A0" unicode="&#xa0;" horiz-adv-x="280" 
 />
    <glyph glyph-name="exclamdown" unicode="&#xa1;" horiz-adv-x="303" 
d="M162 312l10 -2q-17 -74 -29 -144.5t-20.5 -131.5t-15.5 -110.5t-14 -81.5q-6 -38 -23 -59.5t-48 -21.5q-25 0 -39.5 15t-14.5 43q0 26 19.5 73t50 111t64 142t60.5 167zM213 529q31 0 50.5 -17.5t19.5 -45.5q0 -31 -22.5 -52t-56.5 -21q-30 0 -50 18t-20 45q0 31 23 52
t56 21z" />
    <glyph glyph-name="cent" unicode="&#xa2;" horiz-adv-x="515" 
d="M217 -14q-82 0 -128.5 52.5t-46.5 144.5q0 69 24.5 131.5t67.5 110.5t99 76t116 28q61 0 96.5 -26t35.5 -71q0 -27 -13.5 -50.5t-35 -38t-46.5 -14.5q-21 0 -33.5 10.5t-12.5 28.5q0 19 12 34t27 28t26.5 26t11.5 30q0 29 -43 29t-82.5 -27t-71 -74t-49.5 -106.5
t-18 -122.5q0 -79 29.5 -120.5t84.5 -41.5q46 0 84 29t68 89h10q-35 -76 -89 -115.5t-123 -39.5zM147 -182l51 181h11l-50 -181h-12zM344 522l52 186h12l-53 -186h-11z" />
    <glyph glyph-name="sterling" unicode="&#xa3;" horiz-adv-x="859" 
d="M87 -14q-49 0 -77.5 21.5t-28.5 58.5q0 43 35.5 67t96.5 24q44 0 86.5 -9.5t87 -22.5t94.5 -27t109.5 -23t133.5 -9q59 0 91 8.5t32 24.5q0 10 -11 20t-26 22t-26 27t-11 33q0 22 16 36.5t41 14.5q30 0 48.5 -21t18.5 -55q0 -37 -23.5 -71t-64.5 -61t-92.5 -42.5
t-107.5 -15.5q-59 0 -110 15t-95 36.5t-83 43t-75.5 36.5t-72.5 15q-35 0 -56.5 -18t-21.5 -48q0 -29 23 -47t61 -18q48 0 81.5 39.5t55.5 120.5l87 310q35 124 111.5 187.5t190.5 63.5q80 0 126 -28.5t46 -76.5q0 -27 -13 -49.5t-34.5 -36.5t-47.5 -14q-21 0 -33.5 10.5
t-12.5 27.5q0 20 12.5 34.5t29 26.5t29 24.5t12.5 27.5q0 18 -24 29t-62 11q-76 0 -124.5 -46t-76.5 -145l-71 -253q-23 -85 -65 -148t-95.5 -96.5t-113.5 -33.5zM87 262l3 11h495l-3 -11h-495zM116 365l3 11h495l-3 -11h-495z" />
    <glyph glyph-name="currency" unicode="&#xa4;" horiz-adv-x="564" 
d="M111 106l-11 11l47 47q-28 27 -41.5 63.5t-13.5 72.5q0 38 14.5 73.5t39.5 62.5l-47 48l12 11l47 -48q27 27 62.5 41t73.5 14q39 0 74.5 -14.5t61.5 -41.5l48 50l11 -12l-48 -49q26 -26 40 -60.5t14 -74.5t-14 -74t-40 -61l48 -48l-11 -11l-48 48q-24 -24 -60 -39.5
t-76 -15.5t-75 14.5t-61 39.5zM294 135q45 0 82 22.5t59.5 60t22.5 82.5t-22.5 82.5t-59.5 60.5t-82 23t-82.5 -23t-59.5 -60.5t-22 -82.5t22.5 -82.5t60 -60t81.5 -22.5z" />
    <glyph glyph-name="yen" unicode="&#xa5;" horiz-adv-x="672" 
d="M134 0l3 11q46 4 68.5 12t33.5 25.5t20 49.5l23 85q25 90 30 177t-6.5 158.5t-38.5 114t-66 42.5q-20 0 -38 -15t-38 -52l-34 -62h-11l39 72q17 31 36 54t44.5 36.5t60.5 13.5q104 0 144.5 -121.5t10.5 -349.5l-8 -7q36 120 73 209.5t75 149t76.5 89.5t77.5 30
q25 0 40.5 -12.5t15.5 -34.5q0 -27 -19 -40t-49 -22t-66 -23t-70.5 -43.5t-62.5 -83.5q-14 -28 -29 -65.5t-28.5 -75t-22.5 -69.5l-43 -155q-9 -33 -6 -51.5t23.5 -26t63.5 -9.5l-3 -11q-25 1 -64.5 2t-92.5 1q-56 0 -97.5 -1t-64.5 -2zM93 137l3 11h470l-3 -11h-470z
M122 241l3 11h206v-11h-209zM389 241l4 11h202l-3 -11h-203z" />
    <glyph glyph-name="brokenbar" unicode="&#xa6;" horiz-adv-x="297" 
d="M7 -231l153 557h15l-153 -557h-15zM176 384l131 474h15l-131 -474h-15z" />
    <glyph glyph-name="section" unicode="&#xa7;" horiz-adv-x="568" 
d="M328 44l-5 8q44 22 67 54.5t23 73.5q0 25 -10.5 47.5t-35 51.5t-68.5 71q-49 47 -79 79.5t-43.5 60.5t-13.5 63q0 49 27.5 87t76.5 60t110 22q73 0 119.5 -29t46.5 -75q0 -25 -14 -40t-37 -15q-22 0 -34 12.5t-15 36.5q-1 11 -0.5 24t-0.5 23q-3 26 -18 39t-48 13
q-53 0 -87.5 -27.5t-34.5 -80.5q0 -27 11.5 -51t38.5 -54t75 -77q46 -45 71 -75.5t35 -55.5t10 -53q0 -60 -42.5 -109t-124.5 -84zM174 -239q-72 0 -119 29.5t-47 74.5q0 25 14 40t37 15q21 0 34 -12.5t16 -36.5q1 -11 0.5 -25t-0.5 -21q3 -27 18.5 -40t47.5 -13
q52 0 87 27.5t35 81.5q0 28 -11.5 51.5t-38.5 53.5t-74 76q-46 45 -71.5 75t-35.5 55.5t-10 53.5q0 60 42.5 109t125.5 84l5 -8q-45 -23 -68 -55t-23 -72q0 -27 11.5 -50.5t36.5 -52t66 -68.5q50 -47 80 -80t43.5 -61.5t13.5 -61.5q0 -48 -28 -86.5t-76.5 -60.5t-110.5 -22z
" />
    <glyph glyph-name="dieresis" unicode="&#xa8;" horiz-adv-x="426" 
d="M455 638q-26 0 -44 17.5t-18 43.5q0 27 18.5 45t44.5 18q27 0 44.5 -17.5t17.5 -43.5t-18 -44.5t-45 -18.5zM218 638q-26 0 -44 17.5t-18 43.5q0 27 18.5 45t44.5 18q27 0 44.5 -17.5t17.5 -43.5t-18 -44.5t-45 -18.5z" />
    <glyph glyph-name="copyright" unicode="&#xa9;" horiz-adv-x="934" 
d="M502 -14q-82 0 -154.5 31t-127 85.5t-85.5 127t-31 154.5q0 83 31 155t85.5 126.5t127 85.5t154.5 31q83 0 155 -31t126.5 -85.5t85.5 -126.5t31 -155q0 -82 -31 -154.5t-85.5 -127t-126.5 -85.5t-155 -31zM504 122q-68 0 -120 33t-81.5 91.5t-29.5 135.5q0 78 31.5 138
t87.5 93.5t129 33.5q50 0 90.5 -16t64.5 -44t24 -63q0 -32 -19.5 -52t-50.5 -20q-24 0 -39.5 13.5t-15.5 34.5q0 20 10.5 35.5t21 29.5t10.5 29q0 17 -20 28t-52 11q-48 0 -83 -28.5t-53.5 -81t-18.5 -126.5q0 -115 42.5 -178t117.5 -63q47 0 86 28t63 86l11 -5
q-24 -67 -78.5 -105t-127.5 -38zM503 -1q80 0 149 30t122 83t83 123t30 149t-30 149t-83 123.5t-122 83t-149 29.5t-149.5 -30t-123 -83t-83 -123t-29.5 -149t29.5 -149t83 -123.5t123 -83t149.5 -29.5z" />
    <glyph glyph-name="ordfeminine" unicode="&#xaa;" horiz-adv-x="518" 
d="M226 360q-56 0 -89 36t-33 98q0 60 31.5 112t82 84t109.5 32q40 0 73.5 -18t56.5 -52l-59 -34q-1 46 -18.5 70t-48.5 24q-36 0 -67 -29.5t-50 -78t-19 -104.5q0 -104 75 -104q25 0 45 11.5t36 33.5v-8q-24 -36 -55 -54.5t-70 -18.5zM421 360q-44 0 -64.5 31t-6.5 80
l53 187q34 9 65 27.5t51 40.5l6 -7q-8 -9 -14 -19t-10.5 -21t-8.5 -23l-58 -209q-7 -26 -1.5 -43t26.5 -17t38.5 19t31.5 45l17 31h10l-20 -38q-12 -22 -29 -41t-38.5 -31t-47.5 -12z" />
    <glyph glyph-name="guillemotleft" unicode="&#xab;" horiz-adv-x="703" 
d="M666 528l7 -6l-231 -251l128 -281l-9 -5l-242 267l1 8zM425 528l7 -6l-231 -251l128 -281l-9 -5l-242 267l1 8z" />
    <glyph glyph-name="logicalnot" unicode="&#xac;" horiz-adv-x="643" 
d="M526 144l59 204h-488l3 13h501l-62 -217h-13z" />
    <glyph glyph-name="registered" unicode="&#xae;" horiz-adv-x="705" 
d="M421 222q-78 0 -141.5 38t-101.5 101.5t-38 141.5t38 141.5t101.5 101.5t141.5 38t141.5 -38t101.5 -101.5t38 -141.5t-38 -141.5t-101.5 -101.5t-141.5 -38zM421 230q75 0 137 37t98.5 99t36.5 137q0 76 -36.5 137.5t-98.5 98.5t-137 37t-137 -37t-98.5 -98.5
t-36.5 -137.5q0 -75 36.5 -137t98.5 -99t137 -37zM269 359v7q30 2 37.5 8t7.5 28v223q0 22 -7.5 28t-37.5 8v7q8 0 17.5 -0.5t23.5 -0.5h34q29 0 54 0.5t36 0.5q60 0 89.5 -19t29.5 -56q0 -38 -32.5 -60t-96.5 -22h-76v6h69q34 0 50 18.5t16 55.5q0 36 -16.5 53t-51.5 17
h-35v-259q0 -21 8.5 -27.5t41.5 -8.5v-7q-19 1 -36 1h-47h-44.5t-33.5 -1zM543 352q-26 0 -40.5 12t-21.5 40l-14 56q-7 28 -17 39t-34 12l-1 3l10 -1q57 -3 83 -19.5t36 -60.5l9 -36q4 -15 9 -21t13 -6q9 0 18 10l3 -5q-17 -23 -53 -23z" />
    <glyph glyph-name="macron" unicode="&#xaf;" horiz-adv-x="413" 
d="M152 694l3 11h352l-3 -11h-352z" />
    <glyph glyph-name="degree" unicode="&#xb0;" horiz-adv-x="353" 
d="M289 534q-55 0 -95.5 33.5t-40.5 92.5t40.5 92.5t95.5 33.5q56 0 96 -33.5t40 -92.5t-40 -92.5t-96 -33.5zM289 544q51 0 88 31t37 85q0 53 -37 84.5t-88 31.5q-50 0 -87 -31.5t-37 -84.5q0 -54 36.5 -85t87.5 -31z" />
    <glyph glyph-name="plusminus" unicode="&#xb1;" horiz-adv-x="645" 
d="M2 8l3 13h501l-3 -13h-501zM274 105l68 244h-244l3 12h244l69 245h13l-68 -245h243l-3 -12h-244l-68 -244h-13z" />
    <glyph glyph-name="uni00B2" unicode="&#xb2;" horiz-adv-x="485" 
d="M490 430q-3 2 -12.5 3t-21.5 1h-358l3 9q48 30 97.5 58.5t95 57.5t81 59t56 64t20.5 72q0 44 -27.5 68.5t-76.5 24.5q-56 0 -93 -32t-37 -81q0 -34 19.5 -53t53.5 -19q21 0 37 8t31 25l2 -8q-25 -30 -55.5 -45.5t-63.5 -15.5q-39 0 -62 21t-23 57q0 43 32 79t85 58
t116 22q73 0 116.5 -31t43.5 -82q0 -39 -29 -74t-94.5 -72.5t-174.5 -82.5v-4h182q35 0 53.5 8.5t28.5 33.5h10q-5 -14 -10.5 -34t-12 -44t-12.5 -51z" />
    <glyph glyph-name="uni00B3" unicode="&#xb3;" horiz-adv-x="482" 
d="M266 314q-79 0 -128 28.5t-49 74.5q0 31 23.5 54t55.5 23q18 0 30 -9.5t12 -25.5q0 -20 -16 -34.5t-32 -28.5t-16 -30q0 -17 25 -28t66 -11q75 0 121 37t46 98q0 36 -15 63.5t-41 43.5l-40 -26l-4 6q50 33 83 65.5t49.5 65t16.5 67.5q0 46 -28 73t-76 27
q-54 0 -90.5 -32.5t-36.5 -80.5q0 -35 19.5 -53.5t53.5 -18.5q23 0 41 8.5t34 25.5l1 -9q-26 -30 -57.5 -45.5t-65.5 -15.5q-40 0 -63 21t-23 56q0 44 31.5 80t84 58t113.5 22q70 0 113.5 -29t43.5 -77q0 -43 -44.5 -85.5t-144.5 -94.5v-2q66 -10 104.5 -41t38.5 -75
q0 -40 -32 -73t-85.5 -52.5t-118.5 -19.5z" />
    <glyph glyph-name="acute" unicode="&#xb4;" horiz-adv-x="253" 
d="M134 603l-5 5q43 49 69.5 85.5t45.5 64.5t40 48q21 21 42.5 23t34.5 -13q13 -14 9 -33t-26 -40q-21 -19 -50.5 -36.5t-68.5 -41t-91 -62.5z" />
    <glyph glyph-name="paragraph" unicode="&#xb6;" horiz-adv-x="778" 
d="M283 -245q-70 0 -114 24.5t-44 63.5q0 25 16 40t42 15t39.5 -13t22.5 -32.5t17.5 -38.5t21.5 -32t37 -13q32 0 52.5 27t35 71t27.5 93l51 180q-185 0 -282.5 65.5t-97.5 189.5q0 98 59 168t169 108t262 38q42 0 87 -1.5t89 -2t82 2.5l-3 -11q-37 -3 -59.5 -10t-34.5 -21
t-19 -40l-173 -618q-23 -83 -62.5 -139.5t-94.5 -85t-126 -28.5zM496 170l142 510q-3 0 -13 -22t-26.5 -72.5t-41.5 -134.5q-58 63 -90.5 97t-46.5 47t-20 13q1 -4 11.5 -19t41.5 -50.5t90 -102.5q-88 0 -147 -0.5t-93.5 -2t-50 -2.5t-18.5 -3q3 -2 30 -4t92.5 -3.5
t182.5 -1.5q-72 -50 -117 -82t-70 -50.5t-35.5 -27t-12.5 -12.5q5 2 26 14.5t71.5 46t144.5 97.5q-33 -126 -44 -180.5t-6 -54.5z" />
    <glyph glyph-name="periodcentered" unicode="&#xb7;" horiz-adv-x="300" 
d="M149 200q-31 0 -50.5 17.5t-19.5 45.5q0 31 22.5 52t56.5 21q31 0 50.5 -17.5t19.5 -45.5q0 -31 -23 -52t-56 -21z" />
    <glyph glyph-name="cedilla" unicode="&#xb8;" horiz-adv-x="303" 
d="M-19 -245q-25 0 -48 3.5t-39 9.5l1 7q11 -3 26 -5t34 -2q50 0 82.5 21t32.5 56q0 21 -14.5 33.5t-41.5 12.5q-6 0 -13 -0.5t-12 -1.5l70 102h8l-58 -87q9 3 24 5.5t35 2.5q42 0 65.5 -17t23.5 -47q0 -41 -49.5 -67t-126.5 -26z" />
    <glyph glyph-name="uni00B9" unicode="&#xb9;" horiz-adv-x="329" 
d="M181 434l100 360q-25 -11 -57.5 -23t-82.5 -24l2 9q61 16 105 33t76.5 36t61.5 36h9l-118 -427h-96z" />
    <glyph glyph-name="ordmasculine" unicode="&#xba;" horiz-adv-x="464" 
d="M261 361q-71 0 -112 39.5t-41 107.5q0 59 30 107.5t80.5 77.5t111.5 29q72 0 113.5 -39.5t41.5 -106.5q0 -59 -30.5 -108t-81.5 -78t-112 -29zM262 372q26 0 49.5 18.5t42 50t29.5 72.5t11 85q0 55 -16 84t-47 29q-26 0 -49.5 -18.5t-42.5 -51t-30 -73t-11 -84.5
q0 -55 16.5 -83.5t47.5 -28.5z" />
    <glyph glyph-name="guillemotright" unicode="&#xbb;" horiz-adv-x="703" 
d="M37 -14l-7 7l231 251l-128 280l9 5l242 -267l-1 -8zM278 -14l-7 7l231 251l-128 280l9 5l242 -267l-1 -8z" />
    <glyph glyph-name="onequarter" unicode="&#xbc;" horiz-adv-x="699" 
d="M151 466l73 262q-15 -5 -30 -9.5t-32 -9t-38 -8.5l2 7q52 11 89.5 23.5t65 26t49.5 25.5h7l-88 -317h-98zM-47 -85l-6 5l770 933l7 -5zM296 59l1 7q19 13 35.5 24.5t31.5 23.5t29 23q31 26 42.5 46.5t11.5 42.5q0 19 -3 30t-6.5 20.5t-3.5 21.5q0 22 14 36t37 14
q21 0 35 -12.5t14 -31.5q0 -18 -12 -39.5t-36 -48t-62 -60.5q-23 -21 -52 -43t-67 -49l-6 2h356l-2 -7h-357zM444 -56l66 237q36 2 61 7.5t44 14.5l-73 -259h-98z" />
    <glyph glyph-name="onehalf" unicode="&#xbd;" horiz-adv-x="714" 
d="M151 466l73 262q-15 -5 -30 -9.5t-32 -9t-38 -8.5l2 7q52 11 89.5 23.5t65 26t49.5 25.5h7l-88 -317h-98zM-47 -85l-6 5l770 933l7 -5zM618 26q-6 3 -25 3h-291l1 7q52 30 99 57.5t83.5 54.5t58 56.5t21.5 63.5q0 31 -19 49.5t-52 18.5q-39 0 -64.5 -23.5t-25.5 -60.5
q0 -25 13 -38.5t37 -13.5q14 0 25 5.5t21 17.5l2 -6q-20 -23 -42.5 -34.5t-47.5 -11.5q-31 0 -48.5 15.5t-17.5 43.5q0 32 25 59t67 43t93 16q59 0 94 -22.5t35 -61.5q0 -42 -52 -78.5t-173 -79.5v-3h151q23 0 34 6t18 22h8q-6 -18 -11 -36t-9 -35z" />
    <glyph glyph-name="threequarters" unicode="&#xbe;" horiz-adv-x="809" 
d="M226 377q-64 0 -102.5 22t-38.5 58q0 25 18 42t43 17q18 0 28.5 -8.5t10.5 -22.5q0 -16 -12.5 -28t-25 -22.5t-12.5 -21.5q0 -12 17 -18.5t43 -6.5q54 0 88.5 28t34.5 72q0 25 -10 45.5t-29 33.5l-30 -21l-4 5q58 37 84.5 73.5t26.5 75.5q0 35 -19 54.5t-53 19.5
q-38 0 -63.5 -24t-25.5 -61q0 -25 13.5 -38.5t36.5 -13.5q15 0 27.5 5.5t23.5 17.5l2 -6q-21 -23 -44.5 -34.5t-48.5 -11.5q-31 0 -49 15.5t-18 42.5q0 33 24 59.5t65 43t89 16.5q56 0 90 -22t34 -58t-37.5 -68.5t-115.5 -63.5v-3q58 -3 92 -26t34 -58q0 -30 -25 -55
t-67 -39.5t-95 -14.5zM62 -85l-6 5l770 933l7 -5zM406 59l1 7q19 13 35.5 24.5t31.5 23.5t29 23q31 26 42.5 46.5t11.5 42.5q0 19 -3 30t-6.5 20.5t-3.5 21.5q0 22 14 36t37 14q21 0 35 -12.5t14 -31.5q0 -18 -12 -39.5t-36 -48t-62 -60.5q-23 -21 -52 -43t-67 -49l-6 2h356
l-2 -7h-357zM554 -56l66 237q36 2 61 7.5t44 14.5l-73 -259h-98z" />
    <glyph glyph-name="questiondown" unicode="&#xbf;" horiz-adv-x="441" 
d="M149 -245q-58 0 -103 19t-70 53t-25 78q0 45 22.5 80.5t59 65.5t77 56t76.5 51t58.5 51.5t22.5 56.5q0 20 -7 34l10 2q18 -13 27.5 -33t9.5 -45q0 -43 -27 -76.5t-66 -62t-78.5 -57t-66 -61t-26.5 -75.5q0 -36 17 -63.5t48 -43t72 -15.5q38 0 63 14.5t25 35.5
q0 16 -11 26.5t-25.5 20t-25.5 20.5t-11 28q0 18 14.5 29.5t38.5 11.5q35 0 57.5 -22.5t22.5 -57.5q0 -34 -23 -61.5t-63.5 -43.5t-92.5 -16zM303 393q-30 0 -50 17.5t-20 45.5q0 31 23 52t56 21q32 0 51 -18t19 -46q0 -30 -22.5 -51t-56.5 -21z" />
    <glyph glyph-name="Agrave" unicode="&#xc0;" horiz-adv-x="744" 
d="M-77 0l2 11q31 5 56 18.5t50.5 40t55.5 69.5l414 582h10l101 -637q5 -26 13.5 -41.5t26 -22.5t45.5 -9l-3 -11q-26 1 -64.5 2t-81.5 1q-54 0 -96.5 -1t-66.5 -2l3 11q48 2 72.5 10t32 25.5t1.5 49.5l-77 495l14 15l-295 -417q-40 -57 -50 -95.5t11.5 -58.5t75.5 -24
l-2 -11q-31 2 -67.5 2.5t-72.5 0.5q-26 0 -52.5 -0.5t-55.5 -2.5zM183 263l7 11h326l1 -11h-334zM542 788q-45 18 -77 27t-54.5 16t-38.5 18q-22 15 -27 34.5t5 35.5q12 17 32.5 19t43.5 -13q16 -11 30 -28.5t35 -42.5t56 -60z" />
    <glyph glyph-name="Aacute" unicode="&#xc1;" horiz-adv-x="744" 
d="M-77 0l2 11q31 5 56 18.5t50.5 40t55.5 69.5l414 582h10l101 -637q5 -26 13.5 -41.5t26 -22.5t45.5 -9l-3 -11q-26 1 -64.5 2t-81.5 1q-54 0 -96.5 -1t-66.5 -2l3 11q48 2 72.5 10t32 25.5t1.5 49.5l-77 495l14 15l-295 -417q-40 -57 -50 -95.5t11.5 -58.5t75.5 -24
l-2 -11q-31 2 -67.5 2.5t-72.5 0.5q-26 0 -52.5 -0.5t-55.5 -2.5zM183 263l7 11h326l1 -11h-334zM479 788l-4 7q55 35 88 61t55.5 44.5t44.5 29.5q25 11 45.5 6.5t28.5 -22.5q9 -18 1.5 -36t-32.5 -30q-22 -11 -51 -16.5t-71.5 -14.5t-104.5 -29z" />
    <glyph glyph-name="Acircumflex" unicode="&#xc2;" horiz-adv-x="744" 
d="M-77 0l2 11q31 5 56 18.5t50.5 40t55.5 69.5l414 582h10l101 -637q5 -26 13.5 -41.5t26 -22.5t45.5 -9l-3 -11q-26 1 -64.5 2t-81.5 1q-54 0 -96.5 -1t-66.5 -2l3 11q48 2 72.5 10t32 25.5t1.5 49.5l-77 495l14 15l-295 -417q-40 -57 -50 -95.5t11.5 -58.5t75.5 -24
l-2 -11q-31 2 -67.5 2.5t-72.5 0.5q-26 0 -52.5 -0.5t-55.5 -2.5zM183 263l7 11h326l1 -11h-334zM309 774l-5 8l242 157h21l155 -156l-7 -9l-237 95l34 3z" />
    <glyph glyph-name="Atilde" unicode="&#xc3;" horiz-adv-x="744" 
d="M-77 0l2 11q31 5 56 18.5t50.5 40t55.5 69.5l414 582h10l101 -637q5 -26 13.5 -41.5t26 -22.5t45.5 -9l-3 -11q-26 1 -64.5 2t-81.5 1q-54 0 -96.5 -1t-66.5 -2l3 11q48 2 72.5 10t32 25.5t1.5 49.5l-77 495l14 15l-295 -417q-40 -57 -50 -95.5t11.5 -58.5t75.5 -24
l-2 -11q-31 2 -67.5 2.5t-72.5 0.5q-26 0 -52.5 -0.5t-55.5 -2.5zM183 263l7 11h326l1 -11h-334zM610 777q-39 0 -72 14.5t-64.5 29t-69.5 14.5q-34 0 -57.5 -15.5t-42.5 -49.5l-9 3q24 63 62 95.5t89 32.5q40 0 72.5 -15t64.5 -29.5t69 -14.5q34 0 57.5 16t43.5 51l8 -3
q-24 -64 -62 -96.5t-89 -32.5z" />
    <glyph glyph-name="Adieresis" unicode="&#xc4;" horiz-adv-x="744" 
d="M-77 0l2 11q31 5 56 18.5t50.5 40t55.5 69.5l414 582h10l101 -637q5 -26 13.5 -41.5t26 -22.5t45.5 -9l-3 -11q-26 1 -64.5 2t-81.5 1q-54 0 -96.5 -1t-66.5 -2l3 11q48 2 72.5 10t32 25.5t1.5 49.5l-77 495l14 15l-295 -417q-40 -57 -50 -95.5t11.5 -58.5t75.5 -24
l-2 -11q-31 2 -67.5 2.5t-72.5 0.5q-26 0 -52.5 -0.5t-55.5 -2.5zM183 263l7 11h326l1 -11h-334zM398 770q-24 0 -41 17.5t-17 43.5q0 27 20.5 47t50.5 20q24 0 41 -17.5t17 -43.5q0 -27 -20.5 -47t-50.5 -20zM644 770q-24 0 -41 17.5t-17 43.5q0 27 20.5 47t50.5 20
q24 0 41 -17.5t17 -43.5q0 -27 -20.5 -47t-50.5 -20z" />
    <glyph glyph-name="Aring" unicode="&#xc5;" horiz-adv-x="744" 
d="M-77 0l2 11q31 5 56 18.5t50.5 40t55.5 69.5l414 582h10l101 -637q5 -26 13.5 -41.5t26 -22.5t45.5 -9l-3 -11q-26 1 -64.5 2t-81.5 1q-54 0 -96.5 -1t-66.5 -2l3 11q48 2 72.5 10t32 25.5t1.5 49.5l-77 495l14 15l-295 -417q-40 -57 -50 -95.5t11.5 -58.5t75.5 -24
l-2 -11q-31 2 -67.5 2.5t-72.5 0.5q-26 0 -52.5 -0.5t-55.5 -2.5zM183 263l7 11h326l1 -11h-334zM516 741q-47 0 -76 24t-29 63q0 44 37 75t91 31q47 0 77.5 -24.5t30.5 -62.5q0 -30 -17.5 -54t-47 -38t-66.5 -14zM517 748q34 0 62 13t44 35.5t16 50.5q0 35 -28.5 57.5
t-72.5 22.5q-50 0 -84.5 -29t-34.5 -70q0 -36 27 -58t71 -22z" />
    <glyph glyph-name="AE" unicode="&#xc6;" horiz-adv-x="968" 
d="M-95 0l3 11q16 7 39.5 24.5t55.5 47.5t71 71l590 618h13l-531 -557q-54 -57 -73 -102t-2.5 -72t68.5 -30l-3 -11q-26 2 -59 2.5t-73 0.5q-15 0 -29 -0.5t-30.5 -1t-39.5 -1.5zM270 351l10 11h455l-3 -11h-462zM300 0l3 11q38 3 58 10t30.5 24.5t19.5 51.5l144 514
q10 35 8.5 52.5t-20 24.5t-58.5 9l2 11q40 -1 91.5 -1.5t108 -1t111.5 -0.5q49 0 97 1t89 2q-14 -46 -23 -93t-14 -100h-12q-3 69 -14.5 108t-35.5 55t-67 16h-123l-169 -601q-9 -33 -7.5 -50.5t17.5 -23t52 -5.5h15q72 0 123 21t92 71t81 136h11q-26 -65 -45.5 -124.5
t-34.5 -117.5q-37 1 -69.5 1.5t-62 1t-59.5 0.5h-63q-92 0 -162 -0.5t-114 -2.5zM761 214q6 75 -17.5 106t-86.5 31l3 11q44 0 74 12.5t54 42t47 81.5h11q-10 -29 -20.5 -65t-21.5 -77q-4 -18 -7.5 -33t-7.5 -30.5t-8 -34t-9 -44.5h-11z" />
    <glyph glyph-name="Ccedilla" unicode="&#xc7;" horiz-adv-x="780" 
d="M376 -14q-89 0 -153.5 36t-99.5 103.5t-35 160.5q0 91 32 170t89 139t131.5 93.5t161.5 33.5q50 0 86.5 -9t62 -22t44 -22t33.5 -9t27.5 11t25.5 37h12q-17 -49 -33 -107t-33 -128h-11q9 72 -12.5 125t-67.5 82t-110 29q-66 0 -123 -33.5t-100 -93t-67 -138t-24 -169.5
q0 -87 23.5 -147.5t69.5 -92t111 -31.5q83 0 149 57t115 184h12q-18 -64 -29.5 -109.5t-18.5 -77.5t-12 -58h-11q-1 23 -7.5 33t-20.5 10q-18 0 -45 -14t-68 -28.5t-104 -14.5zM317 -245q-25 0 -48 3.5t-39 9.5l1 7q11 -3 26 -5t34 -2q50 0 82.5 21t32.5 56q0 21 -14.5 33.5
t-41.5 12.5q-6 0 -13 -0.5t-12 -1.5l70 102h8l-58 -87q9 3 24 5.5t35 2.5q42 0 65.5 -17t23.5 -47q0 -41 -49.5 -67t-126.5 -26z" />
    <glyph glyph-name="Egrave" unicode="&#xc8;" horiz-adv-x="711" 
d="M-23 0l3 11q45 3 67.5 10t33.5 24.5t21 51.5l144 514q10 35 8 52.5t-21 24.5t-61 9l3 11q31 -1 80.5 -1h117.5h88h88t88.5 0.5t89.5 0.5q-15 -51 -25.5 -102.5t-17.5 -104.5h-11q0 73 -12.5 115.5t-41 61t-77.5 18.5h-156l-169 -603q-14 -50 -2 -64.5t67 -14.5h31
q77 0 133.5 21.5t103 71.5t92.5 135h11q-27 -69 -46.5 -127t-33.5 -115q-42 1 -78.5 1.5t-71 1t-69 0.5h-71.5q-102 0 -178.5 -0.5t-127.5 -2.5zM255 351l3 11h211l-2 -11h-212zM478 214q6 75 -19.5 106t-92.5 31l3 11q46 0 77.5 12.5t56.5 42t49 81.5h11q-5 -16 -12 -38
t-14.5 -48.5t-15.5 -56.5q-5 -17 -9 -33.5t-7.5 -34t-7.5 -35.5t-8 -38h-11zM512 788q-45 18 -77 27t-54.5 16t-38.5 18q-22 15 -27 34.5t5 35.5q12 17 32.5 19t43.5 -13q16 -11 30 -28.5t35 -42.5t56 -60z" />
    <glyph glyph-name="Eacute" unicode="&#xc9;" horiz-adv-x="711" 
d="M-23 0l3 11q45 3 67.5 10t33.5 24.5t21 51.5l144 514q10 35 8 52.5t-21 24.5t-61 9l3 11q31 -1 80.5 -1h117.5h88h88t88.5 0.5t89.5 0.5q-15 -51 -25.5 -102.5t-17.5 -104.5h-11q0 73 -12.5 115.5t-41 61t-77.5 18.5h-156l-169 -603q-14 -50 -2 -64.5t67 -14.5h31
q77 0 133.5 21.5t103 71.5t92.5 135h11q-27 -69 -46.5 -127t-33.5 -115q-42 1 -78.5 1.5t-71 1t-69 0.5h-71.5q-102 0 -178.5 -0.5t-127.5 -2.5zM255 351l3 11h211l-2 -11h-212zM478 214q6 75 -19.5 106t-92.5 31l3 11q46 0 77.5 12.5t56.5 42t49 81.5h11q-5 -16 -12 -38
t-14.5 -48.5t-15.5 -56.5q-5 -17 -9 -33.5t-7.5 -34t-7.5 -35.5t-8 -38h-11zM449 788l-4 7q55 35 88 61t55.5 44.5t44.5 29.5q25 11 45.5 6.5t28.5 -22.5q9 -18 1.5 -36t-32.5 -30q-22 -11 -51 -16.5t-71.5 -14.5t-104.5 -29z" />
    <glyph glyph-name="Ecircumflex" unicode="&#xca;" horiz-adv-x="711" 
d="M-23 0l3 11q45 3 67.5 10t33.5 24.5t21 51.5l144 514q10 35 8 52.5t-21 24.5t-61 9l3 11q31 -1 80.5 -1h117.5h88h88t88.5 0.5t89.5 0.5q-15 -51 -25.5 -102.5t-17.5 -104.5h-11q0 73 -12.5 115.5t-41 61t-77.5 18.5h-156l-169 -603q-14 -50 -2 -64.5t67 -14.5h31
q77 0 133.5 21.5t103 71.5t92.5 135h11q-27 -69 -46.5 -127t-33.5 -115q-42 1 -78.5 1.5t-71 1t-69 0.5h-71.5q-102 0 -178.5 -0.5t-127.5 -2.5zM255 351l3 11h211l-2 -11h-212zM478 214q6 75 -19.5 106t-92.5 31l3 11q46 0 77.5 12.5t56.5 42t49 81.5h11q-5 -16 -12 -38
t-14.5 -48.5t-15.5 -56.5q-5 -17 -9 -33.5t-7.5 -34t-7.5 -35.5t-8 -38h-11zM279 774l-5 8l242 157h21l155 -156l-7 -9l-237 95l34 3z" />
    <glyph glyph-name="Edieresis" unicode="&#xcb;" horiz-adv-x="711" 
d="M-23 0l3 11q45 3 67.5 10t33.5 24.5t21 51.5l144 514q10 35 8 52.5t-21 24.5t-61 9l3 11q31 -1 80.5 -1h117.5h88h88t88.5 0.5t89.5 0.5q-15 -51 -25.5 -102.5t-17.5 -104.5h-11q0 73 -12.5 115.5t-41 61t-77.5 18.5h-156l-169 -603q-14 -50 -2 -64.5t67 -14.5h31
q77 0 133.5 21.5t103 71.5t92.5 135h11q-27 -69 -46.5 -127t-33.5 -115q-42 1 -78.5 1.5t-71 1t-69 0.5h-71.5q-102 0 -178.5 -0.5t-127.5 -2.5zM255 351l3 11h211l-2 -11h-212zM478 214q6 75 -19.5 106t-92.5 31l3 11q46 0 77.5 12.5t56.5 42t49 81.5h11q-5 -16 -12 -38
t-14.5 -48.5t-15.5 -56.5q-5 -17 -9 -33.5t-7.5 -34t-7.5 -35.5t-8 -38h-11zM367 770q-24 0 -41 17.5t-17 43.5q0 27 20.5 47t50.5 20q24 0 41 -17.5t17 -43.5q0 -27 -20.5 -47t-50.5 -20zM613 770q-24 0 -41 17.5t-17 43.5q0 27 20.5 47t50.5 20q24 0 41 -17.5t17 -43.5
q0 -27 -20.5 -47t-50.5 -20z" />
    <glyph glyph-name="Igrave" unicode="&#xcc;" horiz-adv-x="412" 
d="M-23 0l3 11q46 4 69 11t34 24.5t20 50.5l143 514q10 34 8.5 51.5t-20.5 24.5t-62 10l3 11q31 -1 69.5 -2t82.5 -1t85.5 1t76.5 2l-3 -11q-45 -4 -68 -11t-34 -23.5t-21 -51.5l-143 -514q-10 -34 -8 -51.5t21 -24t61 -10.5l-3 -11q-31 2 -70 2.5t-83 0.5q-46 0 -86.5 -0.5
t-74.5 -2.5zM380 788q-45 18 -77 27t-54.5 16t-38.5 18q-22 15 -27 34.5t5 35.5q12 17 32.5 19t43.5 -13q16 -11 30 -28.5t35 -42.5t56 -60z" />
    <glyph glyph-name="Iacute" unicode="&#xcd;" horiz-adv-x="412" 
d="M-23 0l3 11q46 4 69 11t34 24.5t20 50.5l143 514q10 34 8.5 51.5t-20.5 24.5t-62 10l3 11q31 -1 69.5 -2t82.5 -1t85.5 1t76.5 2l-3 -11q-45 -4 -68 -11t-34 -23.5t-21 -51.5l-143 -514q-10 -34 -8 -51.5t21 -24t61 -10.5l-3 -11q-31 2 -70 2.5t-83 0.5q-46 0 -86.5 -0.5
t-74.5 -2.5zM317 788l-4 7q55 35 88 61t55.5 44.5t44.5 29.5q25 11 45.5 6.5t28.5 -22.5q9 -18 1.5 -36t-32.5 -30q-22 -11 -51 -16.5t-71.5 -14.5t-104.5 -29z" />
    <glyph glyph-name="Icircumflex" unicode="&#xce;" horiz-adv-x="412" 
d="M-23 0l3 11q46 4 69 11t34 24.5t20 50.5l143 514q10 34 8.5 51.5t-20.5 24.5t-62 10l3 11q31 -1 69.5 -2t82.5 -1t85.5 1t76.5 2l-3 -11q-45 -4 -68 -11t-34 -23.5t-21 -51.5l-143 -514q-10 -34 -8 -51.5t21 -24t61 -10.5l-3 -11q-31 2 -70 2.5t-83 0.5q-46 0 -86.5 -0.5
t-74.5 -2.5zM147 774l-5 8l242 157h21l155 -156l-7 -9l-237 95l34 3z" />
    <glyph glyph-name="Idieresis" unicode="&#xcf;" horiz-adv-x="412" 
d="M-23 0l3 11q46 4 69 11t34 24.5t20 50.5l143 514q10 34 8.5 51.5t-20.5 24.5t-62 10l3 11q31 -1 69.5 -2t82.5 -1t85.5 1t76.5 2l-3 -11q-45 -4 -68 -11t-34 -23.5t-21 -51.5l-143 -514q-10 -34 -8 -51.5t21 -24t61 -10.5l-3 -11q-31 2 -70 2.5t-83 0.5q-46 0 -86.5 -0.5
t-74.5 -2.5zM235 770q-24 0 -41 17.5t-17 43.5q0 27 20.5 47t50.5 20q24 0 41 -17.5t17 -43.5q0 -27 -20.5 -47t-50.5 -20zM481 770q-24 0 -41 17.5t-17 43.5q0 27 20.5 47t50.5 20q24 0 41 -17.5t17 -43.5q0 -27 -20.5 -47t-50.5 -20z" />
    <glyph glyph-name="Eth" unicode="&#xd0;" horiz-adv-x="827" 
d="M29 348l3 11h474l-3 -11h-474zM-23 0l3 11q46 4 69 11t34 24t20 51l143 514q10 34 8.5 51.5t-20.5 24.5t-62 10l3 11q20 0 42 -0.5t47 -1t52 -0.5q26 0 51.5 0.5t47.5 1t36 0.5q163 0 252.5 -77t89.5 -216q0 -92 -36.5 -168t-104.5 -131.5t-161 -85.5t-205 -30
q-20 0 -44.5 1t-52.5 1.5t-58 0.5q-40 0 -79 -0.5t-75 -2.5zM291 11q84 0 153.5 30t120 85t78 130t27.5 165q0 135 -61 205.5t-180 70.5h-42l-168 -602q-14 -50 1 -67t71 -17z" />
    <glyph glyph-name="Ntilde" unicode="&#xd1;" horiz-adv-x="818" 
d="M583 -13l-308 669h-5l-152 -546q-10 -34 -7 -55t26.5 -31t76.5 -13l-3 -11q-21 1 -54.5 2t-69.5 1q-32 0 -61.5 -1t-48.5 -2l3 11q44 3 67.5 13.5t36.5 31.5t23 55l139 500q10 34 8.5 51.5t-20 25t-61.5 9.5l2 11q20 -1 51.5 -2t66.5 -1q51 0 86 3l250 -545h5l118 424
q11 39 9.5 62t-25 34t-78.5 14l2 11q21 -1 57 -2t70 -1q28 0 57.5 1t50.5 2l-3 -11q-42 -3 -66 -13.5t-37.5 -33t-23.5 -60.5l-169 -603h-13zM638 777q-39 0 -72 14.5t-64.5 29t-69.5 14.5q-34 0 -57.5 -15.5t-42.5 -49.5l-9 3q24 63 62 95.5t89 32.5q40 0 72.5 -15
t64.5 -29.5t69 -14.5q34 0 57.5 16t43.5 51l8 -3q-24 -64 -62 -96.5t-89 -32.5z" />
    <glyph glyph-name="Ograve" unicode="&#xd2;" horiz-adv-x="825" 
d="M379 -14q-88 0 -153.5 38t-101 106.5t-35.5 159.5q0 88 32.5 166t89.5 138t131.5 94t158.5 34q88 0 152.5 -37.5t100.5 -106t36 -160.5q0 -88 -32.5 -166t-89.5 -138t-131 -94t-158 -34zM375 -3q59 0 111.5 37t93.5 101t64 146.5t23 172.5q0 82 -19 139.5t-55 87.5
t-89 30q-58 0 -111 -37.5t-94 -102t-64.5 -147t-23.5 -172.5q0 -122 42.5 -188.5t121.5 -66.5zM568 788q-45 18 -77 27t-54.5 16t-38.5 18q-22 15 -27 34.5t5 35.5q12 17 32.5 19t43.5 -13q16 -11 30 -28.5t35 -42.5t56 -60z" />
    <glyph glyph-name="Oacute" unicode="&#xd3;" horiz-adv-x="825" 
d="M379 -14q-88 0 -153.5 38t-101 106.5t-35.5 159.5q0 88 32.5 166t89.5 138t131.5 94t158.5 34q88 0 152.5 -37.5t100.5 -106t36 -160.5q0 -88 -32.5 -166t-89.5 -138t-131 -94t-158 -34zM375 -3q59 0 111.5 37t93.5 101t64 146.5t23 172.5q0 82 -19 139.5t-55 87.5
t-89 30q-58 0 -111 -37.5t-94 -102t-64.5 -147t-23.5 -172.5q0 -122 42.5 -188.5t121.5 -66.5zM505 788l-4 7q55 35 88 61t55.5 44.5t44.5 29.5q25 11 45.5 6.5t28.5 -22.5q9 -18 1.5 -36t-32.5 -30q-22 -11 -51 -16.5t-71.5 -14.5t-104.5 -29z" />
    <glyph glyph-name="Ocircumflex" unicode="&#xd4;" horiz-adv-x="825" 
d="M379 -14q-88 0 -153.5 38t-101 106.5t-35.5 159.5q0 88 32.5 166t89.5 138t131.5 94t158.5 34q88 0 152.5 -37.5t100.5 -106t36 -160.5q0 -88 -32.5 -166t-89.5 -138t-131 -94t-158 -34zM375 -3q59 0 111.5 37t93.5 101t64 146.5t23 172.5q0 82 -19 139.5t-55 87.5
t-89 30q-58 0 -111 -37.5t-94 -102t-64.5 -147t-23.5 -172.5q0 -122 42.5 -188.5t121.5 -66.5zM335 774l-5 8l242 157h21l155 -156l-7 -9l-237 95l34 3z" />
    <glyph glyph-name="Otilde" unicode="&#xd5;" horiz-adv-x="825" 
d="M379 -14q-88 0 -153.5 38t-101 106.5t-35.5 159.5q0 88 32.5 166t89.5 138t131.5 94t158.5 34q88 0 152.5 -37.5t100.5 -106t36 -160.5q0 -88 -32.5 -166t-89.5 -138t-131 -94t-158 -34zM375 -3q59 0 111.5 37t93.5 101t64 146.5t23 172.5q0 82 -19 139.5t-55 87.5
t-89 30q-58 0 -111 -37.5t-94 -102t-64.5 -147t-23.5 -172.5q0 -122 42.5 -188.5t121.5 -66.5zM636 777q-39 0 -72 14.5t-64.5 29t-69.5 14.5q-34 0 -57.5 -15.5t-42.5 -49.5l-9 3q24 63 62 95.5t89 32.5q40 0 72.5 -15t64.5 -29.5t69 -14.5q34 0 57.5 16t43.5 51l8 -3
q-24 -64 -62 -96.5t-89 -32.5z" />
    <glyph glyph-name="Odieresis" unicode="&#xd6;" horiz-adv-x="825" 
d="M379 -14q-88 0 -153.5 38t-101 106.5t-35.5 159.5q0 88 32.5 166t89.5 138t131.5 94t158.5 34q88 0 152.5 -37.5t100.5 -106t36 -160.5q0 -88 -32.5 -166t-89.5 -138t-131 -94t-158 -34zM375 -3q59 0 111.5 37t93.5 101t64 146.5t23 172.5q0 82 -19 139.5t-55 87.5
t-89 30q-58 0 -111 -37.5t-94 -102t-64.5 -147t-23.5 -172.5q0 -122 42.5 -188.5t121.5 -66.5zM423 770q-24 0 -41 17.5t-17 43.5q0 27 20.5 47t50.5 20q24 0 41 -17.5t17 -43.5q0 -27 -20.5 -47t-50.5 -20zM669 770q-24 0 -41 17.5t-17 43.5q0 27 20.5 47t50.5 20
q24 0 41 -17.5t17 -43.5q0 -27 -20.5 -47t-50.5 -20z" />
    <glyph glyph-name="multiply" unicode="&#xd7;" horiz-adv-x="506" 
d="M47 166l-7 9l232 181l-130 181l10 8l130 -181l231 179l7 -9l-231 -180l129 -178l-10 -8l-129 178z" />
    <glyph glyph-name="Oslash" unicode="&#xd8;" horiz-adv-x="825" 
d="M212 112l-7 9l488 495l7 -9zM21 -65l-8 8l181 177l8 -8zM709 607l-7 9l164 160l8 -8zM379 -14q-88 0 -153.5 38t-101 106.5t-35.5 159.5q0 88 32.5 166t89.5 138t131.5 94t158.5 34q88 0 152.5 -37.5t100.5 -106t36 -160.5q0 -88 -32.5 -166t-89.5 -138t-131 -94
t-158 -34zM375 -3q59 0 111.5 37t93.5 101t64 146.5t23 172.5q0 82 -19 139.5t-55 87.5t-89 30q-58 0 -111 -37.5t-94 -102t-64.5 -147t-23.5 -172.5q0 -122 42.5 -188.5t121.5 -66.5z" />
    <glyph glyph-name="Ugrave" unicode="&#xd9;" horiz-adv-x="782" 
d="M362 -14q-94 0 -151 42.5t-73 120t13 185.5l77 277q10 35 8 52t-21 24t-61 10l3 11q27 -1 66 -2t86 -1q45 0 85 1t73 2l-3 -11q-43 -3 -65.5 -10t-33 -24t-20.5 -52l-75 -269q-45 -163 -11 -246.5t143 -83.5q87 0 147.5 57.5t92.5 170.5l102 367q10 36 7 54t-23 26
t-64 10l3 11q24 -1 51 -2t59 -1t58.5 1t45.5 2l-3 -11q-43 -3 -66 -10.5t-35 -25.5t-22 -54l-103 -371q-35 -126 -106.5 -188t-183.5 -62zM571 788q-45 18 -77 27t-54.5 16t-38.5 18q-22 15 -27 34.5t5 35.5q12 17 32.5 19t43.5 -13q16 -11 30 -28.5t35 -42.5t56 -60z" />
    <glyph glyph-name="Uacute" unicode="&#xda;" horiz-adv-x="782" 
d="M362 -14q-94 0 -151 42.5t-73 120t13 185.5l77 277q10 35 8 52t-21 24t-61 10l3 11q27 -1 66 -2t86 -1q45 0 85 1t73 2l-3 -11q-43 -3 -65.5 -10t-33 -24t-20.5 -52l-75 -269q-45 -163 -11 -246.5t143 -83.5q87 0 147.5 57.5t92.5 170.5l102 367q10 36 7 54t-23 26
t-64 10l3 11q24 -1 51 -2t59 -1t58.5 1t45.5 2l-3 -11q-43 -3 -66 -10.5t-35 -25.5t-22 -54l-103 -371q-35 -126 -106.5 -188t-183.5 -62zM508 788l-4 7q55 35 88 61t55.5 44.5t44.5 29.5q25 11 45.5 6.5t28.5 -22.5q9 -18 1.5 -36t-32.5 -30q-22 -11 -51 -16.5t-71.5 -14.5
t-104.5 -29z" />
    <glyph glyph-name="Ucircumflex" unicode="&#xdb;" horiz-adv-x="782" 
d="M362 -14q-94 0 -151 42.5t-73 120t13 185.5l77 277q10 35 8 52t-21 24t-61 10l3 11q27 -1 66 -2t86 -1q45 0 85 1t73 2l-3 -11q-43 -3 -65.5 -10t-33 -24t-20.5 -52l-75 -269q-45 -163 -11 -246.5t143 -83.5q87 0 147.5 57.5t92.5 170.5l102 367q10 36 7 54t-23 26
t-64 10l3 11q24 -1 51 -2t59 -1t58.5 1t45.5 2l-3 -11q-43 -3 -66 -10.5t-35 -25.5t-22 -54l-103 -371q-35 -126 -106.5 -188t-183.5 -62zM338 774l-5 8l242 157h21l155 -156l-7 -9l-237 95l34 3z" />
    <glyph glyph-name="Udieresis" unicode="&#xdc;" horiz-adv-x="782" 
d="M362 -14q-94 0 -151 42.5t-73 120t13 185.5l77 277q10 35 8 52t-21 24t-61 10l3 11q27 -1 66 -2t86 -1q45 0 85 1t73 2l-3 -11q-43 -3 -65.5 -10t-33 -24t-20.5 -52l-75 -269q-45 -163 -11 -246.5t143 -83.5q87 0 147.5 57.5t92.5 170.5l102 367q10 36 7 54t-23 26
t-64 10l3 11q24 -1 51 -2t59 -1t58.5 1t45.5 2l-3 -11q-43 -3 -66 -10.5t-35 -25.5t-22 -54l-103 -371q-35 -126 -106.5 -188t-183.5 -62zM427 770q-24 0 -41 17.5t-17 43.5q0 27 20.5 47t50.5 20q24 0 41 -17.5t17 -43.5q0 -27 -20.5 -47t-50.5 -20zM673 770
q-24 0 -41 17.5t-17 43.5q0 27 20.5 47t50.5 20q24 0 41 -17.5t17 -43.5q0 -27 -20.5 -47t-50.5 -20z" />
    <glyph glyph-name="Yacute" unicode="&#xdd;" horiz-adv-x="672" 
d="M134 0l3 11q46 4 68.5 12t33.5 25.5t20 49.5l23 85q25 90 30 177t-6.5 158.5t-38.5 114t-66 42.5q-20 0 -38 -15t-38 -52l-34 -62h-11l39 72q17 31 36 54t44.5 36.5t60.5 13.5q104 0 144.5 -121.5t10.5 -349.5l-8 -7q36 120 73 209.5t75 149t76.5 89.5t77.5 30
q25 0 40.5 -12.5t15.5 -34.5q0 -27 -19 -40t-49 -22t-66 -23t-70.5 -43.5t-62.5 -83.5q-14 -28 -29 -65.5t-28.5 -75t-22.5 -69.5l-43 -155q-9 -33 -6 -51.5t23.5 -26t63.5 -9.5l-3 -11q-25 1 -64.5 2t-92.5 1q-56 0 -97.5 -1t-64.5 -2zM453 788l-4 7q55 35 88 61t55.5 44.5
t44.5 29.5q25 11 45.5 6.5t28.5 -22.5q9 -18 1.5 -36t-32.5 -30q-22 -11 -51 -16.5t-71.5 -14.5t-104.5 -29z" />
    <glyph glyph-name="Thorn" unicode="&#xde;" horiz-adv-x="708" 
d="M-22 0l2 11q44 3 66.5 9.5t34 24t21.5 52.5l144 514q10 35 7.5 53t-21.5 25t-60 8l3 11q25 -1 63 -2t87 -1q61 0 110 1t84 2l-3 -11q-42 -1 -68.5 -5t-42.5 -12.5t-25.5 -25t-17.5 -43.5l-144 -514q-9 -34 -4.5 -51.5t30.5 -24.5t82 -10l-3 -11q-30 1 -79 2t-108 1
q-48 0 -89.5 -1t-68.5 -2zM349 145q-39 0 -75 5.5t-64 15.5l3 11q16 -7 45.5 -12t60.5 -5q73 0 125.5 26.5t81 75.5t28.5 116q0 84 -46 128.5t-132 44.5q-15 0 -30.5 -1t-30.5 -2l3 11q24 2 43.5 3t37.5 1q133 0 205 -48.5t72 -136.5q0 -69 -41.5 -121.5t-115 -82
t-170.5 -29.5z" />
    <glyph glyph-name="germandbls" unicode="&#xdf;" horiz-adv-x="684" 
d="M-125 -244q-38 0 -59 14t-21 40q0 21 14.5 34.5t36.5 13.5q19 0 33.5 -10t26.5 -23t23.5 -23.5t25.5 -10.5q12 0 21 7.5t17.5 26.5t17.5 52l165 630q23 87 55 148.5t85 94t138 32.5q56 0 91.5 -14.5t52.5 -38.5t17 -53q0 -33 -21 -61t-51.5 -53t-59.5 -50
q-26 -23 -36 -41.5t-10 -41.5q0 -29 15.5 -55t38.5 -51t46 -52.5t38.5 -58.5t15.5 -70q0 -47 -26.5 -82t-70 -54.5t-96.5 -19.5q-69 0 -114 32.5t-45 80.5q0 27 15 43t39 16q22 0 34.5 -13t15.5 -39q0 -11 -1 -27.5t0 -26.5q4 -29 17 -42t37 -13q41 0 67 29t26 78
q0 35 -13.5 63t-33 53t-39 48.5t-33 48.5t-13.5 54t14.5 49.5t37.5 40t50 45.5q24 21 39 44.5t22 49.5t7 55q0 57 -21 87t-57 30q-51 0 -85 -43t-60 -142l-135 -518q-25 -97 -69 -167t-102 -108t-123 -38z" />
    <glyph glyph-name="agrave" unicode="&#xe0;" horiz-adv-x="620" 
d="M196 -14q-71 0 -113 53t-42 142q0 67 24.5 129.5t66 112t94.5 78t111 28.5q53 0 95 -21.5t70 -61.5l-72 -48q-3 60 -26 90t-58 30q-37 0 -72 -28t-62.5 -75t-43.5 -107t-16 -124q0 -76 25.5 -116.5t72.5 -40.5q28 0 51.5 15.5t44.5 48.5l2 -7q-30 -49 -68 -73.5
t-84 -24.5zM433 -14q-58 0 -81 42.5t-3 113.5l86 310q42 13 80 34.5t61 47.5l7 -9q-10 -10 -17 -21t-13 -24t-11 -31l-93 -336q-12 -43 -4 -67.5t34 -24.5q17 0 32.5 10.5t29 28t24.5 39.5l21 37h11l-24 -44q-16 -30 -36.5 -54t-45.5 -38t-58 -14zM381 601q-37 41 -68 65.5
t-54.5 42.5t-38.5 38q-15 21 -14 40.5t18 31.5q18 14 37 9.5t35 -26.5q14 -18 24.5 -45.5t25.5 -65t41 -86.5z" />
    <glyph glyph-name="aacute" unicode="&#xe1;" horiz-adv-x="620" 
d="M196 -14q-71 0 -113 53t-42 142q0 67 24.5 129.5t66 112t94.5 78t111 28.5q53 0 95 -21.5t70 -61.5l-72 -48q-3 60 -26 90t-58 30q-37 0 -72 -28t-62.5 -75t-43.5 -107t-16 -124q0 -76 25.5 -116.5t72.5 -40.5q28 0 51.5 15.5t44.5 48.5l2 -7q-30 -49 -68 -73.5
t-84 -24.5zM433 -14q-58 0 -81 42.5t-3 113.5l86 310q42 13 80 34.5t61 47.5l7 -9q-10 -10 -17 -21t-13 -24t-11 -31l-93 -336q-12 -43 -4 -67.5t34 -24.5q17 0 32.5 10.5t29 28t24.5 39.5l21 37h11l-24 -44q-16 -30 -36.5 -54t-45.5 -38t-58 -14zM338 603l-5 5
q43 49 69.5 85.5t45.5 64.5t40 48q21 21 42.5 23t34.5 -13q13 -14 9 -33t-26 -40q-21 -19 -50.5 -36.5t-68.5 -41t-91 -62.5z" />
    <glyph glyph-name="acircumflex" unicode="&#xe2;" horiz-adv-x="620" 
d="M196 -14q-71 0 -113 53t-42 142q0 67 24.5 129.5t66 112t94.5 78t111 28.5q53 0 95 -21.5t70 -61.5l-72 -48q-3 60 -26 90t-58 30q-37 0 -72 -28t-62.5 -75t-43.5 -107t-16 -124q0 -76 25.5 -116.5t72.5 -40.5q28 0 51.5 15.5t44.5 48.5l2 -7q-30 -49 -68 -73.5
t-84 -24.5zM433 -14q-58 0 -81 42.5t-3 113.5l86 310q42 13 80 34.5t61 47.5l7 -9q-10 -10 -17 -21t-13 -24t-11 -31l-93 -336q-12 -43 -4 -67.5t34 -24.5q17 0 32.5 10.5t29 28t24.5 39.5l21 37h11l-24 -44q-16 -30 -36.5 -54t-45.5 -38t-58 -14zM207 605l-5 6l229 210h11
l113 -210l-8 -6l-179 140l32 -1z" />
    <glyph glyph-name="atilde" unicode="&#xe3;" horiz-adv-x="620" 
d="M196 -14q-71 0 -113 53t-42 142q0 67 24.5 129.5t66 112t94.5 78t111 28.5q53 0 95 -21.5t70 -61.5l-72 -48q-3 60 -26 90t-58 30q-37 0 -72 -28t-62.5 -75t-43.5 -107t-16 -124q0 -76 25.5 -116.5t72.5 -40.5q28 0 51.5 15.5t44.5 48.5l2 -7q-30 -49 -68 -73.5
t-84 -24.5zM433 -14q-58 0 -81 42.5t-3 113.5l86 310q42 13 80 34.5t61 47.5l7 -9q-10 -10 -17 -21t-13 -24t-11 -31l-93 -336q-12 -43 -4 -67.5t34 -24.5q17 0 32.5 10.5t29 28t24.5 39.5l21 37h11l-24 -44q-16 -30 -36.5 -54t-45.5 -38t-58 -14zM189 638l-8 3
q26 70 62 101.5t83 31.5q41 0 72 -15.5t61 -31t65 -15.5q31 0 53.5 14t40.5 49l7 -3q-25 -69 -62 -101t-85 -32q-30 0 -54.5 9.5t-47 22t-44.5 22t-48 9.5q-31 0 -54 -14.5t-41 -49.5z" />
    <glyph glyph-name="adieresis" unicode="&#xe4;" horiz-adv-x="620" 
d="M196 -14q-71 0 -113 53t-42 142q0 67 24.5 129.5t66 112t94.5 78t111 28.5q53 0 95 -21.5t70 -61.5l-72 -48q-3 60 -26 90t-58 30q-37 0 -72 -28t-62.5 -75t-43.5 -107t-16 -124q0 -76 25.5 -116.5t72.5 -40.5q28 0 51.5 15.5t44.5 48.5l2 -7q-30 -49 -68 -73.5
t-84 -24.5zM433 -14q-58 0 -81 42.5t-3 113.5l86 310q42 13 80 34.5t61 47.5l7 -9q-10 -10 -17 -21t-13 -24t-11 -31l-93 -336q-12 -43 -4 -67.5t34 -24.5q17 0 32.5 10.5t29 28t24.5 39.5l21 37h11l-24 -44q-16 -30 -36.5 -54t-45.5 -38t-58 -14zM518 638q-26 0 -44 17.5
t-18 43.5q0 27 18.5 45t44.5 18q27 0 44.5 -17.5t17.5 -43.5t-18 -44.5t-45 -18.5zM281 638q-26 0 -44 17.5t-18 43.5q0 27 18.5 45t44.5 18q27 0 44.5 -17.5t17.5 -43.5t-18 -44.5t-45 -18.5z" />
    <glyph glyph-name="aring" unicode="&#xe5;" horiz-adv-x="620" 
d="M196 -14q-71 0 -113 53t-42 142q0 67 24.5 129.5t66 112t94.5 78t111 28.5q53 0 95 -21.5t70 -61.5l-72 -48q-3 60 -26 90t-58 30q-37 0 -72 -28t-62.5 -75t-43.5 -107t-16 -124q0 -76 25.5 -116.5t72.5 -40.5q28 0 51.5 15.5t44.5 48.5l2 -7q-30 -49 -68 -73.5
t-84 -24.5zM433 -14q-58 0 -81 42.5t-3 113.5l86 310q42 13 80 34.5t61 47.5l7 -9q-10 -10 -17 -21t-13 -24t-11 -31l-93 -336q-12 -43 -4 -67.5t34 -24.5q17 0 32.5 10.5t29 28t24.5 39.5l21 37h11l-24 -44q-16 -30 -36.5 -54t-45.5 -38t-58 -14zM390 602q-42 0 -69.5 24
t-27.5 64q0 30 16 54.5t43.5 38.5t60.5 14q43 0 70.5 -24t27.5 -63q0 -31 -16 -55.5t-43.5 -38.5t-61.5 -14zM391 608q31 0 56.5 13.5t40.5 36.5t15 51q0 37 -25.5 59.5t-64.5 22.5q-47 0 -79.5 -29.5t-32.5 -71.5q0 -37 25.5 -59.5t64.5 -22.5z" />
    <glyph glyph-name="ae" unicode="&#xe6;" horiz-adv-x="771" 
d="M195 -14q-70 0 -112 53t-42 141q0 68 24 130.5t66 112t95 78t110 28.5q43 0 79 -15t64 -44l-56 -43q-7 45 -27.5 68t-49.5 23q-38 0 -72.5 -28t-62 -75t-43.5 -107t-16 -124q0 -76 25.5 -116.5t72.5 -40.5q27 0 51 16t46 50l1 -7q-30 -50 -68.5 -75t-84.5 -25zM474 -14
q-84 0 -129.5 51t-45.5 144q0 70 25.5 132.5t69 111t100 76.5t119.5 28q55 0 85 -23t30 -66q0 -48 -40.5 -94t-113.5 -82.5t-171 -57.5v9q75 21 126.5 55t78.5 78.5t27 96.5q0 35 -12 53.5t-35 18.5q-31 0 -62.5 -30t-57.5 -79.5t-42 -108t-16 -115.5q0 -80 29.5 -120.5
t84.5 -40.5q46 0 84.5 28.5t68.5 89.5h11q-35 -76 -89.5 -115.5t-124.5 -39.5z" />
    <glyph glyph-name="ccedilla" unicode="&#xe7;" horiz-adv-x="515" 
d="M217 -14q-82 0 -128.5 52.5t-46.5 144.5q0 69 24.5 131.5t67.5 110.5t99 76t116 28q61 0 96.5 -26t35.5 -71q0 -27 -13.5 -50.5t-35 -38t-46.5 -14.5q-21 0 -33.5 10.5t-12.5 28.5q0 19 12 34t27 28t26.5 26t11.5 30q0 29 -43 29t-82.5 -27t-71 -74t-49.5 -106.5
t-18 -122.5q0 -79 29.5 -120.5t84.5 -41.5q46 0 84 29t68 89h10q-35 -76 -89 -115.5t-123 -39.5zM120 -245q-25 0 -48 3.5t-39 9.5l1 7q11 -3 26 -5t34 -2q50 0 82.5 21t32.5 56q0 21 -14.5 33.5t-41.5 12.5q-6 0 -13 -0.5t-12 -1.5l70 102h8l-58 -87q9 3 24 5.5t35 2.5
q42 0 65.5 -17t23.5 -47q0 -41 -49.5 -67t-126.5 -26z" />
    <glyph glyph-name="egrave" unicode="&#xe8;" horiz-adv-x="514" 
d="M216 -14q-83 0 -129 51t-46 145q0 69 25.5 131.5t69 111t100 76.5t119.5 28q56 0 86 -23t30 -66q0 -49 -40.5 -94.5t-113.5 -82t-171 -57.5v9q74 21 126 55t79 78.5t27 96.5q0 36 -12 54t-35 18q-31 0 -62.5 -30t-57.5 -79.5t-42 -107.5t-16 -116q0 -79 29 -120t84 -41
q47 0 85.5 28.5t68.5 89.5h11q-35 -76 -90 -115.5t-125 -39.5zM352 601q-37 41 -68 65.5t-54.5 42.5t-38.5 38q-15 21 -14 40.5t18 31.5q18 14 37 9.5t35 -26.5q14 -18 24.5 -45.5t25.5 -65t41 -86.5z" />
    <glyph glyph-name="eacute" unicode="&#xe9;" horiz-adv-x="514" 
d="M216 -14q-83 0 -129 51t-46 145q0 69 25.5 131.5t69 111t100 76.5t119.5 28q56 0 86 -23t30 -66q0 -49 -40.5 -94.5t-113.5 -82t-171 -57.5v9q74 21 126 55t79 78.5t27 96.5q0 36 -12 54t-35 18q-31 0 -62.5 -30t-57.5 -79.5t-42 -107.5t-16 -116q0 -79 29 -120t84 -41
q47 0 85.5 28.5t68.5 89.5h11q-35 -76 -90 -115.5t-125 -39.5zM308 603l-5 5q43 49 69.5 85.5t45.5 64.5t40 48q21 21 42.5 23t34.5 -13q13 -14 9 -33t-26 -40q-21 -19 -50.5 -36.5t-68.5 -41t-91 -62.5z" />
    <glyph glyph-name="ecircumflex" unicode="&#xea;" horiz-adv-x="514" 
d="M216 -14q-83 0 -129 51t-46 145q0 69 25.5 131.5t69 111t100 76.5t119.5 28q56 0 86 -23t30 -66q0 -49 -40.5 -94.5t-113.5 -82t-171 -57.5v9q74 21 126 55t79 78.5t27 96.5q0 36 -12 54t-35 18q-31 0 -62.5 -30t-57.5 -79.5t-42 -107.5t-16 -116q0 -79 29 -120t84 -41
q47 0 85.5 28.5t68.5 89.5h11q-35 -76 -90 -115.5t-125 -39.5zM177 605l-5 6l229 210h11l113 -210l-8 -6l-179 140l32 -1z" />
    <glyph glyph-name="edieresis" unicode="&#xeb;" horiz-adv-x="514" 
d="M216 -14q-83 0 -129 51t-46 145q0 69 25.5 131.5t69 111t100 76.5t119.5 28q56 0 86 -23t30 -66q0 -49 -40.5 -94.5t-113.5 -82t-171 -57.5v9q74 21 126 55t79 78.5t27 96.5q0 36 -12 54t-35 18q-31 0 -62.5 -30t-57.5 -79.5t-42 -107.5t-16 -116q0 -79 29 -120t84 -41
q47 0 85.5 28.5t68.5 89.5h11q-35 -76 -90 -115.5t-125 -39.5zM489 638q-26 0 -44 17.5t-18 43.5q0 27 18.5 45t44.5 18q27 0 44.5 -17.5t17.5 -43.5t-18 -44.5t-45 -18.5zM252 638q-26 0 -44 17.5t-18 43.5q0 27 18.5 45t44.5 18q27 0 44.5 -17.5t17.5 -43.5t-18 -44.5
t-45 -18.5z" />
    <glyph glyph-name="igrave" unicode="&#xec;" horiz-adv-x="372" 
d="M178 -14q-40 0 -64 20.5t-29.5 56.5t10.5 82l82 254q15 43 7.5 69t-34.5 26q-22 0 -44.5 -19.5t-43.5 -58.5l-20 -37h-11l23 42q31 57 64 82.5t76 25.5q40 0 64 -20t29.5 -56t-10.5 -83l-82 -254q-15 -43 -7.5 -69t34.5 -26q46 0 88 78l20 37h11l-23 -42
q-31 -57 -63.5 -82.5t-76.5 -25.5zM262 601q-37 41 -68 65.5t-54.5 42.5t-38.5 38q-15 21 -14 40.5t18 31.5q18 14 37 9.5t35 -26.5q14 -18 24.5 -45.5t25.5 -65t41 -86.5z" />
    <glyph glyph-name="iacute" unicode="&#xed;" horiz-adv-x="372" 
d="M178 -14q-40 0 -64 20.5t-29.5 56.5t10.5 82l82 254q15 43 7.5 69t-34.5 26q-22 0 -44.5 -19.5t-43.5 -58.5l-20 -37h-11l23 42q31 57 64 82.5t76 25.5q40 0 64 -20t29.5 -56t-10.5 -83l-82 -254q-15 -43 -7.5 -69t34.5 -26q46 0 88 78l20 37h11l-23 -42
q-31 -57 -63.5 -82.5t-76.5 -25.5zM218 603l-5 5q43 49 69.5 85.5t45.5 64.5t40 48q21 21 42.5 23t34.5 -13q13 -14 9 -33t-26 -40q-21 -19 -50.5 -36.5t-68.5 -41t-91 -62.5z" />
    <glyph glyph-name="icircumflex" unicode="&#xee;" horiz-adv-x="372" 
d="M178 -14q-40 0 -64 20.5t-29.5 56.5t10.5 82l82 254q15 43 7.5 69t-34.5 26q-22 0 -44.5 -19.5t-43.5 -58.5l-20 -37h-11l23 42q31 57 64 82.5t76 25.5q40 0 64 -20t29.5 -56t-10.5 -83l-82 -254q-15 -43 -7.5 -69t34.5 -26q46 0 88 78l20 37h11l-23 -42
q-31 -57 -63.5 -82.5t-76.5 -25.5zM87 605l-5 6l229 210h11l113 -210l-8 -6l-179 140l32 -1z" />
    <glyph glyph-name="idieresis" unicode="&#xef;" horiz-adv-x="372" 
d="M178 -14q-40 0 -64 20.5t-29.5 56.5t10.5 82l82 254q15 43 7.5 69t-34.5 26q-22 0 -44.5 -19.5t-43.5 -58.5l-20 -37h-11l23 42q31 57 64 82.5t76 25.5q40 0 64 -20t29.5 -56t-10.5 -83l-82 -254q-15 -43 -7.5 -69t34.5 -26q46 0 88 78l20 37h11l-23 -42
q-31 -57 -63.5 -82.5t-76.5 -25.5zM399 638q-26 0 -44 17.5t-18 43.5q0 27 18.5 45t44.5 18q27 0 44.5 -17.5t17.5 -43.5t-18 -44.5t-45 -18.5zM162 638q-26 0 -44 17.5t-18 43.5q0 27 18.5 45t44.5 18q27 0 44.5 -17.5t17.5 -43.5t-18 -44.5t-45 -18.5z" />
    <glyph glyph-name="eth" unicode="&#xf0;" horiz-adv-x="565" 
d="M223 -14q-86 0 -135 54.5t-49 151.5q0 68 23 128t62.5 105.5t91 72t110.5 26.5q28 0 51.5 -6.5t39.5 -20.5v-9q-13 11 -28 15t-36 4q-44 0 -81 -27t-65 -75.5t-43.5 -112.5t-15.5 -137q0 -78 20 -118t58 -40q36 0 70 30t61 81t43 115.5t16 133.5q0 134 -68 241.5
t-200 173.5l4 9q182 -73 277 -185t95 -251q0 -75 -23.5 -140t-65 -114.5t-95.5 -77t-117 -27.5zM113 576l-3 9l204 83l7 -8zM331 665l-7 8l212 85l3 -10z" />
    <glyph glyph-name="ntilde" unicode="&#xf1;" horiz-adv-x="672" 
d="M486 -14q-39 0 -63 19t-29.5 54.5t7.5 82.5l55 197q22 76 6.5 115.5t-66.5 39.5q-38 0 -70 -23t-59 -70l-2 7q34 60 80 90.5t101 30.5q77 0 108.5 -56t5.5 -149l-59 -211q-12 -44 -4 -68t33 -24q23 0 44.5 19.5t43.5 58.5l20 37h11l-23 -42q-17 -31 -37 -55.5
t-45.5 -38.5t-57.5 -14zM59 0l112 402q12 43 4.5 67.5t-33.5 24.5q-22 0 -44 -19.5t-43 -58.5l-20 -37h-11l23 42q17 31 37 55.5t45.5 38.5t57.5 14q39 0 62.5 -19t29.5 -54.5t-7 -82.5l-105 -373h-108zM215 638l-8 3q26 70 62 101.5t83 31.5q41 0 72 -15.5t61 -31t65 -15.5
q31 0 53.5 14t40.5 49l7 -3q-25 -69 -62 -101t-85 -32q-30 0 -54.5 9.5t-47 22t-44.5 22t-48 9.5q-31 0 -54 -14.5t-41 -49.5z" />
    <glyph glyph-name="ograve" unicode="&#xf2;" horiz-adv-x="571" 
d="M226 -14q-87 0 -135 53.5t-48 147.5q0 70 24 131.5t66 109t96.5 74.5t115.5 27q86 0 134.5 -53.5t48.5 -148.5q0 -69 -24 -130.5t-66 -108.5t-96.5 -74.5t-115.5 -27.5zM227 -3q28 0 56.5 20.5t52.5 57t43 83.5t29.5 101t10.5 108q0 74 -18.5 112.5t-54.5 38.5
q-29 0 -57.5 -21t-53 -57t-43.5 -83t-29.5 -100.5t-10.5 -108.5q0 -74 19 -112.5t56 -38.5zM376 601q-37 41 -68 65.5t-54.5 42.5t-38.5 38q-15 21 -14 40.5t18 31.5q18 14 37 9.5t35 -26.5q14 -18 24.5 -45.5t25.5 -65t41 -86.5z" />
    <glyph glyph-name="oacute" unicode="&#xf3;" horiz-adv-x="571" 
d="M226 -14q-87 0 -135 53.5t-48 147.5q0 70 24 131.5t66 109t96.5 74.5t115.5 27q86 0 134.5 -53.5t48.5 -148.5q0 -69 -24 -130.5t-66 -108.5t-96.5 -74.5t-115.5 -27.5zM227 -3q28 0 56.5 20.5t52.5 57t43 83.5t29.5 101t10.5 108q0 74 -18.5 112.5t-54.5 38.5
q-29 0 -57.5 -21t-53 -57t-43.5 -83t-29.5 -100.5t-10.5 -108.5q0 -74 19 -112.5t56 -38.5zM333 603l-5 5q43 49 69.5 85.5t45.5 64.5t40 48q21 21 42.5 23t34.5 -13q13 -14 9 -33t-26 -40q-21 -19 -50.5 -36.5t-68.5 -41t-91 -62.5z" />
    <glyph glyph-name="ocircumflex" unicode="&#xf4;" horiz-adv-x="571" 
d="M226 -14q-87 0 -135 53.5t-48 147.5q0 70 24 131.5t66 109t96.5 74.5t115.5 27q86 0 134.5 -53.5t48.5 -148.5q0 -69 -24 -130.5t-66 -108.5t-96.5 -74.5t-115.5 -27.5zM227 -3q28 0 56.5 20.5t52.5 57t43 83.5t29.5 101t10.5 108q0 74 -18.5 112.5t-54.5 38.5
q-29 0 -57.5 -21t-53 -57t-43.5 -83t-29.5 -100.5t-10.5 -108.5q0 -74 19 -112.5t56 -38.5zM202 605l-5 6l229 210h11l113 -210l-8 -6l-179 140l32 -1z" />
    <glyph glyph-name="otilde" unicode="&#xf5;" horiz-adv-x="571" 
d="M226 -14q-87 0 -135 53.5t-48 147.5q0 70 24 131.5t66 109t96.5 74.5t115.5 27q86 0 134.5 -53.5t48.5 -148.5q0 -69 -24 -130.5t-66 -108.5t-96.5 -74.5t-115.5 -27.5zM227 -3q28 0 56.5 20.5t52.5 57t43 83.5t29.5 101t10.5 108q0 74 -18.5 112.5t-54.5 38.5
q-29 0 -57.5 -21t-53 -57t-43.5 -83t-29.5 -100.5t-10.5 -108.5q0 -74 19 -112.5t56 -38.5zM184 638l-8 3q26 70 62 101.5t83 31.5q41 0 72 -15.5t61 -31t65 -15.5q31 0 53.5 14t40.5 49l7 -3q-25 -69 -62 -101t-85 -32q-30 0 -54.5 9.5t-47 22t-44.5 22t-48 9.5
q-31 0 -54 -14.5t-41 -49.5z" />
    <glyph glyph-name="odieresis" unicode="&#xf6;" horiz-adv-x="571" 
d="M226 -14q-87 0 -135 53.5t-48 147.5q0 70 24 131.5t66 109t96.5 74.5t115.5 27q86 0 134.5 -53.5t48.5 -148.5q0 -69 -24 -130.5t-66 -108.5t-96.5 -74.5t-115.5 -27.5zM227 -3q28 0 56.5 20.5t52.5 57t43 83.5t29.5 101t10.5 108q0 74 -18.5 112.5t-54.5 38.5
q-29 0 -57.5 -21t-53 -57t-43.5 -83t-29.5 -100.5t-10.5 -108.5q0 -74 19 -112.5t56 -38.5zM513 638q-26 0 -44 17.5t-18 43.5q0 27 18.5 45t44.5 18q27 0 44.5 -17.5t17.5 -43.5t-18 -44.5t-45 -18.5zM276 638q-26 0 -44 17.5t-18 43.5q0 27 18.5 45t44.5 18
q27 0 44.5 -17.5t17.5 -43.5t-18 -44.5t-45 -18.5z" />
    <glyph glyph-name="divide" unicode="&#xf7;" horiz-adv-x="644" 
d="M379 458q-24 0 -41 17.5t-17 42.5q0 27 20.5 46.5t49.5 19.5q24 0 40.5 -17t16.5 -43t-20 -46t-49 -20zM286 126q-24 0 -40.5 17t-16.5 42q0 28 20 47.5t49 19.5q24 0 40.5 -17.5t16.5 -42.5q0 -27 -20 -46.5t-49 -19.5zM97 348l3 13h501l-3 -13h-501z" />
    <glyph glyph-name="oslash" unicode="&#xf8;" horiz-adv-x="571" 
d="M140 62l-6 7l307 389l6 -6zM14 -71l-8 7l118 136l7 -9zM457 449l-7 8l115 134l8 -8zM226 -14q-87 0 -135 53.5t-48 147.5q0 70 24 131.5t66 109t96.5 74.5t115.5 27q86 0 134.5 -53.5t48.5 -148.5q0 -69 -24 -130.5t-66 -108.5t-96.5 -74.5t-115.5 -27.5zM227 -3
q28 0 56 20.5t52.5 57t43.5 83.5t29.5 101t10.5 108q0 74 -18.5 112.5t-54.5 38.5q-29 0 -57.5 -20.5t-53 -57t-43 -83.5t-29.5 -100.5t-11 -108.5q0 -74 19 -112.5t56 -38.5z" />
    <glyph glyph-name="ugrave" unicode="&#xf9;" horiz-adv-x="663" 
d="M226 -14q-51 0 -82.5 26t-40 72t8.5 107l59 211q13 44 5 68t-34 24q-22 0 -44 -19.5t-43 -58.5l-20 -37h-11l22 42q18 31 38 55.5t45.5 38.5t57.5 14q40 0 63 -19.5t29 -54.5t-7 -82l-56 -197q-21 -76 -5.5 -115.5t64.5 -39.5q37 0 66.5 23t55.5 70l1 -7
q-32 -60 -75.5 -90.5t-96.5 -30.5zM476 -14q-40 0 -63 19.5t-29 54.5t7 82l105 373h108l-112 -402q-12 -42 -4.5 -67t33.5 -25q22 0 44 19t43 59l20 37h11l-23 -42q-16 -31 -36.5 -55.5t-45.5 -38.5t-58 -14zM396 601q-37 41 -68 65.5t-54.5 42.5t-38.5 38q-15 21 -14 40.5
t18 31.5q18 14 37 9.5t35 -26.5q14 -18 24.5 -45.5t25.5 -65t41 -86.5z" />
    <glyph glyph-name="uacute" unicode="&#xfa;" horiz-adv-x="663" 
d="M226 -14q-51 0 -82.5 26t-40 72t8.5 107l59 211q13 44 5 68t-34 24q-22 0 -44 -19.5t-43 -58.5l-20 -37h-11l22 42q18 31 38 55.5t45.5 38.5t57.5 14q40 0 63 -19.5t29 -54.5t-7 -82l-56 -197q-21 -76 -5.5 -115.5t64.5 -39.5q37 0 66.5 23t55.5 70l1 -7
q-32 -60 -75.5 -90.5t-96.5 -30.5zM476 -14q-40 0 -63 19.5t-29 54.5t7 82l105 373h108l-112 -402q-12 -42 -4.5 -67t33.5 -25q22 0 44 19t43 59l20 37h11l-23 -42q-16 -31 -36.5 -55.5t-45.5 -38.5t-58 -14zM353 603l-5 5q43 49 69.5 85.5t45.5 64.5t40 48q21 21 42.5 23
t34.5 -13q13 -14 9 -33t-26 -40q-21 -19 -50.5 -36.5t-68.5 -41t-91 -62.5z" />
    <glyph glyph-name="ucircumflex" unicode="&#xfb;" horiz-adv-x="663" 
d="M226 -14q-51 0 -82.5 26t-40 72t8.5 107l59 211q13 44 5 68t-34 24q-22 0 -44 -19.5t-43 -58.5l-20 -37h-11l22 42q18 31 38 55.5t45.5 38.5t57.5 14q40 0 63 -19.5t29 -54.5t-7 -82l-56 -197q-21 -76 -5.5 -115.5t64.5 -39.5q37 0 66.5 23t55.5 70l1 -7
q-32 -60 -75.5 -90.5t-96.5 -30.5zM476 -14q-40 0 -63 19.5t-29 54.5t7 82l105 373h108l-112 -402q-12 -42 -4.5 -67t33.5 -25q22 0 44 19t43 59l20 37h11l-23 -42q-16 -31 -36.5 -55.5t-45.5 -38.5t-58 -14zM221 605l-5 6l229 210h11l113 -210l-8 -6l-179 140l32 -1z" />
    <glyph glyph-name="udieresis" unicode="&#xfc;" horiz-adv-x="663" 
d="M226 -14q-51 0 -82.5 26t-40 72t8.5 107l59 211q13 44 5 68t-34 24q-22 0 -44 -19.5t-43 -58.5l-20 -37h-11l22 42q18 31 38 55.5t45.5 38.5t57.5 14q40 0 63 -19.5t29 -54.5t-7 -82l-56 -197q-21 -76 -5.5 -115.5t64.5 -39.5q37 0 66.5 23t55.5 70l1 -7
q-32 -60 -75.5 -90.5t-96.5 -30.5zM476 -14q-40 0 -63 19.5t-29 54.5t7 82l105 373h108l-112 -402q-12 -42 -4.5 -67t33.5 -25q22 0 44 19t43 59l20 37h11l-23 -42q-16 -31 -36.5 -55.5t-45.5 -38.5t-58 -14zM533 638q-26 0 -44 17.5t-18 43.5q0 27 18.5 45t44.5 18
q27 0 44.5 -17.5t17.5 -43.5t-18 -44.5t-45 -18.5zM296 638q-26 0 -44 17.5t-18 43.5q0 27 18.5 45t44.5 18q27 0 44.5 -17.5t17.5 -43.5t-18 -44.5t-45 -18.5z" />
    <glyph glyph-name="yacute" unicode="&#xfd;" horiz-adv-x="587" 
d="M-22 -239q-34 0 -54.5 14.5t-20.5 38.5q0 22 16 35t40 13q18 0 34.5 -5.5t32 -13t31.5 -13t32 -5.5q32 0 74.5 27.5t89 73t92 101t81.5 113t58 108.5t22 86q0 28 -13 46.5t-30.5 33.5t-30.5 30t-13 36t15 35t40 14q33 0 51 -26t18 -74q0 -60 -26.5 -132.5t-73 -147.5
t-105 -144.5t-122 -124.5t-125 -87t-113.5 -32zM214 -117q9 85 8.5 171t-8 164t-20.5 138.5t-31 95.5t-39 35q-15 0 -30 -15.5t-37 -56.5l-19 -36h-11l25 47q28 54 57 78.5t64 24.5q52 0 85.5 -59t49.5 -178.5t13 -301.5q-15 -18 -31 -35.5t-34.5 -35t-41.5 -36.5zM313 603
l-5 5q43 49 69.5 85.5t45.5 64.5t40 48q21 21 42.5 23t34.5 -13q13 -14 9 -33t-26 -40q-21 -19 -50.5 -36.5t-68.5 -41t-91 -62.5z" />
    <glyph glyph-name="thorn" unicode="&#xfe;" horiz-adv-x="588" 
d="M-115 -231l3 11q34 3 52.5 12t29 26t17.5 43l219 786q11 37 8 58t-22.5 29.5t-57.5 8.5l3 11q69 1 122.5 11t96.5 30l-258 -925q-9 -30 -4.5 -49t28 -28t71.5 -13l-3 -11q-17 1 -43 1.5t-55.5 1.5t-58.5 1q-42 0 -82 -1.5t-66 -2.5zM272 -14q-44 0 -78 20.5t-49 56.5l4 9
q13 -26 34.5 -39.5t50.5 -13.5q40 0 76 25t64 69t44.5 100.5t16.5 117.5q0 77 -25.5 117.5t-73.5 40.5q-26 0 -49 -15t-41 -45l-1 9q30 45 66.5 68t79.5 23q71 0 113 -53.5t42 -142.5q0 -67 -22.5 -129t-61.5 -111.5t-88 -78t-102 -28.5z" />
    <glyph glyph-name="ydieresis" unicode="&#xff;" horiz-adv-x="587" 
d="M-22 -239q-34 0 -54.5 14.5t-20.5 38.5q0 22 16 35t40 13q18 0 34.5 -5.5t32 -13t31.5 -13t32 -5.5q32 0 74.5 27.5t89 73t92 101t81.5 113t58 108.5t22 86q0 28 -13 46.5t-30.5 33.5t-30.5 30t-13 36t15 35t40 14q33 0 51 -26t18 -74q0 -60 -26.5 -132.5t-73 -147.5
t-105 -144.5t-122 -124.5t-125 -87t-113.5 -32zM214 -117q9 85 8.5 171t-8 164t-20.5 138.5t-31 95.5t-39 35q-15 0 -30 -15.5t-37 -56.5l-19 -36h-11l25 47q28 54 57 78.5t64 24.5q52 0 85.5 -59t49.5 -178.5t13 -301.5q-15 -18 -31 -35.5t-34.5 -35t-41.5 -36.5zM493 638
q-26 0 -44 17.5t-18 43.5q0 27 18.5 45t44.5 18q27 0 44.5 -17.5t17.5 -43.5t-18 -44.5t-45 -18.5zM256 638q-26 0 -44 17.5t-18 43.5q0 27 18.5 45t44.5 18q27 0 44.5 -17.5t17.5 -43.5t-18 -44.5t-45 -18.5z" />
    <glyph glyph-name="Amacron" unicode="&#x100;" horiz-adv-x="744" 
d="M-77 0l2 11q31 5 56 18.5t50.5 40t55.5 69.5l414 582h10l101 -637q5 -26 13.5 -41.5t26 -22.5t45.5 -9l-3 -11q-26 1 -64.5 2t-81.5 1q-54 0 -96.5 -1t-66.5 -2l3 11q48 2 72.5 10t32 25.5t1.5 49.5l-77 495l14 15l-295 -417q-40 -57 -50 -95.5t11.5 -58.5t75.5 -24
l-2 -11q-31 2 -67.5 2.5t-72.5 0.5q-26 0 -52.5 -0.5t-55.5 -2.5zM183 263l7 11h326l1 -11h-334zM327 828l2 12h400l-3 -12h-399z" />
    <glyph glyph-name="amacron" unicode="&#x101;" horiz-adv-x="620" 
d="M196 -14q-71 0 -113 53t-42 142q0 67 24.5 129.5t66 112t94.5 78t111 28.5q53 0 95 -21.5t70 -61.5l-72 -48q-3 60 -26 90t-58 30q-37 0 -72 -28t-62.5 -75t-43.5 -107t-16 -124q0 -76 25.5 -116.5t72.5 -40.5q28 0 51.5 15.5t44.5 48.5l2 -7q-30 -49 -68 -73.5
t-84 -24.5zM433 -14q-58 0 -81 42.5t-3 113.5l86 310q42 13 80 34.5t61 47.5l7 -9q-10 -10 -17 -21t-13 -24t-11 -31l-93 -336q-12 -43 -4 -67.5t34 -24.5q17 0 32.5 10.5t29 28t24.5 39.5l21 37h11l-24 -44q-16 -30 -36.5 -54t-45.5 -38t-58 -14zM223 694l3 11h352l-3 -11
h-352z" />
    <glyph glyph-name="Abreve" unicode="&#x102;" horiz-adv-x="744" 
d="M-77 0l2 11q31 5 56 18.5t50.5 40t55.5 69.5l414 582h10l101 -637q5 -26 13.5 -41.5t26 -22.5t45.5 -9l-3 -11q-26 1 -64.5 2t-81.5 1q-54 0 -96.5 -1t-66.5 -2l3 11q48 2 72.5 10t32 25.5t1.5 49.5l-77 495l14 15l-295 -417q-40 -57 -50 -95.5t11.5 -58.5t75.5 -24
l-2 -11q-31 2 -67.5 2.5t-72.5 0.5q-26 0 -52.5 -0.5t-55.5 -2.5zM183 263l7 11h326l1 -11h-334zM520 777q-75 0 -125 34.5t-75 103.5l7 6q35 -34 87.5 -51.5t121.5 -17.5q70 0 131 17.5t100 50.5l7 -6q-45 -67 -111 -102t-143 -35z" />
    <glyph glyph-name="abreve" unicode="&#x103;" horiz-adv-x="620" 
d="M196 -14q-71 0 -113 53t-42 142q0 67 24.5 129.5t66 112t94.5 78t111 28.5q53 0 95 -21.5t70 -61.5l-72 -48q-3 60 -26 90t-58 30q-37 0 -72 -28t-62.5 -75t-43.5 -107t-16 -124q0 -76 25.5 -116.5t72.5 -40.5q28 0 51.5 15.5t44.5 48.5l2 -7q-30 -49 -68 -73.5
t-84 -24.5zM433 -14q-58 0 -81 42.5t-3 113.5l86 310q42 13 80 34.5t61 47.5l7 -9q-10 -10 -17 -21t-13 -24t-11 -31l-93 -336q-12 -43 -4 -67.5t34 -24.5q17 0 32.5 10.5t29 28t24.5 39.5l21 37h11l-24 -44q-16 -30 -36.5 -54t-45.5 -38t-58 -14zM378 611q-70 0 -107.5 43
t-33.5 127l8 2q17 -53 54.5 -75.5t96.5 -22.5t107.5 20.5t94.5 75.5l7 -4q-38 -79 -97.5 -122.5t-129.5 -43.5z" />
    <glyph glyph-name="Aogonek" unicode="&#x104;" horiz-adv-x="744" 
d="M416 -245q-40 0 -60 15.5t-20 41.5q0 23 15.5 41.5t43 39t63.5 45.5q25 19 36 34.5t11 39t-6 63.5l-82 516l14 15l-295 -417q-40 -57 -50 -95.5t11.5 -58.5t75.5 -24l-2 -11q-31 2 -67.5 2.5t-72.5 0.5q-26 0 -52.5 -0.5t-55.5 -2.5l2 11q31 5 56 18.5t50.5 40t55.5 69.5
l414 582h10l101 -637q5 -25 13.5 -40.5t26 -23t45.5 -9.5l-3 -11q-79 0 -139 -19.5t-93.5 -53.5t-33.5 -78q0 -52 52 -52q20 0 39 7.5t37 22.5l4 -8q-67 -64 -144 -64zM181 263l7 11h328l1 -11h-336z" />
    <glyph glyph-name="aogonek" unicode="&#x105;" horiz-adv-x="620" 
d="M196 -14q-71 0 -113 53t-42 142q0 67 24.5 129.5t66 112t94.5 78t111 28.5q53 0 95 -21.5t70 -61.5l-72 -48q-3 60 -26 90t-58 30q-37 0 -72 -28t-62.5 -75t-43.5 -107t-16 -124q0 -76 25.5 -116.5t72.5 -40.5q28 0 51.5 15.5t44.5 48.5l2 -7q-30 -49 -68 -73.5
t-84 -24.5zM433 -14q-58 0 -81 42.5t-3 113.5l86 310q42 13 80 34.5t61 47.5l7 -9q-10 -10 -17 -21t-13 -24t-11 -31l-93 -336q-12 -43 -4 -67.5t34 -24.5q17 0 32.5 10.5t29 28t24.5 39.5l21 37h11l-24 -44q-16 -30 -36.5 -54t-45.5 -38t-58 -14zM366 -245q-42 0 -66.5 20
t-24.5 53q0 28 20.5 55.5t66 56t119.5 60.5l6 -2q-63 -38 -93.5 -76t-30.5 -74q0 -25 15 -39t41 -14q36 0 68 32l4 -9q-27 -32 -57.5 -47.5t-67.5 -15.5z" />
    <glyph glyph-name="Cacute" unicode="&#x106;" horiz-adv-x="780" 
d="M376 -14q-89 0 -153.5 36t-99.5 103.5t-35 160.5q0 91 32 170t89 139t131.5 93.5t161.5 33.5q50 0 86.5 -9t62 -22t44 -22t33.5 -9t27.5 11t25.5 37h12q-17 -49 -33 -107t-33 -128h-11q9 72 -12.5 125t-67.5 82t-110 29q-66 0 -123 -33.5t-100 -93t-67 -138t-24 -169.5
q0 -87 23.5 -147.5t69.5 -92t111 -31.5q83 0 149 57t115 184h12q-18 -64 -29.5 -109.5t-18.5 -77.5t-12 -58h-11q-1 23 -7.5 33t-20.5 10q-18 0 -45 -14t-68 -28.5t-104 -14.5zM490 788l-4 7q55 35 88 61t55.5 44.5t44.5 29.5q25 11 45.5 6.5t28.5 -22.5q9 -18 1.5 -36
t-32.5 -30q-22 -11 -51 -16.5t-71.5 -14.5t-104.5 -29z" />
    <glyph glyph-name="cacute" unicode="&#x107;" horiz-adv-x="515" 
d="M217 -14q-82 0 -128.5 52.5t-46.5 144.5q0 69 24.5 131.5t67.5 110.5t99 76t116 28q61 0 96.5 -26t35.5 -71q0 -27 -13.5 -50.5t-35 -38t-46.5 -14.5q-21 0 -33.5 10.5t-12.5 28.5q0 19 12 34t27 28t26.5 26t11.5 30q0 29 -43 29t-82.5 -27t-71 -74t-49.5 -106.5
t-18 -122.5q0 -79 29.5 -120.5t84.5 -41.5q46 0 84 29t68 89h10q-35 -76 -89 -115.5t-123 -39.5zM312 603l-5 5q43 49 69.5 85.5t45.5 64.5t40 48q21 21 42.5 23t34.5 -13q13 -14 9 -33t-26 -40q-21 -19 -50.5 -36.5t-68.5 -41t-91 -62.5z" />
    <glyph glyph-name="Ccircumflex" unicode="&#x108;" horiz-adv-x="780" 
d="M376 -14q-89 0 -153.5 36t-99.5 103.5t-35 160.5q0 91 32 170t89 139t131.5 93.5t161.5 33.5q50 0 86.5 -9t62 -22t44 -22t33.5 -9t27.5 11t25.5 37h12q-17 -49 -33 -107t-33 -128h-11q9 72 -12.5 125t-67.5 82t-110 29q-66 0 -123 -33.5t-100 -93t-67 -138t-24 -169.5
q0 -87 23.5 -147.5t69.5 -92t111 -31.5q83 0 149 57t115 184h12q-18 -64 -29.5 -109.5t-18.5 -77.5t-12 -58h-11q-1 23 -7.5 33t-20.5 10q-18 0 -45 -14t-68 -28.5t-104 -14.5zM320 774l-5 8l242 157h21l155 -156l-7 -9l-237 95l34 3z" />
    <glyph glyph-name="ccircumflex" unicode="&#x109;" horiz-adv-x="515" 
d="M217 -14q-82 0 -128.5 52.5t-46.5 144.5q0 69 24.5 131.5t67.5 110.5t99 76t116 28q61 0 96.5 -26t35.5 -71q0 -27 -13.5 -50.5t-35 -38t-46.5 -14.5q-21 0 -33.5 10.5t-12.5 28.5q0 19 12 34t27 28t26.5 26t11.5 30q0 29 -43 29t-82.5 -27t-71 -74t-49.5 -106.5
t-18 -122.5q0 -79 29.5 -120.5t84.5 -41.5q46 0 84 29t68 89h10q-35 -76 -89 -115.5t-123 -39.5zM181 605l-5 6l229 210h11l113 -210l-8 -6l-179 140l32 -1z" />
    <glyph glyph-name="Cdotaccent" unicode="&#x10a;" horiz-adv-x="780" 
d="M376 -14q-89 0 -153.5 36t-99.5 103.5t-35 160.5q0 91 32 170t89 139t131.5 93.5t161.5 33.5q50 0 86.5 -9t62 -22t44 -22t33.5 -9t27.5 11t25.5 37h12q-17 -49 -33 -107t-33 -128h-11q9 72 -12.5 125t-67.5 82t-110 29q-66 0 -123 -33.5t-100 -93t-67 -138t-24 -169.5
q0 -87 23.5 -147.5t69.5 -92t111 -31.5q83 0 149 57t115 184h12q-18 -64 -29.5 -109.5t-18.5 -77.5t-12 -58h-11q-1 23 -7.5 33t-20.5 10q-18 0 -45 -14t-68 -28.5t-104 -14.5zM534 772q-28 0 -46 18t-18 45q0 29 21.5 49.5t51.5 20.5q28 0 46.5 -18t18.5 -45
q0 -29 -22 -49.5t-52 -20.5z" />
    <glyph glyph-name="cdotaccent" unicode="&#x10b;" horiz-adv-x="515" 
d="M217 -14q-82 0 -128.5 52.5t-46.5 144.5q0 69 24.5 131.5t67.5 110.5t99 76t116 28q61 0 96.5 -26t35.5 -71q0 -27 -13.5 -50.5t-35 -38t-46.5 -14.5q-21 0 -33.5 10.5t-12.5 28.5q0 19 12 34t27 28t26.5 26t11.5 30q0 29 -43 29t-82.5 -27t-71 -74t-49.5 -106.5
t-18 -122.5q0 -79 29.5 -120.5t84.5 -41.5q46 0 84 29t68 89h10q-35 -76 -89 -115.5t-123 -39.5zM371 634q-27 0 -45.5 18t-18.5 45q0 28 21.5 48.5t51.5 20.5q28 0 46.5 -18t18.5 -44q0 -29 -22 -49.5t-52 -20.5z" />
    <glyph glyph-name="Ccaron" unicode="&#x10c;" horiz-adv-x="780" 
d="M376 -14q-89 0 -153.5 36t-99.5 103.5t-35 160.5q0 91 32 170t89 139t131.5 93.5t161.5 33.5q50 0 86.5 -9t62 -22t44 -22t33.5 -9t27.5 11t25.5 37h12q-17 -49 -33 -107t-33 -128h-11q9 72 -12.5 125t-67.5 82t-110 29q-66 0 -123 -33.5t-100 -93t-67 -138t-24 -169.5
q0 -87 23.5 -147.5t69.5 -92t111 -31.5q83 0 149 57t115 184h12q-18 -64 -29.5 -109.5t-18.5 -77.5t-12 -58h-11q-1 23 -7.5 33t-20.5 10q-18 0 -45 -14t-68 -28.5t-104 -14.5zM769 958l5 -8l-242 -157h-21l-155 156l7 9l237 -95l-33 -3z" />
    <glyph glyph-name="ccaron" unicode="&#x10d;" horiz-adv-x="515" 
d="M217 -14q-82 0 -128.5 52.5t-46.5 144.5q0 69 24.5 131.5t68 110.5t99 76t116.5 28q60 0 95.5 -26t35.5 -71q0 -27 -13.5 -50.5t-35 -38t-46.5 -14.5q-21 0 -33.5 10.5t-12.5 28.5q0 19 12 34t27 28t26.5 26t11.5 30q0 29 -43 29t-82.5 -27t-71 -74t-49.5 -106.5
t-18 -122.5q0 -79 29.5 -120.5t84.5 -41.5q46 0 84 29t68 89h10q-35 -76 -89 -115.5t-123 -39.5zM579 825l6 -7l-229 -210h-11l-113 211l8 6l179 -140l-32 1z" />
    <glyph glyph-name="Dcaron" unicode="&#x10e;" horiz-adv-x="827" 
d="M-23 0l3 11q46 4 69 11t34 24t20 51l143 514q10 34 8.5 51.5t-20.5 24.5t-62 10l3 11q20 0 42 -0.5t47 -1t52 -0.5q26 0 51.5 0.5t47.5 1t36 0.5q163 0 252.5 -77t89.5 -216q0 -92 -36.5 -168t-104.5 -131.5t-161 -85.5t-205 -30q-20 0 -44.5 1t-52.5 1.5t-58 0.5
q-40 0 -79 -0.5t-75 -2.5zM291 11q84 0 153.5 30t120 85t78 130t27.5 165q0 135 -61 205.5t-180 70.5h-42l-168 -602q-14 -50 1 -67t71 -17zM737 958l4 -8l-242 -157h-20l-155 156l6 9l238 -95l-34 -3z" />
    <glyph glyph-name="dcaron" unicode="&#x10f;" horiz-adv-x="797" 
d="M646 485l-9 2q36 88 55.5 139.5t27.5 81.5q9 29 5 41t-22 13l3 11q38 -1 65 1.5t55 9.5q1 -4 -1 -17t-6 -27q-9 -35 -28 -71t-53 -80t-92 -104zM433 -14q-38 0 -62 19.5t-29.5 54.5t7.5 82l141 505q11 37 8.5 57.5t-21.5 29.5t-58 9l3 11q69 1 122 11t96 30l-191 -682
q-12 -42 -4.5 -67t33.5 -25q22 0 44 19.5t43 58.5l21 37h11l-23 -42q-17 -31 -37.5 -55.5t-45.5 -38.5t-58 -14zM196 -14q-70 0 -112.5 53t-42.5 141q0 68 24.5 130.5t66 112t94.5 78t111 28.5q53 0 95 -21.5t70 -61.5l-72 -48q-3 60 -26 90t-58 30q-37 0 -72 -28t-62.5 -75
t-43.5 -107t-16 -124q0 -76 25.5 -116.5t72.5 -40.5q28 0 51.5 15.5t44.5 48.5l2 -7q-30 -49 -68 -73.5t-84 -24.5z" />
    <glyph glyph-name="Dcroat" unicode="&#x110;" horiz-adv-x="827" 
d="M29 348l3 11h474l-3 -11h-474zM-23 0l3 11q46 4 69 11t34 24t20 51l143 514q10 34 8.5 51.5t-20.5 24.5t-62 10l3 11q20 0 42 -0.5t47 -1t52 -0.5q26 0 51.5 0.5t47.5 1t36 0.5q163 0 252.5 -77t89.5 -216q0 -92 -36.5 -168t-104.5 -131.5t-161 -85.5t-205 -30
q-20 0 -44.5 1t-52.5 1.5t-58 0.5q-40 0 -79 -0.5t-75 -2.5zM291 11q84 0 153.5 30t120 85t78 130t27.5 165q0 135 -61 205.5t-180 70.5h-42l-168 -602q-14 -50 1 -67t71 -17z" />
    <glyph glyph-name="dcroat" unicode="&#x111;" horiz-adv-x="619" 
d="M432 -14q-57 0 -80.5 42t-3.5 114l176 631h109l-185 -660q-12 -42 -4.5 -67t33.5 -25q22 0 44.5 19.5t43.5 58.5l20 37h11l-23 -42q-17 -31 -37.5 -55.5t-45.5 -38.5t-58 -14zM195 -14q-70 0 -112.5 52.5t-42.5 140.5q0 67 24 128.5t65.5 110.5t94 77.5t109.5 28.5
q53 0 94.5 -22t66.5 -62l-67 -48q-3 60 -26 89.5t-58 29.5q-37 0 -71.5 -27.5t-61.5 -74t-43 -105.5t-16 -122q0 -75 26 -115t73 -40q28 0 51.5 15.5t44.5 48.5l1 -7q-30 -49 -67.5 -73.5t-84.5 -24.5zM341 630l3 11h390l-2 -11h-391z" />
    <glyph glyph-name="Emacron" unicode="&#x112;" horiz-adv-x="711" 
d="M-23 0l3 11q45 3 67.5 10t33.5 24.5t21 51.5l144 514q10 35 8 52.5t-21 24.5t-61 9l3 11q31 -1 80.5 -1h117.5h88h88t88.5 0.5t89.5 0.5q-15 -51 -25.5 -102.5t-17.5 -104.5h-11q0 73 -12.5 115.5t-41 61t-77.5 18.5h-156l-169 -603q-14 -50 -2 -64.5t67 -14.5h31
q77 0 133.5 21.5t103 71.5t92.5 135h11q-27 -69 -46.5 -127t-33.5 -115q-42 1 -78.5 1.5t-71 1t-69 0.5h-71.5q-102 0 -178.5 -0.5t-127.5 -2.5zM255 351l3 11h211l-2 -11h-212zM478 214q6 75 -19.5 106t-92.5 31l3 11q46 0 77.5 12.5t56.5 42t49 81.5h11q-5 -16 -12 -38
t-14.5 -48.5t-15.5 -56.5q-5 -17 -9 -33.5t-7.5 -34t-7.5 -35.5t-8 -38h-11zM297 828l2 12h400l-3 -12h-399z" />
    <glyph glyph-name="emacron" unicode="&#x113;" horiz-adv-x="514" 
d="M216 -14q-83 0 -129 51t-46 145q0 69 25.5 131.5t69 111t100 76.5t119.5 28q56 0 86 -23t30 -66q0 -49 -40.5 -94.5t-113.5 -82t-171 -57.5v9q74 21 126 55t79 78.5t27 96.5q0 36 -12 54t-35 18q-31 0 -62.5 -30t-57.5 -79.5t-42 -107.5t-16 -116q0 -79 29 -120t84 -41
q47 0 85.5 28.5t68.5 89.5h11q-35 -76 -90 -115.5t-125 -39.5zM194 694l3 11h352l-3 -11h-352z" />
    <glyph glyph-name="Ebreve" unicode="&#x114;" horiz-adv-x="711" 
d="M-23 0l3 11q45 3 67.5 10t33.5 24.5t21 51.5l144 514q10 35 8 52.5t-21 24.5t-61 9l3 11q31 -1 80.5 -1h117.5h88h88t88.5 0.5t89.5 0.5q-15 -51 -25.5 -102.5t-17.5 -104.5h-11q0 73 -12.5 115.5t-41 61t-77.5 18.5h-156l-169 -603q-14 -50 -2 -64.5t67 -14.5h31
q77 0 133.5 21.5t103 71.5t92.5 135h11q-27 -69 -46.5 -127t-33.5 -115q-42 1 -78.5 1.5t-71 1t-69 0.5h-71.5q-102 0 -178.5 -0.5t-127.5 -2.5zM255 351l3 11h211l-2 -11h-212zM478 214q6 75 -19.5 106t-92.5 31l3 11q46 0 77.5 12.5t56.5 42t49 81.5h11q-5 -16 -12 -38
t-14.5 -48.5t-15.5 -56.5q-5 -17 -9 -33.5t-7.5 -34t-7.5 -35.5t-8 -38h-11zM489 777q-75 0 -125 34.5t-75 103.5l7 6q35 -34 87.5 -51.5t121.5 -17.5q70 0 131 17.5t100 50.5l7 -6q-45 -67 -111 -102t-143 -35z" />
    <glyph glyph-name="ebreve" unicode="&#x115;" horiz-adv-x="514" 
d="M216 -14q-83 0 -129 51t-46 145q0 69 25.5 131.5t69 111t100 76.5t119.5 28q56 0 86 -23t30 -66q0 -49 -40.5 -94.5t-113.5 -82t-171 -57.5v9q74 21 126 55t79 78.5t27 96.5q0 36 -12 54t-35 18q-31 0 -62.5 -30t-57.5 -79.5t-42 -107.5t-16 -116q0 -79 29 -120t84 -41
q47 0 85.5 28.5t68.5 89.5h11q-35 -76 -90 -115.5t-125 -39.5zM348 611q-70 0 -107.5 43t-33.5 127l8 2q17 -53 54.5 -75.5t96.5 -22.5t107.5 20.5t94.5 75.5l7 -4q-38 -79 -97.5 -122.5t-129.5 -43.5z" />
    <glyph glyph-name="Edotaccent" unicode="&#x116;" horiz-adv-x="711" 
d="M-23 0l3 11q45 3 67.5 10t33.5 24.5t21 51.5l144 514q10 35 8 52.5t-21 24.5t-61 9l3 11q31 -1 80.5 -1h117.5h88h88t88.5 0.5t89.5 0.5q-15 -51 -25.5 -102.5t-17.5 -104.5h-11q0 73 -12.5 115.5t-41 61t-77.5 18.5h-156l-169 -603q-14 -50 -2 -64.5t67 -14.5h31
q77 0 133.5 21.5t103 71.5t92.5 135h11q-27 -69 -46.5 -127t-33.5 -115q-42 1 -78.5 1.5t-71 1t-69 0.5h-71.5q-102 0 -178.5 -0.5t-127.5 -2.5zM255 351l3 11h211l-2 -11h-212zM478 214q6 75 -19.5 106t-92.5 31l3 11q46 0 77.5 12.5t56.5 42t49 81.5h11q-5 -16 -12 -38
t-14.5 -48.5t-15.5 -56.5q-5 -17 -9 -33.5t-7.5 -34t-7.5 -35.5t-8 -38h-11zM493 772q-28 0 -46 18t-18 45q0 29 21.5 49.5t51.5 20.5q28 0 46.5 -18t18.5 -45q0 -29 -22 -49.5t-52 -20.5z" />
    <glyph glyph-name="edotaccent" unicode="&#x117;" horiz-adv-x="514" 
d="M216 -14q-83 0 -129 51t-46 145q0 69 25.5 131.5t69 111t100 76.5t119.5 28q56 0 86 -23t30 -66q0 -49 -40.5 -94.5t-113.5 -82t-171 -57.5v9q74 21 126 55t79 78.5t27 96.5q0 36 -12 54t-35 18q-31 0 -62.5 -30t-57.5 -79.5t-42 -107.5t-16 -116q0 -79 29 -120t84 -41
q47 0 85.5 28.5t68.5 89.5h11q-35 -76 -90 -115.5t-125 -39.5zM367 634q-27 0 -45.5 18t-18.5 45q0 28 21.5 48.5t51.5 20.5q28 0 46.5 -18t18.5 -44q0 -29 -22 -49.5t-52 -20.5z" />
    <glyph glyph-name="Eogonek" unicode="&#x118;" horiz-adv-x="711" 
d="M-23 0l3 11q45 3 67.5 10t33.5 24.5t21 51.5l144 514q10 35 8 52.5t-21 24.5t-61 9l3 11q31 -1 80.5 -1h117.5h88h88t88.5 0.5t89.5 0.5q-15 -51 -25.5 -102.5t-17.5 -104.5h-11q0 73 -12.5 115.5t-41 61t-77.5 18.5h-156l-169 -603q-14 -50 -2 -64.5t67 -14.5h31
q77 0 133.5 21.5t103 71.5t92.5 135h11q-27 -69 -46.5 -127t-33.5 -115q-42 1 -78.5 1.5t-71 1t-69 0.5h-71.5q-102 0 -178.5 -0.5t-127.5 -2.5zM255 351l3 11h211l-2 -11h-212zM478 214q6 75 -19.5 106t-92.5 31l3 11q46 0 77.5 12.5t56.5 42t49 81.5h11q-5 -16 -12 -38
t-14.5 -48.5t-15.5 -56.5q-5 -17 -9 -33.5t-7.5 -34t-7.5 -35.5t-8 -38h-11zM402 -245q-42 0 -66.5 19.5t-24.5 53.5q0 31 24.5 59.5t76.5 57t133 57.5l7 -1q-76 -34 -114.5 -73t-38.5 -80q0 -25 15 -39t41 -14q38 0 71 32l4 -9q-27 -31 -58.5 -47t-69.5 -16z" />
    <glyph glyph-name="eogonek" unicode="&#x119;" horiz-adv-x="514" 
d="M241 -245q-40 0 -63.5 17.5t-23.5 46.5q0 25 17.5 48t48.5 50t70.5 62.5t83.5 86.5l12 3q-51 -65 -82 -106t-45 -68t-14 -50t13 -36.5t38 -13.5q19 0 36 10t34 30l4 -9q-25 -35 -57.5 -53t-71.5 -18zM216 -14q-83 0 -129 51t-46 145q0 69 25.5 131.5t69 111t100 76.5
t119.5 28q56 0 86 -23t30 -66q0 -49 -40.5 -94.5t-113.5 -82t-171 -57.5v9q74 21 126 55t79 78.5t27 96.5q0 36 -12 54t-35 18q-31 0 -62.5 -30t-57.5 -79.5t-42 -107.5t-16 -116q0 -79 29 -120t84 -41q47 0 85.5 28.5t68.5 89.5h11q-35 -76 -90 -115.5t-125 -39.5z" />
    <glyph glyph-name="Ecaron" unicode="&#x11a;" horiz-adv-x="711" 
d="M-23 0l3 11q45 3 67.5 10t33.5 24.5t21 51.5l144 514q10 35 8 52.5t-21 24.5t-61 9l3 11q31 -1 80.5 -1h117.5h88h88t88.5 0.5t89.5 0.5q-15 -51 -25.5 -102.5t-17.5 -104.5h-11q0 73 -12.5 115.5t-41 61t-77.5 18.5h-156l-169 -603q-14 -50 -2 -64.5t67 -14.5h31
q77 0 133.5 21.5t103 71.5t92.5 135h11q-27 -69 -46.5 -127t-33.5 -115q-42 1 -78.5 1.5t-71 1t-69 0.5h-71.5q-102 0 -178.5 -0.5t-127.5 -2.5zM255 351l3 11h211l-2 -11h-212zM478 214q6 75 -19.5 106t-92.5 31l3 11q46 0 77.5 12.5t56.5 42t49 81.5h11q-5 -16 -12 -38
t-14.5 -48.5t-15.5 -56.5q-5 -17 -9 -33.5t-7.5 -34t-7.5 -35.5t-8 -38h-11zM728 958l5 -8l-242 -157h-21l-155 156l7 9l237 -95l-33 -3z" />
    <glyph glyph-name="ecaron" unicode="&#x11b;" horiz-adv-x="514" 
d="M216 -14q-83 0 -129 51t-46 145q0 69 25.5 131.5t69 111t100 76.5t119.5 28q56 0 86 -23t30 -66q0 -49 -40.5 -94.5t-113.5 -82t-171 -57.5v9q74 21 126 55t79 78.5t27 96.5q0 36 -12 54t-35 18q-31 0 -62.5 -30t-57.5 -79.5t-42 -107.5t-16 -116q0 -79 29 -120t84 -41
q47 0 85.5 28.5t68.5 89.5h11q-35 -76 -90 -115.5t-125 -39.5zM575 825l6 -7l-229 -210h-11l-113 210l8 7l179 -140l-32 1z" />
    <glyph glyph-name="Gcircumflex" unicode="&#x11c;" horiz-adv-x="802" 
d="M378 -14q-89 0 -154.5 36.5t-100 103.5t-34.5 160q0 91 32 170t89 138.5t132.5 93.5t163.5 34q53 0 89.5 -10t62 -24t44 -24t36.5 -10q16 0 27.5 12.5t24.5 41.5h12q-17 -52 -33.5 -111t-32.5 -124h-11q6 112 -44 173.5t-148 61.5q-68 0 -126 -33t-102 -93t-68.5 -140
t-24.5 -173q0 -85 22.5 -145.5t65 -92.5t102.5 -32q64 0 99.5 30t50.5 85l25 93q10 35 7 54t-25 27.5t-72 11.5l3 11q24 -1 64 -2t91 -1q48 0 81 1t57 2l-3 -11q-28 -5 -43 -11.5t-23.5 -23t-17.5 -51.5l-60 -214h-11q1 26 -4.5 36t-20.5 10q-14 0 -32.5 -9t-43.5 -21
t-60.5 -21t-85.5 -9zM303 774l-5 8l242 157h21l155 -156l-7 -9l-237 95l34 3z" />
    <glyph glyph-name="gcircumflex" unicode="&#x11d;" horiz-adv-x="613" 
d="M181 -239q-65 0 -114.5 14.5t-77 40t-27.5 59.5q0 43 44 84t127 72l6 -4q-36 -21 -57.5 -57t-21.5 -75q0 -54 43 -86.5t114 -32.5q50 0 89 19t61.5 52.5t22.5 76.5q0 42 -25.5 62.5t-77.5 20.5h-74q-54 0 -86 20t-32 57q0 31 25 62.5t76 64.5l5 -3q-28 -22 -39 -36.5
t-11 -28.5q0 -19 17 -28.5t52 -9.5h104q71 0 111 -34.5t40 -94.5q0 -62 -38 -110.5t-104.5 -76.5t-151.5 -28zM252 196q-72 0 -113.5 38.5t-41.5 105.5q0 54 26.5 96.5t73 67.5t104.5 25q71 0 112.5 -39t41.5 -107q0 -53 -26.5 -95.5t-72.5 -67t-104 -24.5zM246 207
q23 0 43.5 18t36.5 48.5t25.5 69.5t9.5 81q0 48 -13.5 71t-41.5 23q-24 0 -45 -16.5t-36.5 -45.5t-24.5 -67t-9 -81q0 -50 14 -75.5t41 -25.5zM555 383q-18 0 -28 9.5t-10 26.5q0 15 7.5 27.5t15 24t7.5 21.5t-9.5 15t-27.5 5q-23 0 -47 -10t-46 -30l-3 6q25 25 53.5 38
t60.5 13q41 0 65 -19.5t24 -52.5q0 -31 -18 -52.5t-44 -21.5zM157 605l-5 6l229 210h11l113 -210l-8 -6l-179 140l32 -1z" />
    <glyph glyph-name="Gbreve" unicode="&#x11e;" horiz-adv-x="802" 
d="M378 -14q-89 0 -154.5 36.5t-100 103.5t-34.5 160q0 91 32 170t89 138.5t132.5 93.5t163.5 34q53 0 89.5 -10t62 -24t44 -24t36.5 -10q16 0 27.5 12.5t24.5 41.5h12q-17 -52 -33.5 -111t-32.5 -124h-11q6 112 -44 173.5t-148 61.5q-68 0 -126 -33t-102 -93t-68.5 -140
t-24.5 -173q0 -85 22.5 -145.5t65 -92.5t102.5 -32q64 0 99.5 30t50.5 85l25 93q10 35 7 54t-25 27.5t-72 11.5l3 11q24 -1 64 -2t91 -1q48 0 81 1t57 2l-3 -11q-28 -5 -43 -11.5t-23.5 -23t-17.5 -51.5l-60 -214h-11q1 26 -4.5 36t-20.5 10q-14 0 -32.5 -9t-43.5 -21
t-60.5 -21t-85.5 -9zM514 777q-75 0 -125 34.5t-75 103.5l7 6q35 -34 87.5 -51.5t121.5 -17.5q70 0 131 17.5t100 50.5l7 -6q-45 -67 -111 -102t-143 -35z" />
    <glyph glyph-name="gbreve" unicode="&#x11f;" horiz-adv-x="613" 
d="M181 -239q-65 0 -114.5 14.5t-77 40t-27.5 59.5q0 43 44 84t127 72l6 -4q-36 -21 -57.5 -57t-21.5 -75q0 -54 43 -86.5t114 -32.5q50 0 89 19t61.5 52.5t22.5 76.5q0 42 -25.5 62.5t-77.5 20.5h-74q-54 0 -86 20t-32 57q0 31 25 62.5t76 64.5l5 -3q-28 -22 -39 -36.5
t-11 -28.5q0 -19 17 -28.5t52 -9.5h104q71 0 111 -34.5t40 -94.5q0 -62 -38 -110.5t-104.5 -76.5t-151.5 -28zM252 196q-72 0 -113.5 38.5t-41.5 105.5q0 54 26.5 96.5t73 67.5t104.5 25q71 0 112.5 -39t41.5 -107q0 -53 -26.5 -95.5t-72.5 -67t-104 -24.5zM246 207
q23 0 43.5 18t36.5 48.5t25.5 69.5t9.5 81q0 48 -13.5 71t-41.5 23q-24 0 -45 -16.5t-36.5 -45.5t-24.5 -67t-9 -81q0 -50 14 -75.5t41 -25.5zM555 383q-18 0 -28 9.5t-10 26.5q0 15 7.5 27.5t15 24t7.5 21.5t-9.5 15t-27.5 5q-23 0 -47 -10t-46 -30l-3 6q25 25 53.5 38
t60.5 13q41 0 65 -19.5t24 -52.5q0 -31 -18 -52.5t-44 -21.5zM328 611q-70 0 -107.5 43t-33.5 127l8 2q17 -53 54.5 -75.5t96.5 -22.5t107.5 20.5t94.5 75.5l7 -4q-38 -79 -97.5 -122.5t-129.5 -43.5z" />
    <glyph glyph-name="Gdotaccent" unicode="&#x120;" horiz-adv-x="802" 
d="M378 -14q-89 0 -154.5 36.5t-100 103.5t-34.5 160q0 91 32 170t89 138.5t132.5 93.5t163.5 34q53 0 89.5 -10t62 -24t44 -24t36.5 -10q16 0 27.5 12.5t24.5 41.5h12q-17 -52 -33.5 -111t-32.5 -124h-11q6 112 -44 173.5t-148 61.5q-68 0 -126 -33t-102 -93t-68.5 -140
t-24.5 -173q0 -85 22.5 -145.5t65 -92.5t102.5 -32q64 0 99.5 30t50.5 85l25 93q10 35 7 54t-25 27.5t-72 11.5l3 11q24 -1 64 -2t91 -1q48 0 81 1t57 2l-3 -11q-28 -5 -43 -11.5t-23.5 -23t-17.5 -51.5l-60 -214h-11q1 26 -4.5 36t-20.5 10q-14 0 -32.5 -9t-43.5 -21
t-60.5 -21t-85.5 -9zM518 772q-28 0 -46 18t-18 45q0 29 21.5 49.5t51.5 20.5q28 0 46.5 -18t18.5 -45q0 -29 -22 -49.5t-52 -20.5z" />
    <glyph glyph-name="gdotaccent" unicode="&#x121;" horiz-adv-x="613" 
d="M181 -239q-65 0 -114.5 14.5t-77 40t-27.5 59.5q0 43 44 84t127 72l6 -4q-36 -21 -57.5 -57t-21.5 -75q0 -54 43 -86.5t114 -32.5q50 0 89 19t61.5 52.5t22.5 76.5q0 42 -25.5 62.5t-77.5 20.5h-74q-54 0 -86 20t-32 57q0 31 25 62.5t76 64.5l5 -3q-28 -22 -39 -36.5
t-11 -28.5q0 -19 17 -28.5t52 -9.5h104q71 0 111 -34.5t40 -94.5q0 -62 -38 -110.5t-104.5 -76.5t-151.5 -28zM252 196q-72 0 -113.5 38.5t-41.5 105.5q0 54 26.5 96.5t73 67.5t104.5 25q71 0 112.5 -39t41.5 -107q0 -53 -26.5 -95.5t-72.5 -67t-104 -24.5zM246 207
q23 0 43.5 18t36.5 48.5t25.5 69.5t9.5 81q0 48 -13.5 71t-41.5 23q-24 0 -45 -16.5t-36.5 -45.5t-24.5 -67t-9 -81q0 -50 14 -75.5t41 -25.5zM555 383q-18 0 -28 9.5t-10 26.5q0 15 7.5 27.5t15 24t7.5 21.5t-9.5 15t-27.5 5q-23 0 -47 -10t-46 -30l-3 6q25 25 53.5 38
t60.5 13q41 0 65 -19.5t24 -52.5q0 -31 -18 -52.5t-44 -21.5zM347 634q-27 0 -45.5 18t-18.5 45q0 28 21.5 48.5t51.5 20.5q28 0 46.5 -18t18.5 -44q0 -29 -22 -49.5t-52 -20.5z" />
    <glyph glyph-name="uni0122" unicode="&#x122;" horiz-adv-x="802" 
d="M378 -14q-89 0 -154.5 36.5t-100 103.5t-34.5 160q0 91 32 170t89 138.5t132.5 93.5t163.5 34q53 0 89.5 -10t62 -24t44 -24t36.5 -10q16 0 27.5 12.5t24.5 41.5h12q-17 -52 -33.5 -111t-32.5 -124h-11q6 112 -44 173.5t-148 61.5q-68 0 -126 -33t-102 -93t-68.5 -140
t-24.5 -173q0 -85 22.5 -145.5t65 -92.5t102.5 -32q64 0 99.5 30t50.5 85l25 93q10 35 7 54t-25 27.5t-72 11.5l3 11q24 -1 64 -2t91 -1q48 0 81 1t57 2l-3 -11q-28 -5 -43 -11.5t-23.5 -23t-17.5 -51.5l-60 -214h-11q1 26 -4.5 36t-20.5 10q-14 0 -32.5 -9t-43.5 -21
t-60.5 -21t-85.5 -9zM251 -255l-2 7q51 10 69 21t18 24q0 15 -14.5 26t-30 24.5t-15.5 34.5q0 20 16.5 32t43.5 12q37 0 60.5 -20t23.5 -51q0 -38 -43.5 -66t-125.5 -44z" />
    <glyph glyph-name="uni0123" unicode="&#x123;" horiz-adv-x="613" 
d="M181 -239q-65 0 -114.5 14.5t-77 40t-27.5 59.5q0 43 44 84t127 72l6 -4q-36 -21 -57.5 -57t-21.5 -75q0 -54 43 -86.5t114 -32.5q50 0 89 19t61.5 52.5t22.5 76.5q0 42 -25.5 62.5t-77.5 20.5h-74q-54 0 -86 20t-32 57q0 31 25 62.5t76 64.5l5 -3q-28 -22 -39 -36.5
t-11 -28.5q0 -19 17 -28.5t52 -9.5h104q71 0 111 -34.5t40 -94.5q0 -62 -38 -110.5t-104.5 -76.5t-151.5 -28zM252 196q-72 0 -113.5 38.5t-41.5 105.5q0 54 26.5 96.5t73 67.5t104.5 25q71 0 112.5 -39t41.5 -107q0 -53 -26.5 -95.5t-72.5 -67t-104 -24.5zM246 207
q23 0 43.5 18t36.5 48.5t25.5 69.5t9.5 81q0 48 -13.5 71t-41.5 23q-24 0 -45 -16.5t-36.5 -45.5t-24.5 -67t-9 -81q0 -50 14 -75.5t41 -25.5zM555 383q-18 0 -28 9.5t-10 26.5q0 15 7.5 27.5t15 24t7.5 21.5t-9.5 15t-27.5 5q-23 0 -47 -10t-46 -30l-3 6q25 25 53.5 38
t60.5 13q41 0 65 -19.5t24 -52.5q0 -31 -18 -52.5t-44 -21.5zM448 826l2 -7q-50 -10 -68.5 -20.5t-18.5 -24.5t15 -25.5t30 -25t15 -34.5q0 -20 -16.5 -32t-43.5 -12q-37 0 -60.5 20.5t-23.5 50.5q0 38 43.5 66.5t125.5 43.5z" />
    <glyph glyph-name="Hcircumflex" unicode="&#x124;" horiz-adv-x="874" 
d="M443 0l3 11q44 4 66.5 11t33 24.5t19.5 50.5l144 514q10 35 8 52t-20 24t-59 10l3 11q24 -1 62 -2t86 -1q50 0 91 1t71 2l-3 -11q-45 -4 -68 -11t-34 -23.5t-21 -51.5l-143 -514q-9 -34 -7.5 -51.5t21 -24t60.5 -10.5l-3 -11q-25 2 -64.5 2.5t-88.5 0.5q-50 0 -89.5 -0.5
t-67.5 -2.5zM-23 0l3 11q46 4 69 11t34 24.5t20 50.5l143 514q10 34 8.5 51.5t-20.5 24.5t-62 10l3 11q25 -1 64 -2t88 -1t89 1t69 2l-2 -11q-45 -4 -67.5 -11t-32.5 -24t-20 -51l-143 -514q-10 -34 -8.5 -51.5t20 -24t59.5 -10.5l-3 -11q-25 2 -63.5 2.5t-86.5 0.5
q-51 0 -91.5 -0.5t-69.5 -2.5zM252 351l3 11h414l-4 -11h-413zM380 774l-5 8l242 157h21l155 -156l-7 -9l-237 95l34 3z" />
    <glyph glyph-name="hcircumflex" unicode="&#x125;" horiz-adv-x="639" 
d="M26 0l181 647q10 37 7 57.5t-22 29.5t-58 9l3 11q68 1 122 11t97 30l-222 -795h-108zM452 -14q-39 0 -62.5 19.5t-29.5 54.5t7 82l56 197q21 76 5.5 115.5t-66.5 39.5q-35 0 -65 -21.5t-56 -66.5v7q32 58 75.5 87t95.5 29q77 0 109 -56t6 -149l-59 -211q-12 -44 -4.5 -68
t33.5 -24q22 0 43.5 19.5t43.5 58.5l20 37h11l-23 -42q-16 -31 -36.5 -55.5t-45.5 -38.5t-58 -14zM252 839l-5 8l242 157h21l155 -156l-7 -9l-237 95l34 3z" />
    <glyph glyph-name="Hbar" unicode="&#x126;" horiz-adv-x="874" 
d="M78 518l3 11h863l-3 -11h-863zM443 0l3 11q44 4 66.5 11t33 24.5t19.5 50.5l144 514q10 35 8 52t-20 24t-59 10l3 11q24 -1 62 -2t86 -1q50 0 91 1t71 2l-3 -11q-45 -4 -68 -11t-34 -23.5t-21 -51.5l-143 -514q-9 -34 -7.5 -51.5t21 -24t60.5 -10.5l-3 -11
q-25 2 -64.5 2.5t-88.5 0.5q-50 0 -89.5 -0.5t-67.5 -2.5zM-23 0l3 11q46 4 69 11t34 24.5t20 50.5l143 514q10 34 8.5 51.5t-20.5 24.5t-62 10l3 11q25 -1 64 -2t88 -1t89 1t69 2l-2 -11q-45 -4 -67.5 -11t-32.5 -24t-20 -51l-143 -514q-10 -34 -8.5 -51.5t20 -24
t59.5 -10.5l-3 -11q-25 2 -63.5 2.5t-86.5 0.5q-51 0 -91.5 -0.5t-69.5 -2.5zM252 351l3 11h414l-4 -11h-413z" />
    <glyph glyph-name="hbar" unicode="&#x127;" horiz-adv-x="635" 
d="M22 0l215 773h109l-216 -773h-108zM448 -14q-39 0 -63 19.5t-29.5 54.5t7.5 82l54 192q21 76 6 115.5t-66 39.5q-36 0 -66 -22t-55 -66l-1 7q33 58 76 87t96 29q77 0 108.5 -56t5.5 -149l-58 -206q-12 -44 -4 -68t33 -24q23 0 45 19.5t43 58.5l20 37h11l-23 -42
q-17 -31 -37 -55.5t-45 -38.5t-58 -14zM85 630l3 11h390l-2 -11h-391z" />
    <glyph glyph-name="Itilde" unicode="&#x128;" horiz-adv-x="412" 
d="M-23 0l3 11q46 4 69 11t34 24.5t20 50.5l143 514q10 34 8.5 51.5t-20.5 24.5t-62 10l3 11q31 -1 69.5 -2t82.5 -1t85.5 1t76.5 2l-3 -11q-45 -4 -68 -11t-34 -23.5t-21 -51.5l-143 -514q-10 -34 -8 -51.5t21 -24t61 -10.5l-3 -11q-31 2 -70 2.5t-83 0.5q-46 0 -86.5 -0.5
t-74.5 -2.5zM448 777q-39 0 -72 14.5t-64.5 29t-69.5 14.5q-34 0 -57.5 -15.5t-42.5 -49.5l-9 3q24 63 62 95.5t89 32.5q40 0 72.5 -15t64.5 -29.5t69 -14.5q34 0 57.5 16t43.5 51l8 -3q-24 -64 -62 -96.5t-89 -32.5z" />
    <glyph glyph-name="itilde" unicode="&#x129;" horiz-adv-x="372" 
d="M92 638l-8 3q27 68 60.5 100.5t76.5 32.5q32 0 60.5 -16l57 -32t59.5 -16q26 0 44 14t34 51l8 -3q-26 -66 -60.5 -99.5t-78.5 -33.5q-32 0 -60.5 16.5t-56 32.5t-58.5 16q-25 0 -43.5 -15t-34.5 -51zM178 -14q-40 0 -64 20.5t-29.5 56.5t10.5 82l82 254q15 43 7.5 69
t-34.5 26q-22 0 -44.5 -19.5t-43.5 -58.5l-20 -37h-11l23 42q31 57 64 82.5t76 25.5q40 0 64 -20t29.5 -56t-10.5 -83l-82 -254q-15 -43 -7.5 -69t34.5 -26q46 0 88 78l20 37h11l-23 -42q-31 -57 -63.5 -82.5t-76.5 -25.5z" />
    <glyph glyph-name="Imacron" unicode="&#x12a;" horiz-adv-x="412" 
d="M-23 0l3 11q46 4 69 11t34 24.5t20 50.5l143 514q10 34 8.5 51.5t-20.5 24.5t-62 10l3 11q31 -1 69.5 -2t82.5 -1t85.5 1t76.5 2l-3 -11q-45 -4 -68 -11t-34 -23.5t-21 -51.5l-143 -514q-10 -34 -8 -51.5t21 -24t61 -10.5l-3 -11q-31 2 -70 2.5t-83 0.5q-46 0 -86.5 -0.5
t-74.5 -2.5zM165 828l2 12h400l-3 -12h-399z" />
    <glyph glyph-name="imacron" unicode="&#x12b;" horiz-adv-x="372" 
d="M178 -14q-40 0 -64 20.5t-29.5 56.5t10.5 82l82 254q15 43 7.5 69t-34.5 26q-22 0 -44.5 -19.5t-43.5 -58.5l-20 -37h-11l23 42q31 57 64 82.5t76 25.5q40 0 64 -20t29.5 -56t-10.5 -83l-82 -254q-15 -43 -7.5 -69t34.5 -26q46 0 88 78l20 37h11l-23 -42
q-31 -57 -63.5 -82.5t-76.5 -25.5zM123 694l2 11h300l-3 -11h-299z" />
    <glyph glyph-name="Ibreve" unicode="&#x12c;" horiz-adv-x="412" 
d="M-23 0l3 11q46 4 69 11t34 24.5t20 50.5l143 514q10 34 8.5 51.5t-20.5 24.5t-62 10l3 11q31 -1 69.5 -2t82.5 -1t85.5 1t76.5 2l-3 -11q-45 -4 -68 -11t-34 -23.5t-21 -51.5l-143 -514q-10 -34 -8 -51.5t21 -24t61 -10.5l-3 -11q-31 2 -70 2.5t-83 0.5q-46 0 -86.5 -0.5
t-74.5 -2.5zM357 777q-75 0 -125 34.5t-75 103.5l7 6q35 -34 87.5 -51.5t121.5 -17.5q70 0 131 17.5t100 50.5l7 -6q-45 -67 -111 -102t-143 -35z" />
    <glyph glyph-name="ibreve" unicode="&#x12d;" horiz-adv-x="372" 
d="M178 -14q-40 0 -64 20.5t-29.5 56.5t10.5 82l82 254q15 43 7.5 69t-34.5 26q-22 0 -44.5 -19.5t-43.5 -58.5l-20 -37h-11l23 42q31 57 64 82.5t76 25.5q40 0 64 -20t29.5 -56t-10.5 -83l-82 -254q-15 -43 -7.5 -69t34.5 -26q46 0 88 78l20 37h11l-23 -42
q-31 -57 -63.5 -82.5t-76.5 -25.5zM258 611q-70 0 -107.5 43t-33.5 127l8 2q17 -53 54.5 -75.5t96.5 -22.5t107.5 20.5t94.5 75.5l7 -4q-38 -79 -97.5 -122.5t-129.5 -43.5z" />
    <glyph glyph-name="Iogonek" unicode="&#x12e;" horiz-adv-x="412" 
d="M-23 0l3 11q46 4 69 11t34 24.5t20 50.5l143 514q10 34 8.5 51.5t-20.5 24.5t-62 10l3 11q31 -1 69.5 -2t82.5 -1t85.5 1t76.5 2l-3 -11q-45 -4 -68 -11t-34 -23.5t-21 -51.5l-143 -514q-10 -34 -8 -51.5t21 -24t61 -10.5l-3 -11q-31 2 -70 2.5t-83 0.5q-46 0 -86.5 -0.5
t-74.5 -2.5zM138 -245q-42 0 -66.5 19.5t-24.5 53.5q0 31 24.5 59.5t76.5 57t133 57.5l7 -1q-76 -34 -114.5 -73t-38.5 -80q0 -25 15 -39t41 -14q38 0 71 32l4 -9q-27 -31 -58.5 -47t-69.5 -16z" />
    <glyph glyph-name="iogonek" unicode="&#x12f;" horiz-adv-x="372" 
d="M178 -14q-40 0 -64 20.5t-29.5 56.5t10.5 82l82 254q15 43 7.5 69t-34.5 26q-22 0 -44.5 -19.5t-43.5 -58.5l-20 -37h-11l23 42q31 57 64 82.5t76 25.5q40 0 64 -20t29.5 -56t-10.5 -83l-82 -254q-15 -43 -7.5 -69t34.5 -26q46 0 88 78l20 37h11l-23 -42
q-31 -57 -63.5 -82.5t-76.5 -25.5zM277 634q-27 0 -45.5 18t-18.5 45q0 28 21.5 48.5t51.5 20.5q28 0 46.5 -18t18.5 -44q0 -29 -22 -49.5t-52 -20.5zM111 -245q-42 0 -66.5 20t-24.5 53q0 28 20.5 55.5t66 56t119.5 60.5l6 -2q-63 -38 -93.5 -76t-30.5 -74q0 -25 15 -39
t41 -14q36 0 68 32l4 -9q-27 -32 -57.5 -47.5t-67.5 -15.5z" />
    <glyph glyph-name="Idotaccent" unicode="&#x130;" horiz-adv-x="412" 
d="M-23 0l3 11q46 4 69 11t34 24.5t20 50.5l143 514q10 34 8.5 51.5t-20.5 24.5t-62 10l3 11q31 -1 69.5 -2t82.5 -1t85.5 1t76.5 2l-3 -11q-45 -4 -68 -11t-34 -23.5t-21 -51.5l-143 -514q-10 -34 -8 -51.5t21 -24t61 -10.5l-3 -11q-31 2 -70 2.5t-83 0.5q-46 0 -86.5 -0.5
t-74.5 -2.5zM361 772q-28 0 -46 18t-18 45q0 29 21.5 49.5t51.5 20.5q28 0 46.5 -18t18.5 -45q0 -29 -22 -49.5t-52 -20.5z" />
    <glyph glyph-name="dotlessi" unicode="&#x131;" horiz-adv-x="372" 
d="M178 -14q-40 0 -64 20.5t-29.5 56.5t10.5 82l82 254q15 43 7.5 69t-34.5 26q-22 0 -44.5 -19.5t-43.5 -58.5l-20 -37h-11l23 42q31 57 64 82.5t76 25.5q40 0 64 -20t29.5 -56t-10.5 -83l-82 -254q-15 -43 -7.5 -69t34.5 -26q46 0 88 78l20 37h11l-23 -42
q-31 -57 -63.5 -82.5t-76.5 -25.5z" />
    <glyph glyph-name="IJ" unicode="&#x132;" horiz-adv-x="938" 
d="M371 -244q-73 0 -117.5 24t-44.5 64q0 24 15.5 39t40.5 15t39 -13t23 -32t17.5 -38.5t22 -32.5t36.5 -13q26 0 45 18.5t36 60.5t36 113l84 301q21 76 54 134.5t86 109t133 101.5l5 -3q-16 -1 -33 -2t-33.5 -1.5t-31.5 -0.5q-56 0 -109 3t-101.5 7t-93 8t-84.5 6.5
t-75 2.5q-84 0 -124.5 -24t-40.5 -75q0 -47 41.5 -77.5t109.5 -30.5q44 0 66.5 13.5t33.5 33.5t18.5 40t19.5 33.5t38 13.5q23 0 37 -13.5t14 -35.5q0 -43 -55.5 -71t-141.5 -28q-100 0 -156 40t-56 111q0 50 27 87t76 57.5t114 20.5q47 0 92 -11t89.5 -27t90 -32.5
t95 -27.5t102.5 -11q27 0 45 4t35 15t39 31q23 42 44.5 56.5t35.5 -0.5q10 -10 4.5 -21.5t-25.5 -23t-54 -22.5q-46 -37 -83.5 -86.5t-67.5 -114.5t-53 -150l-81 -293q-35 -127 -105 -189.5t-174 -62.5zM69 0l4 11q44 4 65.5 11t32.5 24.5t20 50.5l88 319q28 -5 56.5 -4
t61.5 6l-89 -321q-9 -33 -7.5 -50.5t21 -25t61.5 -10.5l-2 -11q-24 2 -64 2.5t-93 0.5t-92.5 -0.5t-62.5 -2.5zM485 351l3 11h369l-3 -11h-369z" />
    <glyph glyph-name="ij" unicode="&#x133;" horiz-adv-x="725" 
d="M178 -14q-40 0 -64 20.5t-29.5 56.5t10.5 82l82 254q15 43 7.5 69t-34.5 26q-22 0 -44.5 -19.5t-43.5 -58.5l-20 -37h-11l23 42q31 57 64 82.5t76 25.5q40 0 64 -20t29.5 -56t-10.5 -83l-82 -254q-15 -43 -7.5 -69t34.5 -26q46 0 88 78l20 37h11l-23 -42
q-31 -57 -63.5 -82.5t-76.5 -25.5zM277 634q-27 0 -45.5 18t-18.5 45q0 28 21.5 48.5t51.5 20.5q28 0 46.5 -18t18.5 -44q0 -29 -22 -49.5t-52 -20.5zM268 -239q-38 0 -59 14t-21 39q0 22 14.5 35.5t36.5 13.5q18 0 31.5 -10.5t25.5 -23.5t23.5 -23.5t25.5 -10.5
q10 0 19.5 6.5t18 24.5t17.5 52l146 523q12 44 4.5 68.5t-33.5 24.5q-22 0 -44.5 -19.5t-43.5 -58.5l-20 -37h-11l23 42q30 57 63.5 82.5t76.5 25.5q39 0 62.5 -19.5t29.5 -54.5t-7 -82l-83 -299q-27 -96 -71.5 -166.5t-101.5 -108.5t-122 -38zM653 634q-27 0 -45.5 18
t-18.5 45q0 28 21.5 48.5t51.5 20.5q28 0 46.5 -18t18.5 -44q0 -29 -22 -49.5t-52 -20.5z" />
    <glyph glyph-name="Jcircumflex" unicode="&#x134;" horiz-adv-x="746" 
d="M180 -239q-73 0 -117 24.5t-44 63.5q0 25 15.5 40t40.5 15q24 0 38.5 -13.5t23.5 -32.5t17 -38t21 -32.5t35 -13.5q29 0 48 19t36 61.5t36 111.5l81 295q20 72 51.5 128.5t82.5 105.5t128 97v2q-98 4 -171.5 8t-126 6t-87.5 2q-45 0 -73.5 -6t-46.5 -21t-32 -41l-12 -24
h-11l35 69q26 51 50.5 80t52 42t63.5 13q32 0 62.5 -11t59 -27.5t57.5 -33.5t60 -28t63 -11q27 0 46 4.5t36.5 16.5t39.5 31q23 42 45 56.5t35 -0.5q10 -11 4.5 -22.5t-25 -22.5t-54.5 -22q-34 -27 -63.5 -61.5t-55 -77t-46.5 -95t-39 -117.5l-79 -287
q-36 -128 -105.5 -190.5t-174.5 -62.5zM290 346l3 11h369l-3 -11h-369zM334 774l-5 8l242 157h21l155 -156l-7 -9l-237 95l34 3z" />
    <glyph glyph-name="jcircumflex" unicode="&#x135;" horiz-adv-x="351" 
d="M-106 -239q-38 0 -59 14t-21 39q0 22 14.5 35.5t36.5 13.5q18 0 31.5 -10.5t25.5 -23.5t23.5 -23.5t25.5 -10.5q10 0 19.5 6.5t18 24.5t17.5 52l146 523q12 44 4.5 68.5t-33.5 24.5q-22 0 -44.5 -19.5t-43.5 -58.5l-20 -37h-11l23 42q30 57 63.5 82.5t76.5 25.5
q39 0 62.5 -19.5t29.5 -54.5t-7 -82l-83 -299q-27 -96 -71.5 -166.5t-101.5 -108.5t-122 -38zM90 605l-5 6l229 210h11l113 -210l-8 -6l-179 140l32 -1z" />
    <glyph glyph-name="uni0136" unicode="&#x136;" horiz-adv-x="814" 
d="M596 -14q-46 0 -74 25.5t-36 75.5l-20 119q-9 55 -25 88t-43 48t-73 15h-49l3 9h55q67 0 110 26t71.5 66.5t50.5 86t45.5 86t56 66t82.5 25.5q40 0 64.5 -17t24.5 -46q0 -25 -18 -41.5t-46 -16.5q-25 0 -44 12.5t-35.5 24.5t-35.5 12t-35 -21t-32 -54t-36 -69.5t-47 -69
t-64 -51.5l1 5q44 -10 69.5 -31t39.5 -57.5t23 -93.5l19 -111q6 -35 17.5 -50.5t32.5 -15.5q23 0 42 16.5t39 52.5l33 62h11l-39 -72q-29 -56 -61.5 -80t-76.5 -24zM-23 0l3 11q45 4 68 10.5t34.5 24t20.5 51.5l143 514q10 34 8.5 51.5t-20.5 24.5t-62 10l3 11q25 -1 64 -2
t88 -1q50 0 91 1t71 2l-3 -11q-45 -4 -68 -11t-34 -23.5t-21 -51.5l-143 -514q-10 -34 -8 -51.5t21 -24t61 -10.5l-3 -11q-25 2 -64.5 2.5t-88.5 0.5q-51 0 -91.5 -0.5t-69.5 -2.5zM224 -255l-2 7q51 10 69 21t18 24q0 15 -14.5 26t-30 24.5t-15.5 34.5q0 20 16.5 32
t43.5 12q37 0 60.5 -20t23.5 -51q0 -38 -43.5 -66t-125.5 -44z" />
    <glyph glyph-name="uni0137" unicode="&#x137;" horiz-adv-x="625" 
d="M25 0l182 647q10 37 7 58t-22 29.5t-58 8.5l3 11q70 1 123 11t96 30l-222 -795h-109zM423 -14q-44 0 -69 24.5t-34 77.5l-19 119q-10 55 -24 74t-44 19h-34l2 10h31q42 0 68.5 16t43.5 40.5t31.5 52.5t31 53t41.5 41t64 16q38 0 59 -15t21 -42q0 -21 -12.5 -34.5
t-33.5 -13.5q-17 0 -29.5 8.5t-23 20t-21 20t-25.5 8.5q-18 0 -31.5 -16.5t-26 -41t-28.5 -50t-40 -42.5v3q38 -13 56.5 -40t27.5 -84l20 -119q7 -37 17.5 -53t29.5 -16q22 0 42 18.5t42 59.5l20 36h11l-25 -47q-16 -29 -36 -52t-45.5 -37t-57.5 -14zM106 -255l-2 7
q51 10 69 21t18 24q0 15 -14.5 26t-30 24.5t-15.5 34.5q0 20 16.5 32t43.5 12q37 0 60.5 -20t23.5 -51q0 -38 -43.5 -66t-125.5 -44z" />
    <glyph glyph-name="kgreenlandic" unicode="&#x138;" horiz-adv-x="658" 
d="M455 -14q-43 0 -67 24.5t-34 77.5l-14 77q-7 36 -17 56.5t-25.5 29t-39.5 8.5h-39l2 9h37q42 0 68 18.5t43.5 48.5t31.5 63.5t31.5 63t44.5 48.5t69 19q37 0 58 -15t21 -42q0 -21 -12.5 -34.5t-33.5 -13.5q-17 0 -29.5 8.5t-23 20.5t-21.5 20.5t-25 8.5q-20 0 -35.5 -23
t-30 -56t-32.5 -65t-45 -50l2 4q47 -13 70.5 -40t34.5 -85l14 -76q8 -37 18 -53t29 -16q22 0 42 18.5t42 59.5l20 36h11l-26 -47q-15 -29 -35 -52t-45.5 -37t-58.5 -14zM59 0l112 402q13 44 4.5 68t-33.5 24q-22 0 -44 -19.5t-43 -58.5l-20 -37h-11l23 42q17 31 37 55.5
t45.5 38.5t57.5 14q59 0 82 -42.5t3 -113.5l-105 -373h-108z" />
    <glyph glyph-name="Lacute" unicode="&#x139;" horiz-adv-x="680" 
d="M-23 0l3 11q46 4 68.5 11t33 24.5t19.5 50.5l144 514q10 33 9 50.5t-19.5 25t-62.5 10.5l3 11q46 -3 154 -3q50 0 90.5 1t66.5 2l-3 -11q-41 -3 -64 -9.5t-35 -23.5t-22 -53l-145 -518q-9 -31 -8.5 -48.5t17.5 -24t56 -6.5h31q78 0 134 20.5t102 70t93 137.5h11
q-30 -75 -49 -133t-31 -109q-50 2 -111.5 2.5t-146.5 0.5q-112 0 -197 -0.5t-141 -2.5zM311 788l-4 7q55 35 88 61t55.5 44.5t44.5 29.5q25 11 45.5 6.5t28.5 -22.5q9 -18 1.5 -36t-32.5 -30q-22 -11 -51 -16.5t-71.5 -14.5t-104.5 -29z" />
    <glyph glyph-name="lacute" unicode="&#x13a;" horiz-adv-x="336" 
d="M150 -14q-39 0 -62.5 19.5t-29.5 54.5t7 82l142 505q10 37 7 57.5t-22.5 29.5t-57.5 9l3 11q69 1 122.5 11t96.5 30l-191 -682q-12 -42 -4.5 -67t33.5 -25q22 0 44 19t44 59l20 37h11l-23 -42q-17 -31 -37 -55.5t-45.5 -38.5t-57.5 -14zM289 853l-4 7q55 35 88 61
t55.5 44.5t44.5 29.5q25 11 45.5 6.5t28.5 -22.5q9 -18 1.5 -36t-32.5 -30q-22 -11 -51 -16.5t-71.5 -14.5t-104.5 -29z" />
    <glyph glyph-name="uni013B" unicode="&#x13b;" horiz-adv-x="680" 
d="M-23 0l3 11q46 4 68.5 11t33 24.5t19.5 50.5l144 514q10 33 9 50.5t-19.5 25t-62.5 10.5l3 11q46 -3 154 -3q50 0 90.5 1t66.5 2l-3 -11q-41 -3 -64 -9.5t-35 -23.5t-22 -53l-145 -518q-9 -31 -8.5 -48.5t17.5 -24t56 -6.5h31q78 0 134 20.5t102 70t93 137.5h11
q-30 -75 -49 -133t-31 -109q-50 2 -111.5 2.5t-146.5 0.5q-112 0 -197 -0.5t-141 -2.5zM192 -255l-2 7q51 10 69 21t18 24q0 15 -14.5 26t-30 24.5t-15.5 34.5q0 20 16.5 32t43.5 12q37 0 60.5 -20t23.5 -51q0 -38 -43.5 -66t-125.5 -44z" />
    <glyph glyph-name="uni013C" unicode="&#x13c;" horiz-adv-x="336" 
d="M150 -14q-39 0 -62.5 19.5t-29.5 54.5t7 82l142 505q10 37 7 57.5t-22.5 29.5t-57.5 9l3 11q69 1 122.5 11t96.5 30l-191 -682q-12 -42 -4.5 -67t33.5 -25q22 0 44 19t44 59l20 37h11l-23 -42q-17 -31 -37 -55.5t-45.5 -38.5t-57.5 -14zM10 -255l-2 7q51 10 69 21t18 24
q0 15 -14.5 26t-30 24.5t-15.5 34.5q0 20 16.5 32t43.5 12q37 0 60.5 -20t23.5 -51q0 -38 -43.5 -66t-125.5 -44z" />
    <glyph glyph-name="Lcaron" unicode="&#x13d;" horiz-adv-x="680" 
d="M537 478l-8 4q27 55 41.5 101.5t14.5 75.5q0 36 -33 38l3 11q35 0 72 3.5t61 7.5q1 -1 1 -3v-7q0 -25 -18 -61t-52 -79t-82 -91zM-23 0l3 11q46 4 68.5 11t33 24.5t19.5 50.5l144 514q10 33 9 50.5t-19.5 25t-62.5 10.5l3 11q46 -3 154 -3q50 0 90.5 1t66.5 2l-3 -11
q-41 -3 -64 -9.5t-35 -23.5t-22 -53l-145 -518q-9 -31 -8.5 -48.5t17.5 -24t56 -6.5h31q78 0 134 20.5t102 70t93 137.5h11q-30 -75 -49 -133t-31 -109q-50 2 -111.5 2.5t-146.5 0.5q-112 0 -197 -0.5t-141 -2.5z" />
    <glyph glyph-name="lcaron" unicode="&#x13e;" horiz-adv-x="513" 
d="M362 485l-8 2q36 88 55.5 139.5t26.5 81.5q9 29 5 41t-22 13l3 11q38 -1 65.5 1.5t54.5 9.5q2 -4 -0.5 -17t-6.5 -27q-9 -35 -27.5 -71t-53 -80t-92.5 -104zM150 -14q-39 0 -62.5 19.5t-29.5 54.5t7 82l142 505q10 37 7 57.5t-22.5 29.5t-57.5 9l3 11q69 1 122.5 11
t96.5 30l-191 -682q-12 -42 -4.5 -67t33.5 -25q22 0 44 19t44 59l20 37h11l-23 -42q-17 -31 -37 -55.5t-45.5 -38.5t-57.5 -14z" />
    <glyph glyph-name="Ldot" unicode="&#x13f;" horiz-adv-x="680" 
d="M-23 0l3 11q46 4 68.5 11t33 24.5t19.5 50.5l144 514q10 33 9 50.5t-19.5 25t-62.5 10.5l3 11q46 -3 154 -3q50 0 90.5 1t66.5 2l-3 -11q-41 -3 -64 -9.5t-35 -23.5t-22 -53l-145 -518q-9 -31 -8.5 -48.5t17.5 -24t56 -6.5h31q78 0 134 20.5t102 70t93 137.5h11
q-30 -75 -49 -133t-31 -109q-50 2 -111.5 2.5t-146.5 0.5q-112 0 -197 -0.5t-141 -2.5zM569 300q-31 0 -50.5 17.5t-19.5 45.5q0 31 22.5 52t56.5 21q31 0 50.5 -17.5t19.5 -45.5q0 -31 -23 -52t-56 -21z" />
    <glyph glyph-name="ldot" unicode="&#x140;" horiz-adv-x="436" 
d="M150 -14q-39 0 -62.5 19.5t-29.5 54.5t7 82l142 505q10 37 7 57.5t-22.5 29.5t-57.5 9l3 11q69 1 122.5 11t96.5 30l-191 -682q-12 -42 -4.5 -67t33.5 -25q22 0 44 19t44 59l20 37h11l-23 -42q-17 -31 -37 -55.5t-45.5 -38.5t-57.5 -14zM408 314q-31 0 -50.5 17.5
t-19.5 45.5q0 31 22.5 52t56.5 21q31 0 50.5 -17.5t19.5 -45.5q0 -31 -23 -52t-56 -21z" />
    <glyph glyph-name="Lslash" unicode="&#x141;" horiz-adv-x="680" 
d="M216 288l3 12l357 165l-4 -12zM20 213l3 12l200 93l-3 -13zM-23 0l3 11q46 4 68.5 11t33 24.5t19.5 50.5l144 514q10 33 9 50.5t-19.5 25t-62.5 10.5l3 11q46 -3 154 -3q50 0 90.5 1t66.5 2l-3 -11q-41 -3 -64 -9.5t-35 -23.5t-22 -53l-145 -518q-9 -31 -8.5 -48.5
t17.5 -24t56 -6.5h31q78 0 134 20.5t102 70t93 137.5h11q-30 -75 -49 -133t-31 -109q-50 2 -111.5 2.5t-146.5 0.5q-112 0 -197 -0.5t-141 -2.5z" />
    <glyph glyph-name="lslash" unicode="&#x142;" horiz-adv-x="336" 
d="M170 350l4 15l227 147l-4 -14zM1 261l5 15l165 108l-4 -15zM150 -14q-39 0 -62.5 19.5t-29.5 54.5t7 82l142 505q10 37 7 57.5t-22.5 29.5t-57.5 9l3 11q69 1 122.5 11t96.5 30l-191 -682q-12 -42 -4.5 -67t33.5 -25q22 0 44 19t44 59l20 37h11l-23 -42
q-17 -31 -37 -55.5t-45.5 -38.5t-57.5 -14z" />
    <glyph glyph-name="Nacute" unicode="&#x143;" horiz-adv-x="818" 
d="M583 -13l-308 669h-5l-152 -546q-10 -34 -7 -55t26.5 -31t76.5 -13l-3 -11q-21 1 -54.5 2t-69.5 1q-32 0 -61.5 -1t-48.5 -2l3 11q44 3 67.5 13.5t36.5 31.5t23 55l139 500q10 34 8.5 51.5t-20 25t-61.5 9.5l2 11q20 -1 51.5 -2t66.5 -1q51 0 86 3l250 -545h5l118 424
q11 39 9.5 62t-25 34t-78.5 14l2 11q21 -1 57 -2t70 -1q28 0 57.5 1t50.5 2l-3 -11q-42 -3 -66 -13.5t-37.5 -33t-23.5 -60.5l-169 -603h-13zM508 788l-4 7q55 35 88 61t55.5 44.5t44.5 29.5q25 11 45.5 6.5t28.5 -22.5q9 -18 1.5 -36t-32.5 -30q-22 -11 -51 -16.5
t-71.5 -14.5t-104.5 -29z" />
    <glyph glyph-name="nacute" unicode="&#x144;" horiz-adv-x="672" 
d="M486 -14q-39 0 -63 19t-29.5 54.5t7.5 82.5l55 197q22 76 6.5 115.5t-66.5 39.5q-38 0 -70 -23t-59 -70l-2 7q34 60 80 90.5t101 30.5q77 0 108.5 -56t5.5 -149l-59 -211q-12 -44 -4 -68t33 -24q23 0 44.5 19.5t43.5 58.5l20 37h11l-23 -42q-17 -31 -37 -55.5
t-45.5 -38.5t-57.5 -14zM59 0l112 402q12 43 4.5 67.5t-33.5 24.5q-22 0 -44 -19.5t-43 -58.5l-20 -37h-11l23 42q17 31 37 55.5t45.5 38.5t57.5 14q39 0 62.5 -19t29.5 -54.5t-7 -82.5l-105 -373h-108zM364 603l-5 5q43 49 69.5 85.5t45.5 64.5t40 48q21 21 42.5 23
t34.5 -13q13 -14 9 -33t-26 -40q-21 -19 -50.5 -36.5t-68.5 -41t-91 -62.5z" />
    <glyph glyph-name="uni0145" unicode="&#x145;" horiz-adv-x="818" 
d="M583 -13l-308 669h-5l-152 -546q-10 -34 -7 -55t26.5 -31t76.5 -13l-3 -11q-21 1 -54.5 2t-69.5 1q-32 0 -61.5 -1t-48.5 -2l3 11q44 3 67.5 13.5t36.5 31.5t23 55l139 500q10 34 8.5 51.5t-20 25t-61.5 9.5l2 11q20 -1 51.5 -2t66.5 -1q51 0 86 3l250 -545h5l118 424
q11 39 9.5 62t-25 34t-78.5 14l2 11q21 -1 57 -2t70 -1q28 0 57.5 1t50.5 2l-3 -11q-42 -3 -66 -13.5t-37.5 -33t-23.5 -60.5l-169 -603h-13zM234 -255l-2 7q51 10 69 21t18 24q0 15 -14.5 26t-30 24.5t-15.5 34.5q0 20 16.5 32t43.5 12q37 0 60.5 -20t23.5 -51
q0 -38 -43.5 -66t-125.5 -44z" />
    <glyph glyph-name="uni0146" unicode="&#x146;" horiz-adv-x="672" 
d="M486 -14q-39 0 -63 19t-29.5 54.5t7.5 82.5l55 197q22 76 6.5 115.5t-66.5 39.5q-38 0 -70 -23t-59 -70l-2 7q34 60 80 90.5t101 30.5q77 0 108.5 -56t5.5 -149l-59 -211q-12 -44 -4 -68t33 -24q23 0 44.5 19.5t43.5 58.5l20 37h11l-23 -42q-17 -31 -37 -55.5
t-45.5 -38.5t-57.5 -14zM59 0l112 402q12 43 4.5 67.5t-33.5 24.5q-22 0 -44 -19.5t-43 -58.5l-20 -37h-11l23 42q17 31 37 55.5t45.5 38.5t57.5 14q39 0 62.5 -19t29.5 -54.5t-7 -82.5l-105 -373h-108zM193 -255l-2 7q51 10 69 21t18 24q0 15 -14.5 26t-30 24.5t-15.5 34.5
q0 20 16.5 32t43.5 12q37 0 60.5 -20t23.5 -51q0 -38 -43.5 -66t-125.5 -44z" />
    <glyph glyph-name="Ncaron" unicode="&#x147;" horiz-adv-x="818" 
d="M583 -13l-308 669h-5l-152 -546q-10 -34 -7 -55t26.5 -31t76.5 -13l-3 -11q-21 1 -54.5 2t-69.5 1q-32 0 -61.5 -1t-48.5 -2l3 11q44 3 67.5 13.5t36.5 31.5t23 55l139 500q10 34 8.5 51.5t-20 25t-61.5 9.5l2 11q20 -1 51.5 -2t66.5 -1q51 0 86 3l250 -545h5l118 424
q11 39 9.5 62t-25 34t-78.5 14l2 11q21 -1 57 -2t70 -1q28 0 57.5 1t50.5 2l-3 -11q-42 -3 -66 -13.5t-37.5 -33t-23.5 -60.5l-169 -603h-13zM787 958l5 -8l-242 -157h-21l-155 156l7 9l237 -95l-34 -3z" />
    <glyph glyph-name="ncaron" unicode="&#x148;" horiz-adv-x="672" 
d="M486 -14q-39 0 -63 19t-29.5 54.5t7.5 82.5l55 197q22 76 6.5 115.5t-66.5 39.5q-38 0 -70 -23t-59 -70l-2 7q34 60 80 90.5t101 30.5q77 0 108.5 -56t5.5 -149l-59 -211q-12 -44 -4 -68t33 -24q23 0 44.5 19.5t43.5 58.5l20 37h11l-23 -42q-17 -31 -37 -55.5
t-45.5 -38.5t-57.5 -14zM59 0l112 402q12 43 4.5 67.5t-33.5 24.5q-22 0 -44 -19.5t-43 -58.5l-20 -37h-11l23 42q17 31 37 55.5t45.5 38.5t57.5 14q39 0 62.5 -19t29.5 -54.5t-7 -82.5l-105 -373h-108zM631 825l5 -7l-229 -210h-11l-113 211l8 6l179 -140l-32 1z" />
    <glyph glyph-name="Eng" unicode="&#x14a;" horiz-adv-x="818" 
d="M410 -245q-45 0 -72 19t-27 49q0 23 15 38t38 15q22 0 37.5 -10t28 -23.5t27 -23.5t34.5 -10q24 0 39.5 19t26.5 60l50 180h11l-51 -186q-17 -61 -57.5 -94t-99.5 -33zM583 -13l-308 669h-5l-152 -546q-10 -34 -7 -55t26.5 -31t76.5 -13l-3 -11q-21 1 -54.5 2t-69.5 1
q-32 0 -61.5 -1t-48.5 -2l3 11q44 3 67.5 13.5t36.5 31.5t23 55l139 500q10 34 8.5 51.5t-20 25t-61.5 9.5l2 11q20 -1 51.5 -2t66.5 -1q51 0 86 3l250 -545h5l118 424q11 39 9.5 62t-25 34t-78.5 14l2 11q21 -1 57 -2t70 -1q28 0 57.5 1t50.5 2l-3 -11q-42 -3 -66 -13.5
t-37.5 -33t-23.5 -60.5l-169 -603h-13z" />
    <glyph glyph-name="eng" unicode="&#x14b;" horiz-adv-x="653" 
d="M196 -239q-38 0 -59.5 14t-21.5 39q0 22 15 35.5t36 13.5q19 0 32.5 -10.5t25.5 -23.5t23.5 -23t24.5 -10q11 0 20 6.5t18 24.5t17 51l129 461q22 77 6.5 116t-66.5 39q-38 0 -70 -23t-59 -70l-2 7q34 60 80 90.5t101 30.5q77 0 108.5 -56t5.5 -149l-69 -250
q-27 -96 -71.5 -166.5t-101.5 -108.5t-122 -38zM59 0l112 402q13 44 5.5 68t-33.5 24q-24 0 -45 -19t-45 -63l-18 -33h-11l23 42q17 31 37 55.5t45.5 38.5t57.5 14q39 0 62.5 -19.5t29.5 -54.5t-7 -82l-105 -373h-108z" />
    <glyph glyph-name="Omacron" unicode="&#x14c;" horiz-adv-x="825" 
d="M379 -14q-88 0 -153.5 38t-101 106.5t-35.5 159.5q0 88 32.5 166t89.5 138t131.5 94t158.5 34q88 0 152.5 -37.5t100.5 -106t36 -160.5q0 -88 -32.5 -166t-89.5 -138t-131 -94t-158 -34zM375 -3q59 0 111.5 37t93.5 101t64 146.5t23 172.5q0 82 -19 139.5t-55 87.5
t-89 30q-58 0 -111 -37.5t-94 -102t-64.5 -147t-23.5 -172.5q0 -122 42.5 -188.5t121.5 -66.5zM353 828l2 12h400l-3 -12h-399z" />
    <glyph glyph-name="omacron" unicode="&#x14d;" horiz-adv-x="571" 
d="M226 -14q-87 0 -135 53.5t-48 147.5q0 70 24 131.5t66 109t96.5 74.5t115.5 27q86 0 134.5 -53.5t48.5 -148.5q0 -69 -24 -130.5t-66 -108.5t-96.5 -74.5t-115.5 -27.5zM227 -3q28 0 56.5 20.5t52.5 57t43 83.5t29.5 101t10.5 108q0 74 -18.5 112.5t-54.5 38.5
q-29 0 -57.5 -21t-53 -57t-43.5 -83t-29.5 -100.5t-10.5 -108.5q0 -74 19 -112.5t56 -38.5zM218 694l3 11h352l-3 -11h-352z" />
    <glyph glyph-name="Obreve" unicode="&#x14e;" horiz-adv-x="825" 
d="M379 -14q-88 0 -153.5 38t-101 106.5t-35.5 159.5q0 88 32.5 166t89.5 138t131.5 94t158.5 34q88 0 152.5 -37.5t100.5 -106t36 -160.5q0 -88 -32.5 -166t-89.5 -138t-131 -94t-158 -34zM375 -3q59 0 111.5 37t93.5 101t64 146.5t23 172.5q0 82 -19 139.5t-55 87.5
t-89 30q-58 0 -111 -37.5t-94 -102t-64.5 -147t-23.5 -172.5q0 -122 42.5 -188.5t121.5 -66.5zM545 777q-75 0 -125 34.5t-75 103.5l7 6q35 -34 87.5 -51.5t121.5 -17.5q70 0 131 17.5t100 50.5l7 -6q-45 -67 -111 -102t-143 -35z" />
    <glyph glyph-name="obreve" unicode="&#x14f;" horiz-adv-x="571" 
d="M226 -14q-87 0 -135 53.5t-48 147.5q0 70 24 131.5t66 109t96.5 74.5t115.5 27q86 0 134.5 -53.5t48.5 -148.5q0 -69 -24 -130.5t-66 -108.5t-96.5 -74.5t-115.5 -27.5zM227 -3q28 0 56.5 20.5t52.5 57t43 83.5t29.5 101t10.5 108q0 74 -18.5 112.5t-54.5 38.5
q-29 0 -57.5 -21t-53 -57t-43.5 -83t-29.5 -100.5t-10.5 -108.5q0 -74 19 -112.5t56 -38.5zM373 611q-70 0 -107.5 43t-33.5 127l8 2q17 -53 54.5 -75.5t96.5 -22.5t107.5 20.5t94.5 75.5l7 -4q-38 -79 -97.5 -122.5t-129.5 -43.5z" />
    <glyph glyph-name="Ohungarumlaut" unicode="&#x150;" horiz-adv-x="825" 
d="M379 -14q-88 0 -153.5 38t-101 106.5t-35.5 159.5q0 88 32.5 166t89.5 138t131.5 94t158.5 34q88 0 152.5 -37.5t100.5 -106t36 -160.5q0 -88 -32.5 -166t-89.5 -138t-131 -94t-158 -34zM375 -3q59 0 111.5 37t93.5 101t64 146.5t23 172.5q0 82 -19 139.5t-55 87.5
t-89 30q-58 0 -111 -37.5t-94 -102t-64.5 -147t-23.5 -172.5q0 -122 42.5 -188.5t121.5 -66.5zM376 779l-4 7q46 34 73 61.5t46 48.5t40 33q23 13 43.5 10t30.5 -21q10 -17 4 -35.5t-28 -32.5q-23 -14 -52.5 -21.5t-67.5 -17.5t-85 -32zM592 779l-4 7q46 34 73 61.5t46 48.5
t39 33q24 13 44 10t31 -21q10 -17 4 -35.5t-29 -32.5q-22 -14 -51.5 -21.5t-67.5 -17.5t-85 -32z" />
    <glyph glyph-name="ohungarumlaut" unicode="&#x151;" horiz-adv-x="571" 
d="M226 -14q-87 0 -135 53.5t-48 147.5q0 70 24 131.5t66 109t96.5 74.5t115.5 27q86 0 134.5 -53.5t48.5 -148.5q0 -69 -24 -130.5t-66 -108.5t-96.5 -74.5t-115.5 -27.5zM227 -3q28 0 56.5 20.5t52.5 57t43 83.5t29.5 101t10.5 108q0 74 -18.5 112.5t-54.5 38.5
q-29 0 -57.5 -21t-53 -57t-43.5 -83t-29.5 -100.5t-10.5 -108.5q0 -74 19 -112.5t56 -38.5zM258 601l-5 6q42 48 67.5 84.5t43.5 63.5t38 47t40.5 21.5t33.5 -12.5q12 -13 9 -31.5t-24 -38.5q-19 -19 -47.5 -36t-66.5 -40.5t-89 -63.5zM459 601l-5 6q43 48 68 84.5
t43.5 63.5t38.5 47q19 20 40 21.5t33 -12.5q13 -13 9.5 -31.5t-24.5 -38.5q-19 -19 -47.5 -36t-66.5 -40.5t-89 -63.5z" />
    <glyph glyph-name="OE" unicode="&#x152;" horiz-adv-x="1080" 
d="M351 -14q-82 0 -142 35t-93 98.5t-33 150.5q0 95 37 177t102 143.5t151 96.5t186 35q29 0 49.5 -2.5t39.5 -6t42 -6t57 -2.5h163q51 0 98 1t88 2q-14 -46 -23 -93t-15 -100h-11q-3 69 -14.5 108t-36 55t-66.5 16h-123l-168 -601q-13 -49 -1.5 -64t62.5 -15h15
q55 0 96.5 11t75 36.5t63.5 70t60 110.5h12q-28 -69 -47.5 -127.5t-32.5 -114.5q-16 1 -34.5 1.5t-42.5 1t-55 0.5h-72h-179q-33 -1 -59.5 -3.5t-50.5 -5.5t-47 -5.5t-51 -2.5zM380 -2q57 0 97 36.5t60 108.5l121 435q19 66 -5 99.5t-88 33.5q-74 0 -139 -36t-114.5 -100
t-77.5 -147.5t-28 -178.5q0 -80 20.5 -136t59.5 -85.5t94 -29.5zM674 351l4 11h167l-3 -11h-168zM871 214q7 76 -16.5 106.5t-87.5 30.5l3 11q44 0 74.5 12.5t54.5 42t47 81.5h11l-12.5 -40t-15.5 -50.5t-14 -52.5q-3 -12 -7 -27t-8 -32.5t-8.5 -38t-8.5 -43.5h-12z" />
    <glyph glyph-name="oe" unicode="&#x153;" horiz-adv-x="862" 
d="M216 -14q-81 0 -126.5 53.5t-45.5 147.5q0 70 23 131.5t63.5 108.5t93 74.5t111.5 27.5q76 0 118.5 -53.5t42.5 -148.5q0 -69 -22 -130.5t-61 -108.5t-89.5 -74.5t-107.5 -27.5zM219 -3q27 0 53 20.5t49.5 57t41 83.5t27.5 101t10 109q0 73 -17 111.5t-49 38.5
q-27 0 -53.5 -20.5t-49.5 -57t-40.5 -83.5t-27.5 -100.5t-10 -108.5q0 -74 17 -112.5t49 -38.5zM564 -14q-81 0 -125 51t-44 144q0 70 24.5 132.5t67.5 111t98.5 76.5t117.5 28q56 0 85 -22.5t29 -64.5q0 -49 -40.5 -95t-113 -83t-168.5 -58v10q74 22 125 56t77.5 78
t26.5 96q0 35 -10.5 53.5t-31.5 18.5q-32 0 -64 -30t-58.5 -79.5t-42.5 -108.5t-16 -116q0 -80 29.5 -120.5t86.5 -40.5q45 0 82.5 28.5t68.5 89.5h11q-36 -76 -90.5 -115.5t-124.5 -39.5z" />
    <glyph glyph-name="Racute" unicode="&#x154;" horiz-adv-x="772" 
d="M-23 0l3 11q45 4 68 11t34.5 24t20.5 51l144 514q10 35 8 52t-20.5 24t-61.5 10l3 11q28 -1 64 -1h77q44 0 79 0.5t59 0.5h37q104 0 163.5 -41t59.5 -112q0 -62 -42.5 -110t-118 -75.5t-173.5 -27.5h-103l3 11h81q73 0 125 24.5t80.5 70.5t28.5 108q0 68 -35.5 104
t-104.5 36h-69l-167 -599q-10 -34 -8 -51.5t21 -24t61 -10.5l-3 -11q-31 2 -70 2.5t-83 0.5q-46 0 -86.5 -0.5t-74.5 -2.5zM597 -14q-46 0 -74 25.5t-36 73.5l-21 125q-9 53 -21.5 81.5t-36.5 39.5t-69 11l4 6q82 -1 131 -17t75 -55t37 -108l12 -65q6 -38 18 -55t33 -17
q23 0 42.5 16.5t38.5 52.5l33 62h11l-39 -72q-16 -30 -35.5 -53.5t-44 -37t-58.5 -13.5zM449 788l-4 7q55 35 88 61t55.5 44.5t44.5 29.5q25 11 45.5 6.5t28.5 -22.5q9 -18 1.5 -36t-32.5 -30q-22 -11 -51 -16.5t-71.5 -14.5t-104.5 -29z" />
    <glyph glyph-name="racute" unicode="&#x155;" horiz-adv-x="512" 
d="M59 0l112 402q13 44 4.5 68t-33.5 24q-22 0 -44 -19.5t-43 -58.5l-20 -37h-11l23 42q17 31 37 55.5t45.5 38.5t57.5 14q39 0 62.5 -19t29.5 -54.5t-7 -82.5l-105 -373h-108zM428 357q-19 0 -30 11t-11 29q0 16 8 31t15.5 29t7.5 25q0 19 -29 19q-28 0 -59 -20.5
t-56 -61.5l-1 8q29 50 68 76t83 26q39 0 60.5 -20t21.5 -56q0 -25 -10.5 -47t-28.5 -35.5t-39 -13.5zM284 603l-5 5q43 49 69.5 85.5t45.5 64.5t40 48q21 21 42.5 23t34.5 -13q13 -14 9 -33t-26 -40q-21 -19 -50.5 -36.5t-68.5 -41t-91 -62.5z" />
    <glyph glyph-name="uni0156" unicode="&#x156;" horiz-adv-x="772" 
d="M-23 0l3 11q45 4 68 11t34.5 24t20.5 51l144 514q10 35 8 52t-20.5 24t-61.5 10l3 11q28 -1 64 -1h77q44 0 79 0.5t59 0.5h37q104 0 163.5 -41t59.5 -112q0 -62 -42.5 -110t-118 -75.5t-173.5 -27.5h-103l3 11h81q73 0 125 24.5t80.5 70.5t28.5 108q0 68 -35.5 104
t-104.5 36h-69l-167 -599q-10 -34 -8 -51.5t21 -24t61 -10.5l-3 -11q-31 2 -70 2.5t-83 0.5q-46 0 -86.5 -0.5t-74.5 -2.5zM597 -14q-46 0 -74 25.5t-36 73.5l-21 125q-9 53 -21.5 81.5t-36.5 39.5t-69 11l4 6q82 -1 131 -17t75 -55t37 -108l12 -65q6 -38 18 -55t33 -17
q23 0 42.5 16.5t38.5 52.5l33 62h11l-39 -72q-16 -30 -35.5 -53.5t-44 -37t-58.5 -13.5zM236 -255l-2 7q51 10 69 21t18 24q0 15 -14.5 26t-30 24.5t-15.5 34.5q0 20 16.5 32t43.5 12q37 0 60.5 -20t23.5 -51q0 -38 -43.5 -66t-125.5 -44z" />
    <glyph glyph-name="uni0157" unicode="&#x157;" horiz-adv-x="512" 
d="M59 0l112 402q13 44 4.5 68t-33.5 24q-22 0 -44 -19.5t-43 -58.5l-20 -37h-11l23 42q17 31 37 55.5t45.5 38.5t57.5 14q39 0 62.5 -19t29.5 -54.5t-7 -82.5l-105 -373h-108zM428 357q-19 0 -30 11t-11 29q0 16 8 31t15.5 29t7.5 25q0 19 -29 19q-28 0 -59 -20.5
t-56 -61.5l-1 8q29 50 68 76t83 26q39 0 60.5 -20t21.5 -56q0 -25 -10.5 -47t-28.5 -35.5t-39 -13.5zM-10 -255l-2 7q51 10 69 21t18 24q0 15 -14.5 26t-30 24.5t-15.5 34.5q0 20 16.5 32t43.5 12q37 0 60.5 -20t23.5 -51q0 -38 -43.5 -66t-125.5 -44z" />
    <glyph glyph-name="Rcaron" unicode="&#x158;" horiz-adv-x="772" 
d="M-23 0l3 11q45 4 68 11t34.5 24t20.5 51l144 514q10 35 8 52t-20.5 24t-61.5 10l3 11q28 -1 64 -1h77q44 0 79 0.5t59 0.5h37q104 0 163.5 -41t59.5 -112q0 -62 -42.5 -110t-118 -75.5t-173.5 -27.5h-103l3 11h81q73 0 125 24.5t80.5 70.5t28.5 108q0 68 -35.5 104
t-104.5 36h-69l-167 -599q-10 -34 -8 -51.5t21 -24t61 -10.5l-3 -11q-31 2 -70 2.5t-83 0.5q-46 0 -86.5 -0.5t-74.5 -2.5zM597 -14q-46 0 -74 25.5t-36 73.5l-21 125q-9 53 -21.5 81.5t-36.5 39.5t-69 11l4 6q82 -1 131 -17t75 -55t37 -108l12 -65q6 -38 18 -55t33 -17
q23 0 42.5 16.5t38.5 52.5l33 62h11l-39 -72q-16 -30 -35.5 -53.5t-44 -37t-58.5 -13.5zM728 958l5 -8l-242 -157h-21l-155 156l7 9l237 -95l-33 -3z" />
    <glyph glyph-name="rcaron" unicode="&#x159;" horiz-adv-x="512" 
d="M59 0l112 402q13 44 4.5 68t-33.5 24q-22 0 -44 -19.5t-43 -58.5l-20 -37h-11l23 42q17 31 37 55.5t45.5 38.5t57.5 14q39 0 62.5 -19t29.5 -54.5t-7 -82.5l-105 -373h-108zM428 357q-19 0 -30 11t-11 29q0 16 8 31t15.5 29t7.5 25q0 19 -29 19q-28 0 -59 -20.5
t-56 -61.5l-1 8q29 50 68 76t83 26q39 0 60.5 -20t21.5 -56q0 -25 -10.5 -47t-28.5 -35.5t-39 -13.5zM551 825l5 -7l-229 -210h-11l-113 211l8 6l179 -140l-32 1z" />
    <glyph glyph-name="Sacute" unicode="&#x15a;" horiz-adv-x="659" 
d="M310 -14q-61 0 -104.5 14.5t-73 30t-48.5 15.5q-14 0 -26.5 -10.5t-28.5 -35.5h-12q19 48 34.5 103t32.5 136h11q-8 -112 46.5 -176.5t157.5 -64.5q73 0 115 35t42 95q0 43 -20.5 76t-52.5 61.5t-68.5 56t-68.5 57t-52.5 66t-20.5 82.5q0 57 30 101t83 69t120 25
q56 0 91.5 -14.5t58.5 -29.5t41 -15q13 0 24.5 11t25.5 34h12q-19 -41 -33.5 -92t-24.5 -111h-12q6 63 -14 109t-60.5 71t-98.5 25q-65 0 -104 -34t-39 -92q0 -40 21.5 -73.5t54.5 -62.5t70 -57.5t70.5 -59t54.5 -67t21 -82.5q0 -56 -33 -100.5t-91 -70t-131 -25.5zM429 788
l-4 7q55 35 88 61t55.5 44.5t44.5 29.5q25 11 45.5 6.5t28.5 -22.5q9 -18 1.5 -36t-32.5 -30q-22 -11 -51 -16.5t-71.5 -14.5t-104.5 -29z" />
    <glyph glyph-name="sacute" unicode="&#x15b;" horiz-adv-x="494" 
d="M186 -14q-54 0 -96.5 15t-67 41.5t-24.5 59.5q0 27 15.5 42.5t40.5 15.5q24 0 37.5 -13.5t16.5 -39.5q1 -11 -0.5 -27t-1.5 -27q6 -31 24 -43.5t54 -12.5q56 0 88 26t32 71q0 32 -14.5 57.5t-37 47t-48 42t-48 42.5t-37 48t-14.5 59q0 61 54.5 100t137.5 39
q50 0 89.5 -14t62 -37.5t22.5 -53.5q0 -23 -13.5 -37.5t-36.5 -14.5t-37 13t-15 35q-1 13 0.5 27.5t0.5 23.5q-3 25 -19.5 36t-49.5 11q-46 0 -72 -22t-26 -60q0 -29 14 -53.5t36.5 -45.5t48 -42t48 -44t37 -50.5t14.5 -61.5q0 -45 -28 -79.5t-76 -54t-111 -19.5zM288 603
l-5 5q43 49 69.5 85.5t45.5 64.5t40 48q21 21 42.5 23t34.5 -13q13 -14 9 -33t-26 -40q-21 -19 -50.5 -36.5t-68.5 -41t-91 -62.5z" />
    <glyph glyph-name="Scircumflex" unicode="&#x15c;" horiz-adv-x="659" 
d="M310 -14q-61 0 -104.5 14.5t-73 30t-48.5 15.5q-14 0 -26.5 -10.5t-28.5 -35.5h-12q19 48 34.5 103t32.5 136h11q-8 -112 46.5 -176.5t157.5 -64.5q73 0 115 35t42 95q0 43 -20.5 76t-52.5 61.5t-68.5 56t-68.5 57t-52.5 66t-20.5 82.5q0 57 30 101t83 69t120 25
q56 0 91.5 -14.5t58.5 -29.5t41 -15q13 0 24.5 11t25.5 34h12q-19 -41 -33.5 -92t-24.5 -111h-12q6 63 -14 109t-60.5 71t-98.5 25q-65 0 -104 -34t-39 -92q0 -40 21.5 -73.5t54.5 -62.5t70 -57.5t70.5 -59t54.5 -67t21 -82.5q0 -56 -33 -100.5t-91 -70t-131 -25.5zM259 774
l-5 8l242 157h21l155 -156l-7 -9l-237 95l34 3z" />
    <glyph glyph-name="scircumflex" unicode="&#x15d;" horiz-adv-x="494" 
d="M186 -14q-54 0 -96.5 15t-67 41.5t-24.5 59.5q0 27 15.5 42.5t40.5 15.5q24 0 37.5 -13.5t16.5 -39.5q1 -11 -0.5 -27t-1.5 -27q6 -31 24 -43.5t54 -12.5q56 0 88 26t32 71q0 32 -14.5 57.5t-37 47t-48 42t-48 42.5t-37 48t-14.5 59q0 61 54.5 100t137.5 39
q50 0 89.5 -14t62 -37.5t22.5 -53.5q0 -23 -13.5 -37.5t-36.5 -14.5t-37 13t-15 35q-1 13 0.5 27.5t0.5 23.5q-3 25 -19.5 36t-49.5 11q-46 0 -72 -22t-26 -60q0 -29 14 -53.5t36.5 -45.5t48 -42t48 -44t37 -50.5t14.5 -61.5q0 -45 -28 -79.5t-76 -54t-111 -19.5zM157 605
l-5 6l229 210h11l113 -210l-8 -6l-179 140l32 -1z" />
    <glyph glyph-name="Scedilla" unicode="&#x15e;" horiz-adv-x="659" 
d="M310 -14q-61 0 -104.5 14.5t-73 30t-48.5 15.5q-14 0 -26.5 -10.5t-28.5 -35.5h-12q19 48 34.5 103t32.5 136h11q-8 -112 46.5 -176.5t157.5 -64.5q73 0 115 35t42 95q0 43 -20.5 76t-52.5 61.5t-68.5 56t-68.5 57t-52.5 66t-20.5 82.5q0 57 30 101t83 69t120 25
q56 0 91.5 -14.5t58.5 -29.5t41 -15q13 0 24.5 11t25.5 34h12q-19 -41 -33.5 -92t-24.5 -111h-12q6 63 -14 109t-60.5 71t-98.5 25q-65 0 -104 -34t-39 -92q0 -40 21.5 -73.5t54.5 -62.5t70 -57.5t70.5 -59t54.5 -67t21 -82.5q0 -56 -33 -100.5t-91 -70t-131 -25.5z
M187 -245q-25 0 -48 3.5t-39 9.5l1 7q11 -3 26 -5t34 -2q50 0 82.5 21t32.5 56q0 21 -14.5 33.5t-41.5 12.5q-6 0 -13 -0.5t-12 -1.5l70 102h8l-58 -87q9 3 24 5.5t35 2.5q42 0 65.5 -17t23.5 -47q0 -41 -49.5 -67t-126.5 -26z" />
    <glyph glyph-name="scedilla" unicode="&#x15f;" horiz-adv-x="494" 
d="M186 -14q-54 0 -96.5 15t-67 41.5t-24.5 59.5q0 27 15.5 42.5t40.5 15.5q24 0 37.5 -13.5t16.5 -39.5q1 -11 -0.5 -27t-1.5 -27q6 -31 24 -43.5t54 -12.5q56 0 88 26t32 71q0 32 -14.5 57.5t-37 47t-48 42t-48 42.5t-37 48t-14.5 59q0 61 54.5 100t137.5 39
q50 0 89.5 -14t62 -37.5t22.5 -53.5q0 -23 -13.5 -37.5t-36.5 -14.5t-37 13t-15 35q-1 13 0.5 27.5t0.5 23.5q-3 25 -19.5 36t-49.5 11q-46 0 -72 -22t-26 -60q0 -29 14 -53.5t36.5 -45.5t48 -42t48 -44t37 -50.5t14.5 -61.5q0 -45 -28 -79.5t-76 -54t-111 -19.5zM100 -245
q-25 0 -48 3.5t-39 9.5l1 7q11 -3 26 -5t34 -2q50 0 82.5 21t32.5 56q0 21 -14.5 33.5t-41.5 12.5q-6 0 -13 -0.5t-12 -1.5l70 102h8l-58 -87q9 3 24 5.5t35 2.5q42 0 65.5 -17t23.5 -47q0 -41 -49.5 -67t-126.5 -26z" />
    <glyph glyph-name="Scaron" unicode="&#x160;" horiz-adv-x="659" 
d="M310 -14q-61 0 -104.5 14.5t-73 30t-48.5 15.5q-14 0 -26.5 -10.5t-28.5 -35.5h-12q19 48 34.5 103t32.5 136h11q-8 -112 46.5 -176.5t157.5 -64.5q73 0 115 35t42 95q0 43 -20.5 76t-52.5 61.5t-68.5 56t-68.5 57t-52.5 66t-20.5 82.5q0 57 30 101t83 69t120 25
q56 0 91.5 -14.5t58.5 -29.5t41 -15q13 0 24.5 11t25.5 34h12q-19 -41 -33.5 -92t-24.5 -111h-12q6 63 -14 109t-60.5 71t-98.5 25q-65 0 -104 -34t-39 -92q0 -40 21.5 -73.5t54.5 -62.5t70 -57.5t70.5 -59t54.5 -67t21 -82.5q0 -56 -33 -100.5t-91 -70t-131 -25.5zM709 958
l4 -8l-242 -157h-20l-155 156l6 9l238 -95l-34 -3z" />
    <glyph glyph-name="scaron" unicode="&#x161;" horiz-adv-x="494" 
d="M186 -14q-54 0 -96.5 15t-67 41.5t-24.5 59.5q0 27 15.5 42.5t40.5 15.5q24 0 37.5 -13.5t16.5 -39.5q1 -11 -0.5 -27t-1.5 -27q6 -31 24 -43.5t54 -12.5q56 0 88 26t32 71q0 32 -14.5 57.5t-37 47t-48 42t-48 42.5t-37 48t-14.5 59q0 61 54.5 100t137.5 39
q50 0 89.5 -14t62 -37.5t22.5 -53.5q0 -23 -13.5 -37.5t-36.5 -14.5t-37 13t-15 35q-1 13 0.5 27.5t0.5 23.5q-3 25 -19.5 36t-49.5 11q-46 0 -72 -22t-26 -60q0 -29 14 -53.5t36.5 -45.5t48 -42t48 -44t37 -50.5t14.5 -61.5q0 -45 -28 -79.5t-76 -54t-111 -19.5zM555 825
l6 -7l-230 -210h-11l-113 210l8 7l180 -140l-33 1z" />
    <glyph glyph-name="uni0162" unicode="&#x162;" horiz-adv-x="735" 
d="M111 0l3 11q56 4 85 11t43 24.5t24 52.5l161 576l108 -28l-153 -548q-9 -33 -5 -51.5t30.5 -26t81.5 -10.5l-3 -11q-33 1 -82.5 2t-106.5 1q-53 0 -102 -1t-84 -2zM146 430q-29 0 -48 23t-19 63q0 59 31 105.5t84.5 73.5t120.5 27q53 0 104 -15.5t97 -35t84.5 -34.5
t66.5 -15t41 15t18 37.5t10.5 44.5t17 37.5t38.5 15.5q24 0 37.5 -14t13.5 -40q0 -49 -47.5 -78t-128.5 -29q-43 0 -88 8t-92.5 18.5t-99 18.5t-107.5 8q-76 0 -117.5 -16.5t-41.5 -46.5q0 -16 11.5 -30.5t27.5 -28.5t28 -29.5t12 -34.5q0 -21 -15 -34.5t-39 -13.5z
M220 -245q-25 0 -48 3.5t-39 9.5l1 7q11 -3 26 -5t34 -2q50 0 82.5 21t32.5 56q0 21 -14.5 33.5t-41.5 12.5q-6 0 -13 -0.5t-12 -1.5l90 133h10l-78 -117q8 2 22.5 4.5t34.5 2.5q42 0 65.5 -17t23.5 -47q0 -41 -49.5 -67t-126.5 -26z" />
    <glyph glyph-name="uni0163" unicode="&#x163;" horiz-adv-x="422" 
d="M186 -14q-62 0 -88 43.5t-6 113.5l146 522q30 1 58 5t55 11l-159 -569q-12 -44 -2 -67.5t40 -23.5q26 0 50.5 20.5t46.5 61.5l18 33h11l-25 -46q-15 -28 -35.5 -52t-47 -38t-62.5 -14zM88 504l3 11h361l-3 -11h-361zM103 -245q-25 0 -48 3.5t-39 9.5l1 7q11 -3 26 -5
t34 -2q50 0 82.5 21t32.5 56q0 21 -14.5 33.5t-41.5 12.5q-6 0 -13 -0.5t-12 -1.5l70 102h8l-58 -87q9 3 24 5.5t35 2.5q42 0 65.5 -17t23.5 -47q0 -41 -49.5 -67t-126.5 -26z" />
    <glyph glyph-name="Tcaron" unicode="&#x164;" horiz-adv-x="735" 
d="M111 0l3 11q56 4 85 11t43 24.5t24 52.5l161 576l108 -28l-153 -548q-9 -33 -5 -51.5t30.5 -26t81.5 -10.5l-3 -11q-33 1 -82.5 2t-106.5 1q-53 0 -102 -1t-84 -2zM146 430q-29 0 -48 23t-19 63q0 59 31 105.5t84.5 73.5t120.5 27q53 0 104 -15.5t97 -35t84.5 -34.5
t66.5 -15t41 15t18 37.5t10.5 44.5t17 37.5t38.5 15.5q24 0 37.5 -14t13.5 -40q0 -49 -47.5 -78t-128.5 -29q-43 0 -88 8t-92.5 18.5t-99 18.5t-107.5 8q-76 0 -117.5 -16.5t-41.5 -46.5q0 -16 11.5 -30.5t27.5 -28.5t28 -29.5t12 -34.5q0 -21 -15 -34.5t-39 -13.5zM761 958
l4 -8l-242 -157h-20l-155 156l6 9l238 -95l-34 -3z" />
    <glyph glyph-name="tcaron" unicode="&#x165;" horiz-adv-x="422" 
d="M421 598l-8 3q28 69 39.5 116t11.5 66q0 17 -16 19l3 11q23 0 56 2.5t56 8.5q1 -1 1 -3.5v-6.5q0 -22 -16.5 -54.5t-48 -73t-78.5 -88.5zM186 -14q-62 0 -88 43.5t-6 113.5l146 522q30 1 58 5t55 11l-159 -569q-12 -44 -2 -67.5t40 -23.5q26 0 50.5 20.5t46.5 61.5l18 33
h11l-25 -46q-15 -28 -35.5 -52t-47 -38t-62.5 -14zM88 504l3 11h361l-3 -11h-361z" />
    </font>
</defs>
</svg>
